{
.appVersion = "3108";
.formatVersion = 3;
DisplayStrings = (
"uµ",
"π",
"Þ",
"ď"
);
axes = (
{
name = Weight;
tag = wght;
},
{
name = Width;
tag = wdth;
},
{
name = Punctuation;
tag = punc;
}
);
customParameters = (
{
name = "Variable Font Origin";
value = "FC837317-1536-49E4-8B36-958C77713550";
},
{
name = "Virtual Master";
value = (
{
Axis = Weight;
Location = 96;
},
{
Axis = Width;
Location = 100;
},
{
Axis = Punctuation;
Location = 1;
}
);
},
{
name = "Virtual Master";
value = (
{
Axis = Weight;
Location = 144;
},
{
Axis = Width;
Location = 100;
},
{
Axis = Punctuation;
Location = 1;
}
);
},
{
name = "Virtual Master";
value = (
{
Axis = Weight;
Location = 96;
},
{
Axis = Width;
Location = 100;
},
{
Axis = Punctuation;
Location = 100;
}
);
},
{
name = "Virtual Master";
value = (
{
Axis = Weight;
Location = 144;
},
{
Axis = Width;
Location = 100;
},
{
Axis = Punctuation;
Location = 100;
}
);
},
{
name = "Use Extension Kerning";
value = 1;
},
{
name = "Axis Mappings";
value = {
punc = {
0 = 0;
100 = 100;
};
wdth = {
100 = 100;
200 = 200;
};
wght = {
96 = 400;
144 = 700;
};
};
},
{
name = blueScale;
value = 0.037;
},
{
name = blueShift;
value = 5;
},
{
name = blueFuzz;
value = 0;
}
);
date = "2022-03-23 18:39:18 +0000";
familyName = Optical_073_Italic;
featurePrefixes = (
{
automatic = 1;
code = "languagesystem DFLT dflt;

languagesystem latn dflt;
languagesystem latn AZE;
languagesystem latn CRT;
languagesystem latn KAZ;
languagesystem latn TAT;
languagesystem latn TRK;
languagesystem latn ROM;
languagesystem latn MOL;
languagesystem latn NLD;
";
name = Languagesystems;
}
);
features = (
{
automatic = 1;
code = "feature locl;
feature ss01;
feature ss02;
feature ss04;
feature ss05;
feature ss06;
feature ss07;
feature sups;
feature ordn;
feature ss03;
";
tag = aalt;
},
{
automatic = 1;
code = "lookup ccmp_Other_1 {

glyphs = (
{
color = 5;
glyphname = A;
kernLeft = KO_A;
kernRight = KO_A;
lastChange = "2022-03-23 22:41:43 +0000";
layers = (
{
anchors = (
{
name = bottom;
pos = (699,0);
},
{
name = ogonek;
pos = (1369,0);
},
{
name = top;
pos = (806,1510);
}
);
background = {
shapes = (
{
closed = 1;
nodes = (
(258,0,l),
(404,420,l),
(964,420,l),
(1110,0,l),
(1336,0,l),
(800,1512,l),
(568,1512,l),
(32,0,l)
);
},
{
closed = 1;
nodes = (
(684,1232,l),
(898,612,l),
(470,612,l)
);
}
);
};
layerId = "FC837317-1536-49E4-8B36-958C77713550";
shapes = (
{
closed = 1;
nodes = (
(237,0,l),
(766,1237,ls),
(777,1263,o),
(786,1287,o),
(787,1306,c),
(793,1306,l),
(792,1290,o),
(796,1265,o),
(804,1238,cs),
(1161,0,l),
(1369,0,l),
(905,1510,l),
(705,1510,l),
(29,0,l)
);
},
{
closed = 1;
nodes = (
(1074,448,l),
(1086,616,l),
(398,616,l),
(386,448,l)
);
}
);
width = 1398;
},
{
anchors = (
{
name = bottom;
pos = (754,-4);
},
{
name = ogonek;
pos = (1519,0);
},
{
name = top;
pos = (877,1510);
}
);
layerId = m014;
shapes = (
{
closed = 1;
nodes = (
(327,0,l),
(819,1090,ls),
(831,1117,o),
(849,1164,o),
(851,1194,c),
(857,1194,l),
(856,1168,o),
(863,1126,o),
(874,1091,cs),
(1215,0,l),
(1519,0,l),
(1013,1512,l),
(741,1512,l),
(23,0,l)
);
},
{
closed = 1;
nodes = (
(1214,336,l),
(1231,576,l),
(387,576,l),
(370,336,l)
);
}
);
width = 1542;
},
{
anchors = (
{
name = bottom;
pos = (806,0);
},
{
name = ogonek;
pos = (1569,0);
},
{
name = top;
pos = (905,1510);
}
);
background = {
shapes = (
{
closed = 1;
nodes = (
(258,0,l),
(404,420,l),
(964,420,l),
(1110,0,l),
(1336,0,l),
(800,1512,l),
(568,1512,l),
(32,0,l)
);
},
{
closed = 1;
nodes = (
(684,1232,l),
(898,612,l),
(470,612,l)
);
}
);
};
layerId = m003;
shapes = (
{
closed = 1;
nodes = (
(240,0,l),
(828,1206,ls),
(862,1275,o),
(875,1299,o),
(892,1346,c),
(894,1346,l),
(907,1299,o),
(908,1299,o),
(940,1206,cs),
(1358,0,l),
(1569,0,l),
(1010,1510,l),
(800,1510,l),
(29,0,l)
);
},
{
closed = 1;
nodes = (
(1211,448,l),
(1223,616,l),
(462,616,l),
(450,448,l)
);
}
);
width = 1598;
},
{
anchors = (
{
name = bottom;
pos = (861,-4);
},
{
name = ogonek;
pos = (1719,0);
},
{
name = top;
pos = (977,1510);
}
);
guides = (
{
pos = (933,1085);
}
);
layerId = m004;
shapes = (
{
closed = 1;
nodes = (
(330,0,l),
(861,1040,ls),
(917,1149,o),
(940,1194,o),
(956,1254,c),
(962,1254,l),
(967,1192,o),
(985,1148,o),
(1025,1041,cs),
(1412,0,l),
(1719,0,l),
(1118,1512,l),
(836,1512,l),
(23,0,l)
);
},
{
closed = 1;
nodes = (
(1351,336,l),
(1368,576,l),
(451,576,l),
(434,336,l)
);
}
);
width = 1742;
}
);
unicode = 65;
userData = {
KernOnName = A;
};
},
{
color = 4;
glyphname = Aacute;
kernLeft = KO_A;
kernRight = KO_A;
lastChange = "2022-03-23 22:41:43 +0000";
layers = (
{
anchors = (
{
name = bottom;
pos = (699,0);
},
{
name = ogonek;
pos = (1369,0);
},
{
name = top;
pos = (941,1836);
}
);
layerId = "FC837317-1536-49E4-8B36-958C77713550";
shapes = (
{
closed = 1;
nodes = (
(237,0,l),
(766,1237,ls),
(777,1263,o),
(786,1287,o),
(787,1306,c),
(793,1306,l),
(792,1290,o),
(796,1265,o),
(804,1238,cs),
(1161,0,l),
(1369,0,l),
(905,1510,l),
(705,1510,l),
(29,0,l)
);
},
{
closed = 1;
nodes = (
(1074,448,l),
(1086,616,l),
(398,616,l),
(386,448,l)
);
},
{
closed = 1;
nodes = (
(879,1612,l),
(1180,1844,l),
(943,1844,l),
(703,1612,l)
);
}
);
width = 1398;
},
{
anchors = (
{
name = bottom;
pos = (754,-4);
},
{
name = ogonek;
pos = (1519,0);
},
{
name = top;
pos = (1042,1898);
}
);
layerId = m014;
shapes = (
{
closed = 1;
nodes = (
(327,0,l),
(819,1090,ls),
(831,1117,o),
(849,1164,o),
(851,1194,c),
(857,1194,l),
(856,1168,o),
(863,1126,o),
(874,1091,cs),
(1215,0,l),
(1519,0,l),
(1013,1512,l),
(741,1512,l),
(23,0,l)
);
},
{
closed = 1;
nodes = (
(1214,336,l),
(1231,576,l),
(387,576,l),
(370,336,l)
);
},
{
closed = 1;
nodes = (
(965,1628,l),
(1326,1868,l),
(1040,1868,l),
(752,1628,l)
);
}
);
width = 1542;
},
{
anchors = (
{
name = bottom;
pos = (806,0);
},
{
name = ogonek;
pos = (1569,0);
},
{
name = top;
pos = (1127,1844);
}
);
layerId = m003;
shapes = (
{
closed = 1;
nodes = (
(240,0,l),
(828,1206,ls),
(862,1275,o),
(875,1299,o),
(892,1346,c),
(894,1346,l),
(907,1299,o),
(908,1299,o),
(940,1206,cs),
(1358,0,l),
(1569,0,l),
(1010,1510,l),
(800,1510,l),
(29,0,l)
);
},
{
closed = 1;
nodes = (
(1211,448,l),
(1223,616,l),
(462,616,l),
(450,448,l)
);
},
{
closed = 1;
nodes = (
(1015,1616,l),
(1450,1848,l),
(1143,1848,l),
(787,1616,l)
);
}
);
width = 1598;
},
{
anchors = (
{
name = bottom;
pos = (861,-4);
},
{
name = ogonek;
pos = (1719,0);
},
{
name = top;
pos = (1216,1868);
}
);
layerId = m004;
shapes = (
{
closed = 1;
nodes = (
(330,0,l),
(861,1040,ls),
(917,1149,o),
(940,1194,o),
(956,1254,c),
(962,1254,l),
(967,1192,o),
(985,1148,o),
(1025,1041,cs),
(1412,0,l),
(1719,0,l),
(1118,1512,l),
(836,1512,l),
(23,0,l)
);
},
{
closed = 1;
nodes = (
(1351,336,l),
(1368,576,l),
(451,576,l),
(434,336,l)
);
},
{
closed = 1;
nodes = (
(1119,1628,l),
(1525,1868,l),
(1136,1868,l),
(839,1628,l)
);
}
);
width = 1742;
}
);
unicode = 193;
},
{
color = 4;
glyphname = Abreve;
kernLeft = KO_A;
kernRight = KO_A;
lastChange = "2022-03-23 22:41:43 +0000";
layers = (
{
anchors = (
{
name = bottom;
pos = (699,0);
},
{
name = ogonek;
pos = (1369,0);
},
{
name = top;
pos = (829,1840);
}
);
layerId = "FC837317-1536-49E4-8B36-958C77713550";
shapes = (
{
closed = 1;
nodes = (
(237,0,l),
(766,1237,ls),
(777,1263,o),
(786,1287,o),
(787,1306,c),
(793,1306,l),
(792,1290,o),
(796,1265,o),
(804,1238,cs),
(1161,0,l),
(1369,0,l),
(905,1510,l),
(705,1510,l),
(29,0,l)
);
},
{
closed = 1;
nodes = (
(1074,448,l),
(1086,616,l),
(398,616,l),
(386,448,l)
);
},
{
closed = 1;
nodes = (
(995,1593,o),
(1119,1702,o),
(1100,1856,c),
(946,1856,l),
(962,1770,o),
(915,1724,o),
(821,1724,cs),
(727,1724,o),
(686,1770,o),
(714,1856,c),
(560,1856,l),
(519,1702,o),
(628,1593,o),
(811,1593,cs)
);
}
);
width = 1398;
},
{
anchors = (
{
name = bottom;
pos = (754,-4);
},
{
name = ogonek;
pos = (1519,0);
},
{
name = top;
pos = (904,1909);
}
);
layerId = m014;
shapes = (
{
closed = 1;
nodes = (
(327,0,l),
(819,1090,ls),
(831,1117,o),
(849,1164,o),
(851,1194,c),
(857,1194,l),
(856,1168,o),
(863,1126,o),
(874,1091,cs),
(1215,0,l),
(1519,0,l),
(1013,1512,l),
(741,1512,l),
(23,0,l)
);
},
{
closed = 1;
nodes = (
(1214,336,l),
(1231,576,l),
(387,576,l),
(370,336,l)
);
},
{
closed = 1;
nodes = (
(1071,1600,o),
(1212,1711,o),
(1189,1869,c),
(1002,1869,l),
(1019,1794,o),
(972,1753,o),
(894,1753,cs),
(817,1753,o),
(773,1794,o),
(802,1869,c),
(615,1869,l),
(570,1711,o),
(694,1600,o),
(883,1600,cs)
);
}
);
width = 1542;
},
{
anchors = (
{
name = bottom;
pos = (806,0);
},
{
name = ogonek;
pos = (1569,0);
},
{
name = top;
pos = (928,1840);
}
);
layerId = m003;
shapes = (
{
closed = 1;
nodes = (
(240,0,l),
(828,1206,ls),
(862,1275,o),
(875,1299,o),
(892,1346,c),
(894,1346,l),
(907,1299,o),
(908,1299,o),
(940,1206,cs),
(1358,0,l),
(1569,0,l),
(1010,1510,l),
(800,1510,l),
(29,0,l)
);
},
{
closed = 1;
nodes = (
(1211,448,l),
(1223,616,l),
(462,616,l),
(450,448,l)
);
},
{
closed = 1;
nodes = (
(1139,1593,o),
(1291,1702,o),
(1265,1856,c),
(1073,1856,l),
(1094,1762,o),
(1036,1712,o),
(919,1712,cs),
(802,1712,o),
(750,1762,o),
(785,1856,c),
(593,1856,l),
(545,1702,o),
(681,1593,o),
(910,1593,cs)
);
}
);
width = 1598;
},
{
anchors = (
{
name = bottom;
pos = (861,-4);
},
{
name = ogonek;
pos = (1719,0);
},
{
name = top;
pos = (1004,1909);
}
);
layerId = m004;
shapes = (
{
closed = 1;
nodes = (
(330,0,l),
(861,1040,ls),
(917,1149,o),
(940,1194,o),
(956,1254,c),
(962,1254,l),
(967,1192,o),
(985,1148,o),
(1025,1041,cs),
(1412,0,l),
(1719,0,l),
(1118,1512,l),
(836,1512,l),
(23,0,l)
);
},
{
closed = 1;
nodes = (
(1351,336,l),
(1368,576,l),
(451,576,l),
(434,336,l)
);
},
{
closed = 1;
nodes = (
(1203,1600,o),
(1367,1711,o),
(1338,1869,c),
(1119,1869,l),
(1140,1794,o),
(1086,1753,o),
(994,1753,cs),
(903,1753,o),
(852,1794,o),
(885,1869,c),
(666,1869,l),
(615,1711,o),
(762,1600,o),
(983,1600,cs)
);
}
);
width = 1742;
}
);
unicode = 258;
},
{
color = 4;
glyphname = Acircumflex;
kernLeft = KO_A;
kernRight = KO_A;
lastChange = "2022-03-23 22:41:43 +0000";
layers = (
{
anchors = (
{
name = bottom;
pos = (699,0);
},
{
name = ogonek;
pos = (1369,0);
},
{
name = top;
pos = (831,1867);
}
);
layerId = "FC837317-1536-49E4-8B36-958C77713550";
shapes = (
{
closed = 1;
nodes = (
(237,0,l),
(766,1237,ls),
(777,1263,o),
(786,1287,o),
(787,1306,c),
(793,1306,l),
(792,1290,o),
(796,1265,o),
(804,1238,cs),
(1161,0,l),
(1369,0,l),
(905,1510,l),
(705,1510,l),
(29,0,l)
);
},
{
closed = 1;
nodes = (
(1074,448,l),
(1086,616,l),
(398,616,l),
(386,448,l)
);
},
{
closed = 1;
nodes = (
(1159,1610,l),
(935,1875,l),
(726,1875,l),
(466,1610,l),
(669,1610,l),
(856,1820,l),
(799,1820,l),
(956,1610,l)
);
}
);
width = 1398;
},
{
anchors = (
{
name = bottom;
pos = (754,-4);
},
{
name = ogonek;
pos = (1519,0);
},
{
name = top;
pos = (907,1942);
}
);
layerId = m014;
shapes = (
{
closed = 1;
nodes = (
(327,0,l),
(819,1090,ls),
(831,1117,o),
(849,1164,o),
(851,1194,c),
(857,1194,l),
(856,1168,o),
(863,1126,o),
(874,1091,cs),
(1215,0,l),
(1519,0,l),
(1013,1512,l),
(741,1512,l),
(23,0,l)
);
},
{
closed = 1;
nodes = (
(1214,336,l),
(1231,576,l),
(387,576,l),
(370,336,l)
);
},
{
closed = 1;
nodes = (
(1304,1631,l),
(1028,1868,l),
(775,1868,l),
(465,1631,l),
(753,1631,l),
(906,1761,l),
(883,1761,l),
(1016,1631,l)
);
}
);
width = 1542;
},
{
anchors = (
{
name = bottom;
pos = (806,0);
},
{
name = ogonek;
pos = (1569,0);
},
{
name = top;
pos = (931,1881);
}
);
layerId = m003;
shapes = (
{
closed = 1;
nodes = (
(240,0,l),
(828,1206,ls),
(862,1275,o),
(875,1299,o),
(892,1346,c),
(894,1346,l),
(907,1299,o),
(908,1299,o),
(940,1206,cs),
(1358,0,l),
(1569,0,l),
(1010,1510,l),
(800,1510,l),
(29,0,l)
);
},
{
closed = 1;
nodes = (
(1211,448,l),
(1223,616,l),
(462,616,l),
(450,448,l)
);
},
{
closed = 1;
nodes = (
(1351,1616,l),
(1063,1881,l),
(798,1881,l),
(472,1616,l),
(730,1616,l),
(964,1826,l),
(892,1826,l),
(1093,1616,l)
);
}
);
width = 1598;
},
{
anchors = (
{
name = bottom;
pos = (861,-4);
},
{
name = ogonek;
pos = (1719,0);
},
{
name = top;
pos = (1007,1942);
}
);
layerId = m004;
shapes = (
{
closed = 1;
nodes = (
(330,0,l),
(861,1040,ls),
(917,1149,o),
(940,1194,o),
(956,1254,c),
(962,1254,l),
(967,1192,o),
(985,1148,o),
(1025,1041,cs),
(1412,0,l),
(1719,0,l),
(1118,1512,l),
(836,1512,l),
(23,0,l)
);
},
{
closed = 1;
nodes = (
(1351,336,l),
(1368,576,l),
(451,576,l),
(434,336,l)
);
},
{
closed = 1;
nodes = (
(1476,1631,l),
(1150,1868,l),
(853,1868,l),
(493,1631,l),
(830,1631,l),
(1008,1761,l),
(981,1761,l),
(1139,1631,l)
);
}
);
width = 1742;
}
);
unicode = 194;
},
{
color = 4;
glyphname = Adieresis;
kernLeft = KO_A;
kernRight = KO_A;
lastChange = "2022-03-23 22:41:43 +0000";
layers = (
{
anchors = (
{
name = bottom;
pos = (699,0);
},
{
name = ogonek;
pos = (1369,0);
},
{
name = top;
pos = (833,1903);
}
);
layerId = "FC837317-1536-49E4-8B36-958C77713550";
shapes = (
{
closed = 1;
nodes = (
(237,0,l),
(766,1237,ls),
(777,1263,o),
(786,1287,o),
(787,1306,c),
(793,1306,l),
(792,1290,o),
(796,1265,o),
(804,1238,cs),
(1161,0,l),
(1369,0,l),
(905,1510,l),
(705,1510,l),
(29,0,l)
);
},
{
closed = 1;
nodes = (
(1074,448,l),
(1086,616,l),
(398,616,l),
(386,448,l)
);
},
{
closed = 1;
nodes = (
(700,1625,o),
(757,1672,o),
(757,1741,cs),
(757,1802,o),
(713,1846,o),
(648,1846,cs),
(577,1846,o),
(523,1793,o),
(523,1726,cs),
(523,1667,o),
(567,1625,o),
(633,1625,cs)
);
},
{
closed = 1;
nodes = (
(1066,1625,o),
(1120,1675,o),
(1120,1743,cs),
(1120,1801,o),
(1076,1846,o),
(1010,1846,cs),
(940,1846,o),
(885,1793,o),
(885,1724,cs),
(885,1667,o),
(930,1625,o),
(995,1625,cs)
);
}
);
width = 1398;
},
{
anchors = (
{
name = bottom;
pos = (754,-4);
},
{
name = ogonek;
pos = (1519,0);
},
{
name = top;
pos = (904,1903);
}
);
layerId = m014;
shapes = (
{
closed = 1;
nodes = (
(327,0,l),
(819,1090,ls),
(831,1117,o),
(849,1164,o),
(851,1194,c),
(857,1194,l),
(856,1168,o),
(863,1126,o),
(874,1091,cs),
(1215,0,l),
(1519,0,l),
(1013,1512,l),
(741,1512,l),
(23,0,l)
);
},
{
closed = 1;
nodes = (
(1214,336,l),
(1231,576,l),
(387,576,l),
(370,336,l)
);
},
{
closed = 1;
nodes = (
(777,1621,o),
(847,1677,o),
(847,1761,cs),
(847,1835,o),
(792,1888,o),
(714,1888,cs),
(629,1888,o),
(562,1825,o),
(562,1743,cs),
(562,1672,o),
(616,1621,o),
(695,1621,cs)
);
},
{
closed = 1;
nodes = (
(1160,1621,o),
(1225,1681,o),
(1225,1763,cs),
(1225,1834,o),
(1172,1888,o),
(1092,1888,cs),
(1007,1888,o),
(940,1824,o),
(940,1741,cs),
(940,1672,o),
(995,1621,o),
(1073,1621,cs)
);
}
);
width = 1542;
},
{
anchors = (
{
name = bottom;
pos = (806,0);
},
{
name = ogonek;
pos = (1569,0);
},
{
name = top;
pos = (928,1846);
}
);
layerId = m003;
shapes = (
{
closed = 1;
nodes = (
(240,0,l),
(828,1206,ls),
(862,1275,o),
(875,1299,o),
(892,1346,c),
(894,1346,l),
(907,1299,o),
(908,1299,o),
(940,1206,cs),
(1358,0,l),
(1569,0,l),
(1010,1510,l),
(800,1510,l),
(29,0,l)
);
},
{
closed = 1;
nodes = (
(1211,448,l),
(1223,616,l),
(462,616,l),
(450,448,l)
);
},
{
closed = 1;
nodes = (
(771,1657,o),
(829,1704,o),
(829,1773,cs),
(829,1834,o),
(784,1878,o),
(719,1878,cs),
(649,1878,o),
(594,1826,o),
(594,1758,cs),
(594,1699,o),
(638,1657,o),
(704,1657,cs)
);
},
{
closed = 1;
nodes = (
(1197,1657,o),
(1251,1707,o),
(1251,1775,cs),
(1251,1833,o),
(1207,1878,o),
(1141,1878,cs),
(1071,1878,o),
(1016,1825,o),
(1016,1756,cs),
(1016,1699,o),
(1061,1657,o),
(1126,1657,cs)
);
}
);
width = 1598;
},
{
anchors = (
{
name = bottom;
pos = (861,-4);
},
{
name = ogonek;
pos = (1719,0);
},
{
name = top;
pos = (1004,1903);
}
);
layerId = m004;
shapes = (
{
closed = 1;
nodes = (
(330,0,l),
(861,1040,ls),
(917,1149,o),
(940,1194,o),
(956,1254,c),
(962,1254,l),
(967,1192,o),
(985,1148,o),
(1025,1041,cs),
(1412,0,l),
(1719,0,l),
(1118,1512,l),
(836,1512,l),
(23,0,l)
);
},
{
closed = 1;
nodes = (
(1351,336,l),
(1368,576,l),
(451,576,l),
(434,336,l)
);
},
{
closed = 1;
nodes = (
(847,1621,o),
(917,1677,o),
(917,1761,cs),
(917,1835,o),
(862,1888,o),
(784,1888,cs),
(699,1888,o),
(632,1825,o),
(632,1743,cs),
(632,1672,o),
(686,1621,o),
(765,1621,cs)
);
},
{
closed = 1;
nodes = (
(1290,1621,o),
(1355,1681,o),
(1355,1763,cs),
(1355,1834,o),
(1302,1888,o),
(1222,1888,cs),
(1137,1888,o),
(1070,1824,o),
(1070,1741,cs),
(1070,1672,o),
(1125,1621,o),
(1203,1621,cs)
);
}
);
width = 1742;
}
);
unicode = 196;
},
{
color = 4;
glyphname = Agrave;
kernLeft = KO_A;
kernRight = KO_A;
lastChange = "2022-03-23 22:41:43 +0000";
layers = (
{
anchors = (
{
name = bottom;
pos = (699,0);
},
{
name = ogonek;
pos = (1369,0);
},
{
name = top;
pos = (764,1836);
}
);
layerId = "FC837317-1536-49E4-8B36-958C77713550";
shapes = (
{
closed = 1;
nodes = (
(237,0,l),
(766,1237,ls),
(777,1263,o),
(786,1287,o),
(787,1306,c),
(793,1306,l),
(792,1290,o),
(796,1265,o),
(804,1238,cs),
(1161,0,l),
(1369,0,l),
(905,1510,l),
(705,1510,l),
(29,0,l)
);
},
{
closed = 1;
nodes = (
(1074,448,l),
(1086,616,l),
(398,616,l),
(386,448,l)
);
},
{
closed = 1;
nodes = (
(771,1844,l),
(534,1844,l),
(803,1612,l),
(979,1612,l)
);
}
);
width = 1398;
},
{
anchors = (
{
name = bottom;
pos = (754,-4);
},
{
name = ogonek;
pos = (1519,0);
},
{
name = top;
pos = (826,1904);
}
);
layerId = m014;
shapes = (
{
closed = 1;
nodes = (
(327,0,l),
(819,1090,ls),
(831,1117,o),
(849,1164,o),
(851,1194,c),
(857,1194,l),
(856,1168,o),
(863,1126,o),
(874,1091,cs),
(1215,0,l),
(1519,0,l),
(1013,1512,l),
(741,1512,l),
(23,0,l)
);
},
{
closed = 1;
nodes = (
(1214,336,l),
(1231,576,l),
(387,576,l),
(370,336,l)
);
},
{
closed = 1;
nodes = (
(831,1868,l),
(545,1868,l),
(872,1628,l),
(1085,1628,l)
);
}
);
width = 1542;
},
{
anchors = (
{
name = bottom;
pos = (806,0);
},
{
name = ogonek;
pos = (1569,0);
},
{
name = top;
pos = (928,1848);
}
);
layerId = m003;
shapes = (
{
closed = 1;
nodes = (
(240,0,l),
(828,1206,ls),
(862,1275,o),
(875,1299,o),
(892,1346,c),
(894,1346,l),
(907,1299,o),
(908,1299,o),
(940,1206,cs),
(1358,0,l),
(1569,0,l),
(1010,1510,l),
(800,1510,l),
(29,0,l)
);
},
{
closed = 1;
nodes = (
(1211,448,l),
(1223,616,l),
(462,616,l),
(450,448,l)
);
},
{
closed = 1;
nodes = (
(911,1848,l),
(604,1848,l),
(1007,1616,l),
(1235,1616,l)
);
}
);
width = 1598;
},
{
anchors = (
{
name = bottom;
pos = (861,-4);
},
{
name = ogonek;
pos = (1719,0);
},
{
name = top;
pos = (1002,1868);
}
);
layerId = m004;
shapes = (
{
closed = 1;
nodes = (
(330,0,l),
(861,1040,ls),
(917,1149,o),
(940,1194,o),
(956,1254,c),
(962,1254,l),
(967,1192,o),
(985,1148,o),
(1025,1041,cs),
(1412,0,l),
(1719,0,l),
(1118,1512,l),
(836,1512,l),
(23,0,l)
);
},
{
closed = 1;
nodes = (
(1351,336,l),
(1368,576,l),
(451,576,l),
(434,336,l)
);
},
{
closed = 1;
nodes = (
(990,1868,l),
(601,1868,l),
(973,1628,l),
(1253,1628,l)
);
}
);
width = 1742;
}
);
unicode = 192;
},
{
color = 4;
glyphname = Amacron;
kernLeft = KO_A;
kernRight = KO_A;
lastChange = "2022-03-23 22:41:43 +0000";
layers = (
{
anchors = (
{
name = bottom;
pos = (699,0);
},
{
name = ogonek;
pos = (1369,0);
},
{
name = top;
pos = (824,1778);
}
);
layerId = "FC837317-1536-49E4-8B36-958C77713550";
shapes = (
{
closed = 1;
nodes = (
(237,0,l),
(766,1237,ls),
(777,1263,o),
(786,1287,o),
(787,1306,c),
(793,1306,l),
(792,1290,o),
(796,1265,o),
(804,1238,cs),
(1161,0,l),
(1369,0,l),
(905,1510,l),
(705,1510,l),
(29,0,l)
);
},
{
closed = 1;
nodes = (
(1074,448,l),
(1086,616,l),
(398,616,l),
(386,448,l)
);
},
{
closed = 1;
nodes = (
(1136,1641,l),
(1145,1778,l),
(503,1778,l),
(494,1641,l)
);
}
);
width = 1398;
},
{
anchors = (
{
name = bottom;
pos = (754,-4);
},
{
name = ogonek;
pos = (1519,0);
},
{
name = top;
pos = (899,1834);
}
);
layerId = m014;
shapes = (
{
closed = 1;
nodes = (
(327,0,l),
(819,1090,ls),
(831,1117,o),
(849,1164,o),
(851,1194,c),
(857,1194,l),
(856,1168,o),
(863,1126,o),
(874,1091,cs),
(1215,0,l),
(1519,0,l),
(1013,1512,l),
(741,1512,l),
(23,0,l)
);
},
{
closed = 1;
nodes = (
(1214,336,l),
(1231,576,l),
(387,576,l),
(370,336,l)
);
},
{
closed = 1;
nodes = (
(1276,1669,l),
(1287,1834,l),
(511,1834,l),
(500,1669,l)
);
}
);
width = 1542;
},
{
anchors = (
{
name = bottom;
pos = (806,0);
},
{
name = ogonek;
pos = (1569,0);
},
{
name = top;
pos = (923,1778);
}
);
layerId = m003;
shapes = (
{
closed = 1;
nodes = (
(240,0,l),
(828,1206,ls),
(862,1275,o),
(875,1299,o),
(892,1346,c),
(894,1346,l),
(907,1299,o),
(908,1299,o),
(940,1206,cs),
(1358,0,l),
(1569,0,l),
(1010,1510,l),
(800,1510,l),
(29,0,l)
);
},
{
closed = 1;
nodes = (
(1211,448,l),
(1223,616,l),
(462,616,l),
(450,448,l)
);
},
{
closed = 1;
nodes = (
(1298,1641,l),
(1307,1778,l),
(539,1778,l),
(530,1641,l)
);
}
);
width = 1598;
},
{
anchors = (
{
name = bottom;
pos = (861,-4);
},
{
name = ogonek;
pos = (1719,0);
},
{
name = top;
pos = (999,1834);
}
);
layerId = m004;
shapes = (
{
closed = 1;
nodes = (
(330,0,l),
(861,1040,ls),
(917,1149,o),
(940,1194,o),
(956,1254,c),
(962,1254,l),
(967,1192,o),
(985,1148,o),
(1025,1041,cs),
(1412,0,l),
(1719,0,l),
(1118,1512,l),
(836,1512,l),
(23,0,l)
);
},
{
closed = 1;
nodes = (
(1351,336,l),
(1368,576,l),
(451,576,l),
(434,336,l)
);
},
{
closed = 1;
nodes = (
(1425,1669,l),
(1436,1834,l),
(562,1834,l),
(551,1669,l)
);
}
);
width = 1742;
}
);
unicode = 256;
},
{
color = 4;
glyphname = Aogonek;
kernLeft = KO_A;
kernRight = KO_A;
lastChange = "2022-03-23 22:41:43 +0000";
layers = (
{
anchors = (
{
name = bottom;
pos = (699,0);
},
{
name = ogonek;
pos = (1369,0);
},
{
name = top;
pos = (806,1510);
}
);
layerId = "FC837317-1536-49E4-8B36-958C77713550";
shapes = (
{
closed = 1;
nodes = (
(237,0,l),
(766,1237,ls),
(777,1263,o),
(786,1287,o),
(787,1306,c),
(793,1306,l),
(792,1290,o),
(796,1265,o),
(804,1238,cs),
(1161,0,l),
(1369,0,l),
(905,1510,l),
(705,1510,l),
(29,0,l)
);
},
{
closed = 1;
nodes = (
(1074,448,l),
(1086,616,l),
(398,616,l),
(386,448,l)
);
},
{
closed = 1;
nodes = (
(1241,-400,o),
(1288,-387,o),
(1330,-361,c),
(1339,-235,l),
(1306,-255,o),
(1263,-270,o),
(1225,-270,cs),
(1175,-270,o),
(1137,-244,o),
(1137,-196,cs),
(1137,-122,o),
(1221,-50,o),
(1369,0,c),
(1190,0,l),
(1046,-32,o),
(970,-133,o),
(970,-231,cs),
(970,-332,o),
(1057,-400,o),
(1185,-400,cs)
);
}
);
width = 1398;
},
{
anchors = (
{
name = bottom;
pos = (754,-4);
},
{
name = ogonek;
pos = (1519,0);
},
{
name = top;
pos = (877,1510);
}
);
layerId = m014;
shapes = (
{
closed = 1;
nodes = (
(327,0,l),
(819,1090,ls),
(831,1117,o),
(849,1164,o),
(851,1194,c),
(857,1194,l),
(856,1168,o),
(863,1126,o),
(874,1091,cs),
(1215,0,l),
(1519,0,l),
(1013,1512,l),
(741,1512,l),
(23,0,l)
);
},
{
closed = 1;
nodes = (
(1214,336,l),
(1231,576,l),
(387,576,l),
(370,336,l)
);
},
{
closed = 1;
nodes = (
(1364,-484,o),
(1421,-468,o),
(1471,-437,c),
(1482,-284,l),
(1443,-309,o),
(1391,-327,o),
(1345,-327,cs),
(1285,-327,o),
(1238,-296,o),
(1238,-237,cs),
(1238,-147,o),
(1341,-60,o),
(1519,0,c),
(1303,0,l),
(1128,-39,o),
(1037,-162,o),
(1037,-279,cs),
(1037,-401,o),
(1141,-484,o),
(1296,-484,cs)
);
}
);
width = 1542;
},
{
anchors = (
{
name = bottom;
pos = (806,0);
},
{
name = ogonek;
pos = (1569,0);
},
{
name = top;
pos = (905,1510);
}
);
layerId = m003;
shapes = (
{
closed = 1;
nodes = (
(240,0,l),
(828,1206,ls),
(862,1275,o),
(875,1299,o),
(892,1346,c),
(894,1346,l),
(907,1299,o),
(908,1299,o),
(940,1206,cs),
(1358,0,l),
(1569,0,l),
(1010,1510,l),
(800,1510,l),
(29,0,l)
);
},
{
closed = 1;
nodes = (
(1211,448,l),
(1223,616,l),
(462,616,l),
(450,448,l)
);
},
{
closed = 1;
nodes = (
(1415,-400,o),
(1474,-387,o),
(1527,-361,c),
(1536,-235,l),
(1494,-255,o),
(1441,-270,o),
(1392,-270,cs),
(1329,-270,o),
(1279,-244,o),
(1279,-194,cs),
(1279,-121,o),
(1384,-50,o),
(1569,0,c),
(1385,0,l),
(1167,-32,o),
(1068,-132,o),
(1068,-231,cs),
(1068,-330,o),
(1179,-400,o),
(1344,-400,cs)
);
}
);
width = 1598;
},
{
anchors = (
{
name = bottom;
pos = (861,-4);
},
{
name = ogonek;
pos = (1719,0);
},
{
name = top;
pos = (977,1510);
}
);
layerId = m004;
shapes = (
{
closed = 1;
nodes = (
(330,0,l),
(861,1040,ls),
(917,1149,o),
(940,1194,o),
(956,1254,c),
(962,1254,l),
(967,1192,o),
(985,1148,o),
(1025,1041,cs),
(1412,0,l),
(1719,0,l),
(1118,1512,l),
(836,1512,l),
(23,0,l)
);
},
{
closed = 1;
nodes = (
(1351,336,l),
(1368,576,l),
(451,576,l),
(434,336,l)
);
},
{
closed = 1;
nodes = (
(1546,-484,o),
(1612,-468,o),
(1669,-437,c),
(1680,-284,l),
(1635,-309,o),
(1577,-327,o),
(1523,-327,cs),
(1453,-327,o),
(1399,-295,o),
(1399,-236,cs),
(1399,-147,o),
(1516,-60,o),
(1719,0,c),
(1471,0,l),
(1271,-39,o),
(1169,-161,o),
(1169,-278,cs),
(1169,-400,o),
(1289,-484,o),
(1468,-484,cs)
);
}
);
width = 1742;
}
);
unicode = 260;
},
{
color = 4;
glyphname = Aring;
kernLeft = KO_A;
kernRight = KO_A;
lastChange = "2022-03-23 22:41:43 +0000";
layers = (
{
anchors = (
{
name = bottom;
pos = (699,0);
},
{
name = ogonek;
pos = (1369,0);
},
{
name = top;
pos = (835,1930);
}
);
layerId = "FC837317-1536-49E4-8B36-958C77713550";
shapes = (
{
closed = 1;
nodes = (
(237,0,l),
(766,1237,ls),
(777,1263,o),
(786,1287,o),
(787,1306,c),
(793,1306,l),
(792,1290,o),
(796,1265,o),
(804,1238,cs),
(1161,0,l),
(1369,0,l),
(905,1510,l),
(705,1510,l),
(29,0,l)
);
},
{
closed = 1;
nodes = (
(1074,448,l),
(1086,616,l),
(398,616,l),
(386,448,l)
);
},
{
closed = 1;
nodes = (
(942,1569,o),
(1028,1640,o),
(1028,1750,cs),
(1028,1848,o),
(953,1908,o),
(833,1908,cs),
(702,1908,o),
(615,1835,o),
(615,1723,cs),
(615,1628,o),
(689,1569,o),
(810,1569,cs)
);
},
{
closed = 1;
nodes = (
(773,1668,o),
(746,1692,o),
(746,1730,cs),
(746,1777,o),
(778,1809,o),
(826,1809,cs),
(870,1809,o),
(897,1784,o),
(897,1743,cs),
(897,1697,o),
(865,1668,o),
(817,1668,cs)
);
}
);
width = 1398;
},
{
anchors = (
{
name = bottom;
pos = (754,-4);
},
{
name = ogonek;
pos = (1519,0);
},
{
name = top;
pos = (912,2018);
}
);
layerId = m014;
shapes = (
{
closed = 1;
nodes = (
(327,0,l),
(819,1090,ls),
(831,1117,o),
(849,1164,o),
(851,1194,c),
(857,1194,l),
(856,1168,o),
(863,1126,o),
(874,1091,cs),
(1215,0,l),
(1519,0,l),
(1013,1512,l),
(741,1512,l),
(23,0,l)
);
},
{
closed = 1;
nodes = (
(1214,336,l),
(1231,576,l),
(387,576,l),
(370,336,l)
);
},
{
closed = 1;
nodes = (
(1027,1555,o),
(1121,1628,o),
(1121,1741,cs),
(1121,1844,o),
(1038,1906,o),
(904,1906,cs),
(758,1906,o),
(662,1830,o),
(662,1714,cs),
(662,1616,o),
(745,1555,o),
(880,1555,cs)
);
},
{
closed = 1;
nodes = (
(846,1665,o),
(821,1687,o),
(821,1722,cs),
(821,1767,o),
(851,1796,o),
(897,1796,cs),
(938,1796,o),
(963,1773,o),
(963,1734,cs),
(963,1689,o),
(931,1665,o),
(887,1665,cs)
);
}
);
width = 1542;
},
{
anchors = (
{
name = bottom;
pos = (806,0);
},
{
name = ogonek;
pos = (1569,0);
},
{
name = top;
pos = (934,1930);
}
);
layerId = m003;
shapes = (
{
closed = 1;
nodes = (
(240,0,l),
(828,1206,ls),
(862,1275,o),
(875,1299,o),
(892,1346,c),
(894,1346,l),
(907,1299,o),
(908,1299,o),
(940,1206,cs),
(1358,0,l),
(1569,0,l),
(1010,1510,l),
(800,1510,l),
(29,0,l)
);
},
{
closed = 1;
nodes = (
(1211,448,l),
(1223,616,l),
(462,616,l),
(450,448,l)
);
},
{
closed = 1;
nodes = (
(1075,1569,o),
(1182,1639,o),
(1182,1749,cs),
(1182,1847,o),
(1086,1908,o),
(932,1908,cs),
(766,1908,o),
(659,1837,o),
(659,1727,cs),
(659,1629,o),
(755,1569,o),
(909,1569,cs)
);
},
{
closed = 1;
nodes = (
(848,1668,o),
(804,1693,o),
(804,1734,cs),
(804,1779,o),
(852,1809,o),
(925,1809,cs),
(993,1809,o),
(1037,1783,o),
(1037,1742,cs),
(1037,1697,o),
(989,1668,o),
(916,1668,cs)
);
}
);
width = 1598;
},
{
anchors = (
{
name = bottom;
pos = (861,-4);
},
{
name = ogonek;
pos = (1719,0);
},
{
name = top;
pos = (1012,2018);
}
);
layerId = m004;
shapes = (
{
closed = 1;
nodes = (
(330,0,l),
(861,1040,ls),
(917,1149,o),
(940,1194,o),
(956,1254,c),
(962,1254,l),
(967,1192,o),
(985,1148,o),
(1025,1041,cs),
(1412,0,l),
(1719,0,l),
(1118,1512,l),
(836,1512,l),
(23,0,l)
);
},
{
closed = 1;
nodes = (
(1351,336,l),
(1368,576,l),
(451,576,l),
(434,336,l)
);
},
{
closed = 1;
nodes = (
(1151,1555,o),
(1260,1628,o),
(1260,1741,cs),
(1260,1844,o),
(1161,1906,o),
(1004,1906,cs),
(834,1906,o),
(724,1833,o),
(724,1719,cs),
(724,1616,o),
(824,1555,o),
(980,1555,cs)
);
},
{
closed = 1;
nodes = (
(937,1665,o),
(909,1688,o),
(909,1725,cs),
(909,1768,o),
(943,1796,o),
(997,1796,cs),
(1047,1796,o),
(1075,1772,o),
(1075,1735,cs),
(1075,1692,o),
(1041,1665,o),
(987,1665,cs)
);
}
);
width = 1742;
}
);
unicode = 197;
},
{
color = 4;
glyphname = Atilde;
kernLeft = KO_A;
kernRight = KO_A;
lastChange = "2022-03-23 22:41:43 +0000";
layers = (
{
anchors = (
{
name = bottom;
pos = (699,0);
},
{
name = ogonek;
pos = (1369,0);
},
{
name = top;
pos = (830,1852);
}
);
layerId = "FC837317-1536-49E4-8B36-958C77713550";
shapes = (
{
closed = 1;
nodes = (
(237,0,l),
(766,1237,ls),
(777,1263,o),
(786,1287,o),
(787,1306,c),
(793,1306,l),
(792,1290,o),
(796,1265,o),
(804,1238,cs),
(1161,0,l),
(1369,0,l),
(905,1510,l),
(705,1510,l),
(29,0,l)
);
},
{
closed = 1;
nodes = (
(1074,448,l),
(1086,616,l),
(398,616,l),
(386,448,l)
);
},
{
closed = 1;
nodes = (
(669,1611,l),
(664,1630,o),
(662,1649,o),
(662,1667,cs),
(662,1716,o),
(675,1728,o),
(696,1728,cs),
(765,1728,o),
(864,1594,o),
(966,1594,cs),
(1042,1594,o),
(1118,1669,o),
(1126,1793,cs),
(1126,1793,o),
(1128,1816,o),
(1129,1842,c),
(981,1842,l),
(981,1840,o),
(981,1837,o),
(981,1835,cs),
(981,1726,o),
(967,1725,o),
(949,1725,cs),
(880,1725,o),
(824,1859,o),
(692,1859,cs),
(593,1859,o),
(516,1785,o),
(516,1652,cs),
(516,1641,o),
(516,1625,o),
(517,1611,c)
);
}
);
width = 1398;
},
{
anchors = (
{
name = bottom;
pos = (754,-4);
},
{
name = ogonek;
pos = (1519,0);
},
{
name = top;
pos = (905,1923);
}
);
layerId = m014;
shapes = (
{
closed = 1;
nodes = (
(327,0,l),
(819,1090,ls),
(831,1117,o),
(849,1164,o),
(851,1194,c),
(857,1194,l),
(856,1168,o),
(863,1126,o),
(874,1091,cs),
(1215,0,l),
(1519,0,l),
(1013,1512,l),
(741,1512,l),
(23,0,l)
);
},
{
closed = 1;
nodes = (
(1214,336,l),
(1231,576,l),
(387,576,l),
(370,336,l)
);
},
{
closed = 1;
nodes = (
(738,1587,l),
(732,1602,o),
(728,1622,o),
(728,1640,cs),
(728,1670,o),
(742,1684,o),
(771,1684,cs),
(854,1684,o),
(949,1567,o),
(1055,1567,cs),
(1145,1567,o),
(1241,1655,o),
(1251,1799,cs),
(1251,1799,o),
(1253,1826,o),
(1254,1856,c),
(1055,1856,l),
(1055,1843,o),
(1055,1830,o),
(1055,1819,cs),
(1055,1773,o),
(1046,1759,o),
(1015,1759,cs),
(934,1759,o),
(881,1876,o),
(747,1876,cs),
(631,1876,o),
(532,1790,o),
(532,1634,cs),
(532,1620,o),
(533,1602,o),
(534,1587,c)
);
}
);
width = 1542;
},
{
anchors = (
{
name = bottom;
pos = (806,0);
},
{
name = ogonek;
pos = (1569,0);
},
{
name = top;
pos = (929,1852);
}
);
layerId = m003;
shapes = (
{
closed = 1;
nodes = (
(240,0,l),
(828,1206,ls),
(862,1275,o),
(875,1299,o),
(892,1346,c),
(894,1346,l),
(907,1299,o),
(908,1299,o),
(940,1206,cs),
(1358,0,l),
(1569,0,l),
(1010,1510,l),
(800,1510,l),
(29,0,l)
);
},
{
closed = 1;
nodes = (
(1211,448,l),
(1223,616,l),
(462,616,l),
(450,448,l)
);
},
{
closed = 1;
nodes = (
(743,1611,l),
(738,1627,o),
(734,1648,o),
(734,1670,cs),
(734,1713,o),
(750,1728,o),
(793,1728,cs),
(869,1728,o),
(980,1594,o),
(1092,1594,cs),
(1181,1594,o),
(1269,1669,o),
(1277,1793,cs),
(1277,1793,o),
(1279,1816,o),
(1279,1842,c),
(1106,1842,l),
(1106,1833,o),
(1106,1825,o),
(1106,1816,cs),
(1106,1738,o),
(1098,1725,o),
(1050,1725,cs),
(974,1725,o),
(912,1859,o),
(768,1859,cs),
(654,1859,o),
(563,1786,o),
(563,1661,cs),
(563,1644,o),
(564,1627,o),
(565,1611,c)
);
}
);
width = 1598;
},
{
anchors = (
{
name = bottom;
pos = (861,-4);
},
{
name = ogonek;
pos = (1719,0);
},
{
name = top;
pos = (1005,1923);
}
);
layerId = m004;
shapes = (
{
closed = 1;
nodes = (
(330,0,l),
(861,1040,ls),
(917,1149,o),
(940,1194,o),
(956,1254,c),
(962,1254,l),
(967,1192,o),
(985,1148,o),
(1025,1041,cs),
(1412,0,l),
(1719,0,l),
(1118,1512,l),
(836,1512,l),
(23,0,l)
);
},
{
closed = 1;
nodes = (
(1351,336,l),
(1368,576,l),
(451,576,l),
(434,336,l)
);
},
{
closed = 1;
nodes = (
(820,1587,l),
(812,1604,o),
(808,1627,o),
(808,1641,cs),
(808,1676,o),
(831,1684,o),
(856,1684,cs),
(950,1684,o),
(1058,1567,o),
(1176,1567,cs),
(1278,1567,o),
(1386,1655,o),
(1396,1799,cs),
(1396,1799,o),
(1398,1826,o),
(1399,1856,c),
(1174,1856,l),
(1175,1841,o),
(1175,1826,o),
(1175,1814,cs),
(1175,1773,o),
(1164,1759,o),
(1131,1759,cs),
(1039,1759,o),
(978,1876,o),
(827,1876,cs),
(698,1876,o),
(588,1790,o),
(588,1643,cs),
(588,1626,o),
(589,1607,o),
(590,1587,c)
);
}
);
width = 1742;
}
);
unicode = 195;
},
{
color = 8;
glyphname = AE;
kernLeft = KO_AE;
kernRight = KO_E;
lastChange = "2022-03-23 22:41:43 +0000";
layers = (
{
layerId = "FC837317-1536-49E4-8B36-958C77713550";
shapes = (
{
closed = 1;
nodes = (
(237,0,l),
(969,1301,ls),
(985,1329,o),
(989,1357,o),
(990,1370,c),
(995,1370,l),
(1005,1510,l),
(883,1510,l),
(29,0,l)
);
},
{
closed = 1;
nodes = (
(993,428,l),
(1005,596,l),
(457,596,l),
(445,428,l)
);
},
{
closed = 1;
nodes = (
(1704,0,l),
(1716,168,l),
(1038,168,l),
(1097,96,l),
(1143,765,l),
(1074,689,l),
(1632,689,l),
(1644,857,l),
(1086,857,l),
(1145,781,l),
(1189,1414,l),
(1120,1342,l),
(1788,1342,l),
(1800,1510,l),
(1004,1510,l),
(898,0,l)
);
}
);
width = 1863;
},
{
layerId = m014;
shapes = (
{
closed = 1;
nodes = (
(327,0,l),
(981,1254,ls),
(996,1283,o),
(1011,1330,o),
(1013,1358,c),
(1051,1358,l),
(1087,1510,l),
(828,1510,l),
(23,0,l)
);
},
{
closed = 1;
nodes = (
(1216,356,l),
(1233,596,l),
(451,596,l),
(434,356,l)
);
},
{
closed = 1;
nodes = (
(1835,0,l),
(1852,244,l),
(1118,244,l),
(1223,140,l),
(1266,752,l),
(1146,642,l),
(1780,642,l),
(1797,886,l),
(1163,886,l),
(1267,776,l),
(1309,1370,l),
(1190,1266,l),
(1924,1266,l),
(1941,1510,l),
(1029,1510,l),
(923,0,l)
);
}
);
width = 2042;
},
{
layerId = m003;
shapes = (
{
closed = 1;
nodes = (
(240,0,l),
(1026,1206,ls),
(1071,1275,o),
(1073,1300,o),
(1090,1346,c),
(1108,1346,l),
(1120,1510,l),
(998,1510,l),
(29,0,l)
);
},
{
closed = 1;
nodes = (
(1211,448,l),
(1223,616,l),
(462,616,l),
(450,448,l)
);
},
{
closed = 1;
nodes = (
(2035,0,l),
(2047,168,l),
(1145,168,l),
(1197,96,l),
(1244,766,l),
(1181,690,l),
(1928,690,l),
(1940,858,l),
(1193,858,l),
(1245,782,l),
(1289,1414,l),
(1227,1342,l),
(2113,1342,l),
(2125,1510,l),
(1105,1510,l),
(999,0,l)
);
}
);
width = 2188;
},
{
layerId = m004;
shapes = (
{
closed = 1;
nodes = (
(330,0,l),
(1028,1070,ls),
(1092,1168,o),
(1118,1216,o),
(1123,1284,c),
(1274,1284,l),
(1290,1510,l),
(1001,1510,l),
(23,0,l)
);
},
{
closed = 1;
nodes = (
(1351,336,l),
(1368,576,l),
(451,576,l),
(434,336,l)
);
},
{
closed = 1;
nodes = (
(2086,0,l),
(2103,244,l),
(1245,244,l),
(1343,140,l),
(1386,762,l),
(1274,652,l),
(1997,652,l),
(2014,896,l),
(1291,896,l),
(1388,786,l),
(1429,1370,l),
(1317,1266,l),
(2169,1266,l),
(2186,1510,l),
(1150,1510,l),
(1044,0,l)
);
}
);
width = 2287;
}
);
metricLeft = A;
metricRight = E;
unicode = 198;
},
{
color = 5;
glyphname = B;
kernLeft = KO_H;
kernRight = KO_B;
lastChange = "2022-03-23 22:41:43 +0000";
layers = (
{
anchors = (
{
name = bottom;
pos = (624,0);
},
{
name = center;
pos = (677,755);
},
{
name = top;
pos = (730,1510);
}
);
layerId = "FC837317-1536-49E4-8B36-958C77713550";
shapes = (
{
closed = 1;
nodes = (
(731,0,ls),
(1019,0,o),
(1218,190,o),
(1218,465,cs),
(1218,666,o),
(1098,792,o),
(932,792,c),
(933,800,l),
(1074,800,o),
(1203,972,o),
(1203,1162,cs),
(1203,1369,o),
(1038,1510,o),
(803,1510,cs),
(289,1510,l),
(183,0,l)
);
},
{
closed = 1;
nodes = (
(425,710,l),
(741,710,ls),
(919,710,o),
(1019,614,o),
(1019,447,cs),
(1019,262,o),
(926,170,o),
(743,170,cs),
(387,170,l)
);
},
{
closed = 1;
nodes = (
(469,1346,l),
(727,1346,ls),
(907,1346,o),
(1003,1275,o),
(1003,1132,cs),
(1003,973,o),
(907,874,o),
(754,874,cs),
(436,874,l)
);
}
);
width = 1329;
},
{
anchors = (
{
name = bottom;
pos = (686,0);
},
{
name = center;
pos = (739,755);
},
{
name = top;
pos = (792,1510);
}
);
layerId = m014;
shapes = (
{
closed = 1;
nodes = (
(749,0,ls),
(1075,0,o),
(1293,192,o),
(1293,477,cs),
(1293,662,o),
(1182,761,o),
(989,768,c),
(989,777,l),
(1140,784,o),
(1267,960,o),
(1267,1158,cs),
(1267,1386,o),
(1087,1510,o),
(835,1510,cs),
(257,1510,l),
(151,0,l)
);
},
{
closed = 1;
nodes = (
(486,646,l),
(764,646,ls),
(912,646,o),
(994,581,o),
(994,456,cs),
(994,322,o),
(921,250,o),
(786,250,cs),
(458,250,l)
);
},
{
closed = 1;
nodes = (
(530,1266,l),
(754,1266,ls),
(890,1266,o),
(965,1216,o),
(965,1103,cs),
(965,974,o),
(886,890,o),
(763,890,cs),
(503,890,l)
);
}
);
width = 1404;
},
{
anchors = (
{
name = bottom;
pos = (624,0);
},
{
name = center;
pos = (677,755);
},
{
name = top;
pos = (730,1510);
}
);
layerId = m003;
shapes = (
{
closed = 1;
nodes = (
(931,0,ls),
(1219,0,o),
(1418,190,o),
(1418,464,cs),
(1418,666,o),
(1294,794,o),
(1123,794,c),
(1123,798,l),
(1270,798,o),
(1403,971,o),
(1403,1162,cs),
(1403,1369,o),
(1238,1510,o),
(1003,1510,cs),
(289,1510,l),
(183,0,l)
);
},
{
closed = 1;
nodes = (
(425,710,l),
(941,710,ls),
(1119,710,o),
(1219,614,o),
(1219,447,cs),
(1219,262,o),
(1126,170,o),
(943,170,cs),
(387,170,l)
);
},
{
closed = 1;
nodes = (
(469,1346,l),
(927,1346,ls),
(1107,1346,o),
(1203,1275,o),
(1203,1132,cs),
(1203,973,o),
(1107,874,o),
(954,874,cs),
(436,874,l)
);
}
);
width = 1529;
},
{
anchors = (
{
name = bottom;
pos = (686,0);
},
{
name = center;
pos = (739,755);
},
{
name = top;
pos = (792,1510);
}
);
layerId = m004;
shapes = (
{
closed = 1;
nodes = (
(899,0,ls),
(1225,0,o),
(1443,192,o),
(1443,477,cs),
(1443,662,o),
(1332,761,o),
(1139,768,c),
(1139,778,l),
(1287,784,o),
(1417,957,o),
(1417,1158,cs),
(1417,1386,o),
(1237,1510,o),
(985,1510,cs),
(257,1510,l),
(151,0,l)
);
},
{
closed = 1;
nodes = (
(486,646,l),
(914,646,ls),
(1062,646,o),
(1144,581,o),
(1144,456,cs),
(1144,322,o),
(1071,250,o),
(936,250,cs),
(458,250,l)
);
},
{
closed = 1;
nodes = (
(530,1266,l),
(904,1266,ls),
(1040,1266,o),
(1115,1216,o),
(1115,1103,cs),
(1115,974,o),
(1036,890,o),
(913,890,cs),
(503,890,l)
);
}
);
width = 1554;
}
);
metricLeft = "=H";
metricRight = O;
unicode = 66;
userData = {
KernOnName = B;
};
},
{
color = 5;
glyphname = C;
kernLeft = KO_C;
kernRight = KO_C;
lastChange = "2022-03-23 22:41:43 +0000";
layers = (
{
anchors = (
{
name = bottom;
pos = (741,-10);
},
{
name = top;
pos = (835,1510);
}
);
background = {
shapes = (
{
closed = 1;
nodes = (
(1064,-30,o),
(1250,79,o),
(1348,301,c),
(1375,252,l),
(1123,383,l),
(1174,383,l),
(1161,339,o),
(1071,145,o),
(773,145,cs),
(475,145,o),
(315,352,o),
(315,750,cs),
(315,1150,o),
(477,1355,o),
(775,1355,cs),
(1100,1355,o),
(1153,1112,o),
(1154,1102,c),
(1115,1081,l),
(1352,1236,l),
(1320,1187,l),
(1277,1376,o),
(1093,1530,o),
(777,1530,cs),
(336,1530,o),
(111,1228,o),
(111,748,cs),
(111,273,o),
(332,-30,o),
(789,-30,cs)
);
}
);
};
layerId = "FC837317-1536-49E4-8B36-958C77713550";
shapes = (
{
closed = 1;
nodes = (
(1013,-30,o),
(1207,79,o),
(1320,301,c),
(1344,252,l),
(1101,383,l),
(1226,472,l),
(1094,249,o),
(958,145,o),
(742,145,cs),
(461,145,o),
(315,320,o),
(315,658,cs),
(315,1103,o),
(498,1355,o),
(823,1355,cs),
(1099,1355,o),
(1159,1181,o),
(1182,1102,c),
(1142,1081,l),
(1390,1236,l),
(1354,1187,l),
(1324,1378,o),
(1149,1530,o),
(836,1530,cs),
(383,1530,o),
(111,1200,o),
(111,649,cs),
(111,231,o),
(314,-30,o),
(739,-30,cs)
);
}
);
width = 1433;
},
{
anchors = (
{
name = bottom;
pos = (720,0);
},
{
name = top;
pos = (847,1510);
}
);
background = {
shapes = (
{
closed = 1;
nodes = (
(1049,-30,o),
(1262,83,o),
(1361,310,c),
(1384,256,l),
(1091,468,l),
(1126,441,l),
(1137,464,o),
(1067,227,o),
(785,227,cs),
(535,227,o),
(404,413,o),
(404,751,cs),
(404,1126,o),
(565,1273,o),
(782,1273,cs),
(1059,1273,o),
(1092,1033,o),
(1085,1046,c),
(1045,1028,l),
(1379,1182,l),
(1347,1133,l),
(1279,1381,o),
(1095,1531,o),
(791,1531,cs),
(372,1531,o),
(111,1248,o),
(111,745,cs),
(111,239,o),
(375,-30,o),
(784,-30,cs)
);
}
);
};
layerId = m014;
shapes = (
{
closed = 1;
nodes = (
(1008,-30,o),
(1223,90,o),
(1334,310,c),
(1353,256,l),
(1075,468,l),
(1137,498,l),
(1083,336,o),
(926,227,o),
(743,227,cs),
(524,227,o),
(405,381,o),
(405,668,cs),
(405,1047,o),
(558,1273,o),
(817,1273,cs),
(1033,1273,o),
(1149,1121,o),
(1105,899,c),
(1068,1028,l),
(1413,1182,l),
(1377,1133,l),
(1325,1393,o),
(1139,1531,o),
(848,1531,cs),
(395,1531,o),
(111,1192,o),
(111,652,cs),
(111,221,o),
(337,-30,o),
(733,-30,cs)
);
}
);
width = 1406;
},
{
anchors = (
{
name = bottom;
pos = (872,0);
},
{
name = top;
pos = (957,1510);
}
);
background = {
shapes = (
{
closed = 1;
nodes = (
(1216,-30,o),
(1431,70,o),
(1549,299,c),
(1575,253,l),
(1310,382,l),
(1353,368,l),
(1346,338,o),
(1226,145,o),
(877,145,cs),
(515,145,o),
(319,352,o),
(319,752,cs),
(319,1150,o),
(513,1355,o),
(883,1355,cs),
(1267,1355,o),
(1340,1138,o),
(1351,1099,c),
(1312,1081,l),
(1544,1236,l),
(1513,1189,l),
(1467,1382,o),
(1248,1530,o),
(883,1530,cs),
(362,1530,o),
(111,1228,o),
(111,748,cs),
(111,273,o),
(356,-30,o),
(903,-30,cs)
);
}
);
};
layerId = m003;
shapes = (
{
closed = 1;
nodes = (
(1174,-30,o),
(1390,76,o),
(1521,299,c),
(1544,253,l),
(1288,382,l),
(1330,368,l),
(1290,242,o),
(1074,145,o),
(832,145,cs),
(500,145,o),
(320,329,o),
(320,676,cs),
(320,1113,o),
(535,1355,o),
(923,1355,cs),
(1170,1355,o),
(1343,1259,o),
(1379,1099,c),
(1338,1081,l),
(1581,1236,l),
(1547,1189,l),
(1512,1399,o),
(1278,1530,o),
(939,1530,cs),
(415,1530,o),
(111,1211,o),
(111,659,cs),
(111,210,o),
(368,-30,o),
(852,-30,cs)
);
}
);
width = 1624;
},
{
anchors = (
{
name = bottom;
pos = (838,0);
},
{
name = top;
pos = (951,1510);
}
);
background = {
shapes = (
{
closed = 1;
nodes = (
(1204,-30,o),
(1442,75,o),
(1562,308,c),
(1585,257,l),
(1278,467,l),
(1315,443,l),
(1341,478,o),
(1246,227,o),
(886,227,cs),
(577,227,o),
(408,411,o),
(408,756,cs),
(408,1120,o),
(596,1273,o),
(885,1273,cs),
(1238,1273,o),
(1283,1044,o),
(1282,1045,c),
(1241,1028,l),
(1572,1182,l),
(1539,1137,l),
(1472,1379,o),
(1262,1531,o),
(896,1531,cs),
(397,1531,o),
(111,1248,o),
(111,745,cs),
(111,239,o),
(401,-30,o),
(895,-30,cs)
);
}
);
};
layerId = m004;
shapes = (
{
closed = 1;
nodes = (
(1168,-30,o),
(1404,86,o),
(1534,308,c),
(1554,257,l),
(1262,467,l),
(1393,595,l),
(1281,315,o),
(1067,227,o),
(854,227,cs),
(564,227,o),
(409,389,o),
(409,689,cs),
(409,1066,o),
(594,1273,o),
(929,1273,cs),
(1185,1273,o),
(1319,1156,o),
(1320,927,c),
(1264,1028,l),
(1606,1182,l),
(1569,1137,l),
(1516,1393,o),
(1301,1531,o),
(953,1531,cs),
(425,1531,o),
(111,1206,o),
(111,660,cs),
(111,216,o),
(371,-30,o),
(843,-30,cs)
);
}
);
width = 1598;
}
);
metricLeft = "=O";
unicode = 67;
userData = {
KernOnName = C;
};
},
{
color = 4;
glyphname = Cacute;
kernLeft = KO_C;
kernRight = KO_C;
lastChange = "2022-03-23 22:41:43 +0000";
layers = (
{
anchors = (
{
name = bottom;
pos = (741,-10);
},
{
name = top;
pos = (971,1836);
}
);
layerId = "FC837317-1536-49E4-8B36-958C77713550";
shapes = (
{
closed = 1;
nodes = (
(1013,-30,o),
(1207,79,o),
(1320,301,c),
(1344,252,l),
(1101,383,l),
(1226,472,l),
(1094,249,o),
(958,145,o),
(742,145,cs),
(461,145,o),
(315,320,o),
(315,658,cs),
(315,1103,o),
(498,1355,o),
(823,1355,cs),
(1099,1355,o),
(1159,1181,o),
(1182,1102,c),
(1142,1081,l),
(1390,1236,l),
(1354,1187,l),
(1324,1378,o),
(1149,1530,o),
(836,1530,cs),
(383,1530,o),
(111,1200,o),
(111,649,cs),
(111,231,o),
(314,-30,o),
(739,-30,cs)
);
},
{
closed = 1;
nodes = (
(908,1612,l),
(1209,1844,l),
(972,1844,l),
(732,1612,l)
);
}
);
width = 1433;
},
{
anchors = (
{
name = bottom;
pos = (720,0);
},
{
name = top;
pos = (1012,1898);
}
);
layerId = m014;
shapes = (
{
closed = 1;
nodes = (
(1008,-30,o),
(1223,90,o),
(1334,310,c),
(1353,256,l),
(1075,468,l),
(1137,498,l),
(1083,336,o),
(926,227,o),
(743,227,cs),
(524,227,o),
(405,381,o),
(405,668,cs),
(405,1047,o),
(558,1273,o),
(817,1273,cs),
(1033,1273,o),
(1149,1121,o),
(1105,899,c),
(1068,1028,l),
(1413,1182,l),
(1377,1133,l),
(1325,1393,o),
(1139,1531,o),
(848,1531,cs),
(395,1531,o),
(111,1192,o),
(111,652,cs),
(111,221,o),
(337,-30,o),
(733,-30,cs)
);
},
{
closed = 1;
nodes = (
(935,1628,l),
(1296,1868,l),
(1010,1868,l),
(722,1628,l)
);
}
);
width = 1406;
},
{
anchors = (
{
name = bottom;
pos = (872,0);
},
{
name = top;
pos = (1180,1844);
}
);
layerId = m003;
shapes = (
{
closed = 1;
nodes = (
(1174,-30,o),
(1390,76,o),
(1521,299,c),
(1544,253,l),
(1288,382,l),
(1330,368,l),
(1290,242,o),
(1074,145,o),
(832,145,cs),
(500,145,o),
(320,329,o),
(320,676,cs),
(320,1113,o),
(535,1355,o),
(923,1355,cs),
(1170,1355,o),
(1343,1259,o),
(1379,1099,c),
(1338,1081,l),
(1581,1236,l),
(1547,1189,l),
(1512,1399,o),
(1278,1530,o),
(939,1530,cs),
(415,1530,o),
(111,1211,o),
(111,659,cs),
(111,210,o),
(368,-30,o),
(852,-30,cs)
);
},
{
closed = 1;
nodes = (
(1068,1616,l),
(1503,1848,l),
(1196,1848,l),
(840,1616,l)
);
}
);
width = 1624;
},
{
anchors = (
{
name = bottom;
pos = (838,0);
},
{
name = top;
pos = (1190,1868);
}
);
layerId = m004;
shapes = (
{
closed = 1;
nodes = (
(1168,-30,o),
(1404,86,o),
(1534,308,c),
(1554,257,l),
(1262,467,l),
(1393,595,l),
(1281,315,o),
(1067,227,o),
(854,227,cs),
(564,227,o),
(409,389,o),
(409,689,cs),
(409,1066,o),
(594,1273,o),
(929,1273,cs),
(1185,1273,o),
(1319,1156,o),
(1320,927,c),
(1264,1028,l),
(1606,1182,l),
(1569,1137,l),
(1516,1393,o),
(1301,1531,o),
(953,1531,cs),
(425,1531,o),
(111,1206,o),
(111,660,cs),
(111,216,o),
(371,-30,o),
(843,-30,cs)
);
},
{
closed = 1;
nodes = (
(1093,1628,l),
(1499,1868,l),
(1110,1868,l),
(813,1628,l)
);
}
);
width = 1598;
}
);
unicode = 262;
},
{
color = 4;
glyphname = Ccaron;
kernLeft = KO_C;
kernRight = KO_C;
lastChange = "2022-03-23 22:41:43 +0000";
layers = (
{
anchors = (
{
name = bottom;
pos = (741,-10);
},
{
name = top;
pos = (860,1867);
}
);
layerId = "FC837317-1536-49E4-8B36-958C77713550";
shapes = (
{
closed = 1;
nodes = (
(1013,-30,o),
(1207,79,o),
(1320,301,c),
(1344,252,l),
(1101,383,l),
(1226,472,l),
(1094,249,o),
(958,145,o),
(742,145,cs),
(461,145,o),
(315,320,o),
(315,658,cs),
(315,1103,o),
(498,1355,o),
(823,1355,cs),
(1099,1355,o),
(1159,1181,o),
(1182,1102,c),
(1142,1081,l),
(1390,1236,l),
(1354,1187,l),
(1324,1378,o),
(1149,1530,o),
(836,1530,cs),
(383,1530,o),
(111,1200,o),
(111,649,cs),
(111,231,o),
(314,-30,o),
(739,-30,cs)
);
},
{
closed = 1;
nodes = (
(817,1657,l),
(874,1657,l),
(716,1867,l),
(513,1867,l),
(736,1602,l),
(945,1602,l),
(1206,1867,l),
(1003,1867,l)
);
}
);
width = 1433;
},
{
anchors = (
{
name = bottom;
pos = (720,0);
},
{
name = top;
pos = (872,1864);
}
);
layerId = m014;
shapes = (
{
closed = 1;
nodes = (
(1008,-30,o),
(1223,90,o),
(1334,310,c),
(1353,256,l),
(1075,468,l),
(1137,498,l),
(1083,336,o),
(926,227,o),
(743,227,cs),
(524,227,o),
(405,381,o),
(405,668,cs),
(405,1047,o),
(558,1273,o),
(817,1273,cs),
(1033,1273,o),
(1149,1121,o),
(1105,899,c),
(1068,1028,l),
(1413,1182,l),
(1377,1133,l),
(1325,1393,o),
(1139,1531,o),
(848,1531,cs),
(395,1531,o),
(111,1192,o),
(111,652,cs),
(111,221,o),
(337,-30,o),
(733,-30,cs)
);
},
{
closed = 1;
nodes = (
(851,1734,l),
(874,1734,l),
(740,1864,l),
(452,1864,l),
(728,1627,l),
(981,1627,l),
(1291,1864,l),
(1003,1864,l)
);
}
);
width = 1406;
},
{
anchors = (
{
name = bottom;
pos = (872,0);
},
{
name = top;
pos = (983,1869);
}
);
layerId = m003;
shapes = (
{
closed = 1;
nodes = (
(1174,-30,o),
(1390,76,o),
(1521,299,c),
(1544,253,l),
(1288,382,l),
(1330,368,l),
(1290,242,o),
(1074,145,o),
(832,145,cs),
(500,145,o),
(320,329,o),
(320,676,cs),
(320,1113,o),
(535,1355,o),
(923,1355,cs),
(1170,1355,o),
(1343,1259,o),
(1379,1099,c),
(1338,1081,l),
(1581,1236,l),
(1547,1189,l),
(1512,1399,o),
(1278,1530,o),
(939,1530,cs),
(415,1530,o),
(111,1211,o),
(111,659,cs),
(111,210,o),
(368,-30,o),
(852,-30,cs)
);
},
{
closed = 1;
nodes = (
(934,1671,l),
(1006,1671,l),
(801,1881,l),
(543,1881,l),
(832,1616,l),
(1097,1616,l),
(1422,1881,l),
(1164,1881,l)
);
}
);
width = 1624;
},
{
anchors = (
{
name = bottom;
pos = (838,0);
},
{
name = top;
pos = (975,1864);
}
);
layerId = m004;
shapes = (
{
closed = 1;
nodes = (
(1168,-30,o),
(1404,86,o),
(1534,308,c),
(1554,257,l),
(1262,467,l),
(1393,595,l),
(1281,315,o),
(1067,227,o),
(854,227,cs),
(564,227,o),
(409,389,o),
(409,689,cs),
(409,1066,o),
(594,1273,o),
(929,1273,cs),
(1185,1273,o),
(1319,1156,o),
(1320,927,c),
(1264,1028,l),
(1606,1182,l),
(1569,1137,l),
(1516,1393,o),
(1301,1531,o),
(953,1531,cs),
(425,1531,o),
(111,1206,o),
(111,660,cs),
(111,216,o),
(371,-30,o),
(843,-30,cs)
);
},
{
closed = 1;
nodes = (
(953,1734,l),
(980,1734,l),
(820,1864,l),
(483,1864,l),
(810,1627,l),
(1107,1627,l),
(1466,1864,l),
(1129,1864,l)
);
}
);
width = 1598;
}
);
unicode = 268;
},
{
color = 4;
glyphname = Ccedilla;
kernLeft = KO_C;
kernRight = KO_C;
lastChange = "2022-03-23 22:41:43 +0000";
layers = (
{
anchors = (
{
name = bottom;
pos = (796,-410);
},
{
name = top;
pos = (835,1510);
}
);
layerId = "FC837317-1536-49E4-8B36-958C77713550";
shapes = (
{
closed = 1;
nodes = (
(1013,-30,o),
(1207,79,o),
(1320,301,c),
(1344,252,l),
(1101,383,l),
(1226,472,l),
(1094,249,o),
(958,145,o),
(742,145,cs),
(461,145,o),
(315,320,o),
(315,658,cs),
(315,1103,o),
(498,1355,o),
(823,1355,cs),
(1099,1355,o),
(1159,1181,o),
(1182,1102,c),
(1142,1081,l),
(1390,1236,l),
(1354,1187,l),
(1324,1378,o),
(1149,1530,o),
(836,1530,cs),
(383,1530,o),
(111,1200,o),
(111,649,cs),
(111,231,o),
(314,-30,o),
(739,-30,cs)
);
},
{
closed = 1;
nodes = (
(899,-410,o),
(1000,-329,o),
(1000,-215,cs),
(1000,-127,o),
(939,-39,o),
(811,-10,c),
(632,-10,l),
(772,-60,o),
(838,-127,o),
(838,-192,cs),
(838,-245,o),
(797,-280,o),
(738,-280,cs),
(700,-280,o),
(659,-265,o),
(629,-245,c),
(620,-371,l),
(660,-398,o),
(706,-410,o),
(760,-410,cs)
);
}
);
width = 1433;
},
{
anchors = (
{
name = bottom;
pos = (752,-484);
},
{
name = top;
pos = (847,1510);
}
);
layerId = m014;
shapes = (
{
closed = 1;
nodes = (
(1008,-30,o),
(1223,90,o),
(1334,310,c),
(1353,256,l),
(1075,468,l),
(1137,498,l),
(1083,336,o),
(926,227,o),
(743,227,cs),
(524,227,o),
(405,381,o),
(405,668,cs),
(405,1047,o),
(558,1273,o),
(817,1273,cs),
(1033,1273,o),
(1149,1121,o),
(1105,899,c),
(1068,1028,l),
(1413,1182,l),
(1377,1133,l),
(1325,1393,o),
(1139,1531,o),
(848,1531,cs),
(395,1531,o),
(111,1192,o),
(111,652,cs),
(111,221,o),
(337,-30,o),
(733,-30,cs)
);
},
{
closed = 1;
nodes = (
(878,-484,o),
(999,-386,o),
(999,-248,cs),
(999,-146,o),
(931,-37,o),
(770,0,c),
(554,0,l),
(718,-58,o),
(803,-138,o),
(803,-221,cs),
(803,-284,o),
(754,-327,o),
(682,-327,cs),
(636,-327,o),
(587,-309,o),
(551,-284,c),
(541,-437,l),
(586,-468,o),
(642,-484,o),
(709,-484,cs)
);
}
);
width = 1406;
},
{
anchors = (
{
name = bottom;
pos = (905,-400);
},
{
name = top;
pos = (957,1510);
}
);
layerId = m003;
shapes = (
{
closed = 1;
nodes = (
(1174,-30,o),
(1390,76,o),
(1521,299,c),
(1544,253,l),
(1288,382,l),
(1330,368,l),
(1290,242,o),
(1074,145,o),
(832,145,cs),
(500,145,o),
(320,329,o),
(320,676,cs),
(320,1113,o),
(535,1355,o),
(923,1355,cs),
(1170,1355,o),
(1343,1259,o),
(1379,1099,c),
(1338,1081,l),
(1581,1236,l),
(1547,1189,l),
(1512,1399,o),
(1278,1530,o),
(939,1530,cs),
(415,1530,o),
(111,1211,o),
(111,659,cs),
(111,210,o),
(368,-30,o),
(852,-30,cs)
);
},
{
closed = 1;
nodes = (
(1034,-400,o),
(1160,-321,o),
(1160,-211,cs),
(1160,-123,o),
(1080,-31,o),
(874,0,c),
(690,0,l),
(864,-49,o),
(954,-115,o),
(954,-184,cs),
(954,-237,o),
(901,-270,o),
(829,-270,cs),
(781,-270,o),
(729,-255,o),
(690,-235,c),
(682,-361,l),
(731,-387,o),
(788,-400,o),
(859,-400,cs)
);
}
);
width = 1624;
},
{
anchors = (
{
name = bottom;
pos = (905,-484);
},
{
name = top;
pos = (951,1510);
}
);
layerId = m004;
shapes = (
{
closed = 1;
nodes = (
(1168,-30,o),
(1404,86,o),
(1534,308,c),
(1554,257,l),
(1262,467,l),
(1393,595,l),
(1281,315,o),
(1067,227,o),
(854,227,cs),
(564,227,o),
(409,389,o),
(409,689,cs),
(409,1066,o),
(594,1273,o),
(929,1273,cs),
(1185,1273,o),
(1319,1156,o),
(1320,927,c),
(1264,1028,l),
(1606,1182,l),
(1569,1137,l),
(1516,1393,o),
(1301,1531,o),
(953,1531,cs),
(425,1531,o),
(111,1206,o),
(111,660,cs),
(111,216,o),
(371,-30,o),
(843,-30,cs)
);
},
{
closed = 1;
nodes = (
(1049,-484,o),
(1186,-387,o),
(1186,-250,cs),
(1186,-148,o),
(1107,-37,o),
(921,0,c),
(673,0,l),
(862,-58,o),
(961,-140,o),
(961,-222,cs),
(961,-289,o),
(899,-327,o),
(823,-327,cs),
(771,-327,o),
(713,-309,o),
(672,-284,c),
(661,-437,l),
(714,-468,o),
(779,-484,o),
(856,-484,cs)
);
}
);
width = 1598;
}
);
unicode = 199;
},
{
color = 4;
glyphname = Cdotaccent;
kernLeft = KO_C;
kernRight = KO_C;
lastChange = "2022-03-23 22:41:43 +0000";
layers = (
{
anchors = (
{
name = bottom;
pos = (741,-10);
},
{
name = top;
pos = (865,1939);
}
);
layerId = "FC837317-1536-49E4-8B36-958C77713550";
shapes = (
{
closed = 1;
nodes = (
(1013,-30,o),
(1207,79,o),
(1320,301,c),
(1344,252,l),
(1101,383,l),
(1226,472,l),
(1094,249,o),
(958,145,o),
(742,145,cs),
(461,145,o),
(315,320,o),
(315,658,cs),
(315,1103,o),
(498,1355,o),
(823,1355,cs),
(1099,1355,o),
(1159,1181,o),
(1182,1102,c),
(1142,1081,l),
(1390,1236,l),
(1354,1187,l),
(1324,1378,o),
(1149,1530,o),
(836,1530,cs),
(383,1530,o),
(111,1200,o),
(111,649,cs),
(111,231,o),
(314,-30,o),
(739,-30,cs)
);
},
{
closed = 1;
nodes = (
(920,1618,o),
(975,1670,o),
(975,1741,cs),
(975,1803,o),
(929,1849,o),
(860,1849,cs),
(785,1849,o),
(728,1794,o),
(728,1723,cs),
(728,1661,o),
(776,1618,o),
(844,1618,cs)
);
}
);
width = 1433;
},
{
anchors = (
{
name = bottom;
pos = (720,0);
},
{
name = top;
pos = (877,1939);
}
);
layerId = m014;
shapes = (
{
closed = 1;
nodes = (
(1008,-30,o),
(1223,90,o),
(1334,310,c),
(1353,256,l),
(1075,468,l),
(1137,498,l),
(1083,336,o),
(926,227,o),
(743,227,cs),
(524,227,o),
(405,381,o),
(405,668,cs),
(405,1047,o),
(558,1273,o),
(817,1273,cs),
(1033,1273,o),
(1149,1121,o),
(1105,899,c),
(1068,1028,l),
(1413,1182,l),
(1377,1133,l),
(1325,1393,o),
(1139,1531,o),
(848,1531,cs),
(395,1531,o),
(111,1192,o),
(111,652,cs),
(111,221,o),
(337,-30,o),
(733,-30,cs)
);
},
{
closed = 1;
nodes = (
(947,1605,o),
(1013,1668,o),
(1013,1754,cs),
(1013,1829,o),
(958,1884,o),
(874,1884,cs),
(783,1884,o),
(715,1818,o),
(715,1732,cs),
(715,1657,o),
(773,1605,o),
(855,1605,cs)
);
}
);
width = 1406;
},
{
anchors = (
{
name = bottom;
pos = (872,0);
},
{
name = top;
pos = (987,1939);
}
);
layerId = m003;
shapes = (
{
closed = 1;
nodes = (
(1174,-30,o),
(1390,76,o),
(1521,299,c),
(1544,253,l),
(1288,382,l),
(1330,368,l),
(1290,242,o),
(1074,145,o),
(832,145,cs),
(500,145,o),
(320,329,o),
(320,676,cs),
(320,1113,o),
(535,1355,o),
(923,1355,cs),
(1170,1355,o),
(1343,1259,o),
(1379,1099,c),
(1338,1081,l),
(1581,1236,l),
(1547,1189,l),
(1512,1399,o),
(1278,1530,o),
(939,1530,cs),
(415,1530,o),
(111,1211,o),
(111,659,cs),
(111,210,o),
(368,-30,o),
(852,-30,cs)
);
},
{
closed = 1;
nodes = (
(1045,1657,o),
(1100,1709,o),
(1100,1780,cs),
(1100,1842,o),
(1055,1888,o),
(985,1888,cs),
(910,1888,o),
(853,1833,o),
(853,1762,cs),
(853,1700,o),
(901,1657,o),
(970,1657,cs)
);
}
);
width = 1624;
},
{
anchors = (
{
name = bottom;
pos = (838,0);
},
{
name = top;
pos = (981,1939);
}
);
layerId = m004;
shapes = (
{
closed = 1;
nodes = (
(1168,-30,o),
(1404,86,o),
(1534,308,c),
(1554,257,l),
(1262,467,l),
(1393,595,l),
(1281,315,o),
(1067,227,o),
(854,227,cs),
(564,227,o),
(409,389,o),
(409,689,cs),
(409,1066,o),
(594,1273,o),
(929,1273,cs),
(1185,1273,o),
(1319,1156,o),
(1320,927,c),
(1264,1028,l),
(1606,1182,l),
(1569,1137,l),
(1516,1393,o),
(1301,1531,o),
(953,1531,cs),
(425,1531,o),
(111,1206,o),
(111,660,cs),
(111,216,o),
(371,-30,o),
(843,-30,cs)
);
},
{
closed = 1;
nodes = (
(1051,1605,o),
(1117,1668,o),
(1117,1754,cs),
(1117,1829,o),
(1062,1884,o),
(978,1884,cs),
(887,1884,o),
(818,1818,o),
(818,1732,cs),
(818,1657,o),
(876,1605,o),
(959,1605,cs)
);
}
);
width = 1598;
}
);
unicode = 266;
},
{
color = 5;
glyphname = D;
kernLeft = KO_H;
kernRight = KO_D;
lastChange = "2022-03-23 22:41:43 +0000";
layers = (
{
anchors = (
{
name = bottom;
pos = (716,0);
},
{
name = center;
pos = (769,755);
},
{
name = top;
pos = (759,1510);
}
);
layerId = "FC837317-1536-49E4-8B36-958C77713550";
shapes = (
{
closed = 1;
nodes = (
(717,0,ls),
(1109,0,o),
(1377,345,o),
(1377,845,cs),
(1377,1247,o),
(1170,1510,o),
(799,1510,cs),
(289,1510,l),
(183,0,l)
);
},
{
closed = 1;
nodes = (
(477,1452,l),
(367,1342,l),
(721,1342,ls),
(1000,1342,o),
(1169,1168,o),
(1169,824,cs),
(1169,409,o),
(983,168,o),
(663,168,cs),
(285,168,l),
(379,58,l)
);
}
);
width = 1488;
},
{
anchors = (
{
name = bottom;
pos = (750,0);
},
{
name = center;
pos = (416,755);
},
{
name = top;
pos = (727,1510);
}
);
layerId = m014;
shapes = (
{
closed = 1;
nodes = (
(715,0,ls),
(1135,0,o),
(1445,352,o),
(1445,832,cs),
(1445,1240,o),
(1190,1510,o),
(797,1510,cs),
(257,1510,l),
(151,0,l)
);
},
{
closed = 1;
nodes = (
(538,1392,l),
(378,1266,l),
(714,1266,ls),
(986,1266,o),
(1149,1091,o),
(1149,804,cs),
(1149,463,o),
(961,244,o),
(666,244,cs),
(306,244,l),
(449,118,l)
);
}
);
width = 1556;
},
{
anchors = (
{
name = bottom;
pos = (802,0);
},
{
name = center;
pos = (410,755);
},
{
name = top;
pos = (838,1510);
}
);
layerId = m003;
shapes = (
{
closed = 1;
nodes = (
(818,0,ls),
(1276,0,o),
(1577,332,o),
(1577,836,cs),
(1577,1244,o),
(1341,1510,o),
(895,1510,cs),
(289,1510,l),
(183,0,l)
);
},
{
closed = 1;
nodes = (
(476,1452,l),
(366,1342,l),
(843,1342,ls),
(1167,1342,o),
(1367,1175,o),
(1367,817,cs),
(1367,399,o),
(1161,168,o),
(790,168,cs),
(284,168,l),
(378,58,l)
);
}
);
width = 1688;
},
{
anchors = (
{
name = bottom;
pos = (836,0);
},
{
name = center;
pos = (462,755);
},
{
name = top;
pos = (893,1510);
}
);
layerId = m004;
shapes = (
{
closed = 1;
nodes = (
(816,0,ls),
(1302,0,o),
(1644,340,o),
(1644,824,cs),
(1644,1238,o),
(1360,1510,o),
(893,1510,cs),
(257,1510,l),
(151,0,l)
);
},
{
closed = 1;
nodes = (
(537,1392,l),
(377,1266,l),
(796,1266,ls),
(1135,1266,o),
(1344,1088,o),
(1344,792,cs),
(1344,456,o),
(1115,244,o),
(753,244,cs),
(305,244,l),
(448,118,l)
);
}
);
width = 1755;
}
);
metricLeft = "=H";
metricRight = "=O";
unicode = 68;
userData = {
KernOnName = D;
};
},
{
color = 4;
glyphname = Eth;
kernLeft = KO_Eth;
kernRight = KO_D;
lastChange = "2022-03-23 22:41:43 +0000";
layers = (
{
anchors = (
{
name = bottom;
pos = (703,0);
},
{
name = center;
pos = (756,755);
},
{
name = top;
pos = (745,1510);
}
);
layerId = "FC837317-1536-49E4-8B36-958C77713550";
shapes = (
{
closed = 1;
nodes = (
(704,0,ls),
(1095,0,o),
(1364,344,o),
(1364,845,cs),
(1364,1247,o),
(1157,1510,o),
(785,1510,cs),
(275,1510,l),
(170,0,l)
);
},
{
closed = 1;
nodes = (
(463,1452,l),
(354,1342,l),
(708,1342,ls),
(986,1342,o),
(1156,1168,o),
(1156,824,cs),
(1156,409,o),
(970,168,o),
(649,168,cs),
(271,168,l),
(366,58,l)
);
},
{
closed = 1;
nodes = (
(720,676,l),
(731,834,l),
(96,834,l),
(85,676,l)
);
}
);
width = 1475;
},
{
anchors = (
{
name = bottom;
pos = (762,0);
},
{
name = center;
pos = (428,755);
},
{
name = top;
pos = (739,1510);
}
);
layerId = m014;
shapes = (
{
closed = 1;
nodes = (
(727,0,ls),
(1147,0,o),
(1457,352,o),
(1457,832,cs),
(1457,1240,o),
(1202,1510,o),
(809,1510,cs),
(269,1510,l),
(163,0,l)
);
},
{
closed = 1;
nodes = (
(550,1392,l),
(390,1266,l),
(726,1266,ls),
(998,1266,o),
(1161,1091,o),
(1161,804,cs),
(1161,463,o),
(973,244,o),
(678,244,cs),
(318,244,l),
(461,118,l)
);
},
{
closed = 1;
nodes = (
(758,642,l),
(774,868,l),
(97,868,l),
(81,642,l)
);
}
);
width = 1568;
},
{
anchors = (
{
name = bottom;
pos = (853,0);
},
{
name = center;
pos = (461,755);
},
{
name = top;
pos = (888,1510);
}
);
layerId = m003;
shapes = (
{
closed = 1;
nodes = (
(869,0,ls),
(1327,0,o),
(1628,332,o),
(1628,836,cs),
(1628,1243,o),
(1392,1510,o),
(945,1510,cs),
(339,1510,l),
(234,0,l)
);
},
{
closed = 1;
nodes = (
(526,1452,l),
(417,1342,l),
(894,1342,ls),
(1218,1342,o),
(1417,1175,o),
(1417,817,cs),
(1417,400,o),
(1212,168,o),
(840,168,cs),
(334,168,l),
(429,58,l)
);
},
{
closed = 1;
nodes = (
(874,676,l),
(885,834,l),
(96,834,l),
(85,676,l)
);
}
);
width = 1739;
},
{
anchors = (
{
name = bottom;
pos = (860,0);
},
{
name = center;
pos = (486,755);
},
{
name = top;
pos = (917,1510);
}
);
layerId = m004;
shapes = (
{
closed = 1;
nodes = (
(840,0,ls),
(1326,0,o),
(1668,340,o),
(1668,824,cs),
(1668,1238,o),
(1384,1510,o),
(917,1510,cs),
(281,1510,l),
(175,0,l)
);
},
{
closed = 1;
nodes = (
(561,1392,l),
(401,1266,l),
(820,1266,ls),
(1160,1266,o),
(1368,1088,o),
(1368,792,cs),
(1368,456,o),
(1139,244,o),
(777,244,cs),
(329,244,l),
(472,118,l)
);
},
{
closed = 1;
nodes = (
(874,642,l),
(890,868,l),
(97,868,l),
(81,642,l)
);
}
);
width = 1779;
}
);
metricLeft = t;
metricRight = D;
unicode = 208;
},
{
color = 4;
glyphname = Dcaron;
kernLeft = KO_H;
kernRight = KO_D;
lastChange = "2022-03-23 22:41:43 +0000";
layers = (
{
anchors = (
{
name = bottom;
pos = (716,0);
},
{
name = center;
pos = (769,755);
},
{
name = top;
pos = (784,1867);
}
);
layerId = "FC837317-1536-49E4-8B36-958C77713550";
shapes = (
{
closed = 1;
nodes = (
(717,0,ls),
(1109,0,o),
(1377,345,o),
(1377,845,cs),
(1377,1247,o),
(1170,1510,o),
(799,1510,cs),
(289,1510,l),
(183,0,l)
);
},
{
closed = 1;
nodes = (
(477,1452,l),
(367,1342,l),
(721,1342,ls),
(1000,1342,o),
(1169,1168,o),
(1169,824,cs),
(1169,409,o),
(983,168,o),
(663,168,cs),
(285,168,l),
(379,58,l)
);
},
{
closed = 1;
nodes = (
(741,1657,l),
(798,1657,l),
(640,1867,l),
(437,1867,l),
(660,1602,l),
(869,1602,l),
(1130,1867,l),
(927,1867,l)
);
}
);
width = 1488;
},
{
anchors = (
{
name = bottom;
pos = (750,0);
},
{
name = center;
pos = (416,755);
},
{
name = top;
pos = (751,1864);
}
);
layerId = m014;
shapes = (
{
closed = 1;
nodes = (
(715,0,ls),
(1135,0,o),
(1445,352,o),
(1445,832,cs),
(1445,1240,o),
(1190,1510,o),
(797,1510,cs),
(257,1510,l),
(151,0,l)
);
},
{
closed = 1;
nodes = (
(538,1392,l),
(378,1266,l),
(714,1266,ls),
(986,1266,o),
(1149,1091,o),
(1149,804,cs),
(1149,463,o),
(961,244,o),
(666,244,cs),
(306,244,l),
(449,118,l)
);
},
{
closed = 1;
nodes = (
(731,1734,l),
(754,1734,l),
(619,1864,l),
(331,1864,l),
(608,1627,l),
(861,1627,l),
(1170,1864,l),
(882,1864,l)
);
}
);
width = 1556;
},
{
anchors = (
{
name = bottom;
pos = (802,0);
},
{
name = center;
pos = (410,755);
},
{
name = top;
pos = (863,1869);
}
);
layerId = m003;
shapes = (
{
closed = 1;
nodes = (
(818,0,ls),
(1276,0,o),
(1577,332,o),
(1577,836,cs),
(1577,1244,o),
(1341,1510,o),
(895,1510,cs),
(289,1510,l),
(183,0,l)
);
},
{
closed = 1;
nodes = (
(476,1452,l),
(366,1342,l),
(843,1342,ls),
(1167,1342,o),
(1367,1175,o),
(1367,817,cs),
(1367,399,o),
(1161,168,o),
(790,168,cs),
(284,168,l),
(378,58,l)
);
},
{
closed = 1;
nodes = (
(814,1671,l),
(886,1671,l),
(682,1881,l),
(424,1881,l),
(712,1616,l),
(977,1616,l),
(1303,1881,l),
(1045,1881,l)
);
}
);
width = 1688;
},
{
anchors = (
{
name = bottom;
pos = (836,0);
},
{
name = center;
pos = (462,755);
},
{
name = top;
pos = (917,1864);
}
);
layerId = m004;
shapes = (
{
closed = 1;
nodes = (
(816,0,ls),
(1302,0,o),
(1644,340,o),
(1644,824,cs),
(1644,1238,o),
(1360,1510,o),
(893,1510,cs),
(257,1510,l),
(151,0,l)
);
},
{
closed = 1;
nodes = (
(537,1392,l),
(377,1266,l),
(796,1266,ls),
(1135,1266,o),
(1344,1088,o),
(1344,792,cs),
(1344,456,o),
(1115,244,o),
(753,244,cs),
(305,244,l),
(448,118,l)
);
},
{
closed = 1;
nodes = (
(895,1734,l),
(922,1734,l),
(762,1864,l),
(425,1864,l),
(752,1627,l),
(1049,1627,l),
(1408,1864,l),
(1071,1864,l)
);
}
);
width = 1755;
}
);
unicode = 270;
},
{
color = 4;
glyphname = Dcroat;
kernLeft = KO_Eth;
kernRight = KO_D;
lastChange = "2022-03-23 22:41:43 +0000";
layers = (
{
anchors = (
{
name = bottom;
pos = (703,0);
},
{
name = center;
pos = (756,755);
},
{
name = top;
pos = (745,1510);
}
);
layerId = "FC837317-1536-49E4-8B36-958C77713550";
shapes = (
{
closed = 1;
nodes = (
(704,0,ls),
(1095,0,o),
(1364,344,o),
(1364,845,cs),
(1364,1247,o),
(1157,1510,o),
(785,1510,cs),
(275,1510,l),
(170,0,l)
);
},
{
closed = 1;
nodes = (
(463,1452,l),
(354,1342,l),
(708,1342,ls),
(986,1342,o),
(1156,1168,o),
(1156,824,cs),
(1156,409,o),
(970,168,o),
(649,168,cs),
(271,168,l),
(366,58,l)
);
},
{
closed = 1;
nodes = (
(720,676,l),
(731,834,l),
(96,834,l),
(85,676,l)
);
}
);
width = 1475;
},
{
anchors = (
{
name = bottom;
pos = (705,0);
},
{
name = center;
pos = (371,755);
},
{
name = top;
pos = (682,1510);
}
);
layerId = m014;
shapes = (
{
closed = 1;
nodes = (
(670,0,ls),
(1090,0,o),
(1400,352,o),
(1400,832,cs),
(1400,1240,o),
(1145,1510,o),
(752,1510,cs),
(212,1510,l),
(106,0,l)
);
},
{
closed = 1;
nodes = (
(493,1392,l),
(333,1266,l),
(669,1266,ls),
(941,1266,o),
(1104,1091,o),
(1104,804,cs),
(1104,463,o),
(916,244,o),
(621,244,cs),
(261,244,l),
(404,118,l)
);
},
{
closed = 1;
nodes = (
(701,642,l),
(717,868,l),
(40,868,l),
(24,642,l)
);
}
);
width = 1511;
},
{
anchors = (
{
name = bottom;
pos = (755,0);
},
{
name = center;
pos = (363,755);
},
{
name = top;
pos = (790,1510);
}
);
layerId = m003;
shapes = (
{
closed = 1;
nodes = (
(771,0,ls),
(1229,0,o),
(1530,332,o),
(1530,836,cs),
(1530,1243,o),
(1294,1510,o),
(847,1510,cs),
(241,1510,l),
(136,0,l)
);
},
{
closed = 1;
nodes = (
(428,1452,l),
(319,1342,l),
(796,1342,ls),
(1120,1342,o),
(1319,1175,o),
(1319,817,cs),
(1319,400,o),
(1114,168,o),
(742,168,cs),
(236,168,l),
(331,58,l)
);
},
{
closed = 1;
nodes = (
(776,676,l),
(787,834,l),
(-2,834,l),
(-13,676,l)
);
}
);
width = 1641;
},
{
anchors = (
{
name = bottom;
pos = (791,0);
},
{
name = center;
pos = (417,755);
},
{
name = top;
pos = (848,1510);
}
);
layerId = m004;
shapes = (
{
closed = 1;
nodes = (
(771,0,ls),
(1257,0,o),
(1599,340,o),
(1599,824,cs),
(1599,1238,o),
(1315,1510,o),
(848,1510,cs),
(212,1510,l),
(106,0,l)
);
},
{
closed = 1;
nodes = (
(492,1392,l),
(332,1266,l),
(751,1266,ls),
(1091,1266,o),
(1299,1088,o),
(1299,792,cs),
(1299,456,o),
(1070,244,o),
(708,244,cs),
(260,244,l),
(403,118,l)
);
},
{
closed = 1;
nodes = (
(805,642,l),
(821,868,l),
(28,868,l),
(12,642,l)
);
}
);
width = 1710;
}
);
unicode = 272;
},
{
color = 5;
glyphname = E;
kernLeft = KO_H;
kernRight = KO_E;
lastChange = "2022-03-23 22:41:43 +0000";
layers = (
{
anchors = (
{
name = bottom;
pos = (615,0);
},
{
name = ogonek;
pos = (1119,0);
},
{
name = top;
pos = (745,1510);
},
{
name = topleft;
pos = (131,1510);
}
);
layerId = "FC837317-1536-49E4-8B36-958C77713550";
shapes = (
{
closed = 1;
nodes = (
(1119,0,l),
(1131,168,l),
(323,168,l),
(382,96,l),
(429,766,l),
(359,690,l),
(1047,690,l),
(1059,858,l),
(371,858,l),
(430,782,l),
(474,1414,l),
(405,1342,l),
(1203,1342,l),
(1215,1510,l),
(289,1510,l),
(183,0,l)
);
}
);
width = 1278;
},
{
anchors = (
{
name = bottom;
pos = (607,0);
},
{
name = ogonek;
pos = (1093,0);
},
{
name = top;
pos = (733,1510);
},
{
name = topleft;
pos = (257,1510);
}
);
layerId = m014;
shapes = (
{
closed = 1;
nodes = (
(1093,0,l),
(1110,244,l),
(346,244,l),
(451,140,l),
(494,762,l),
(375,652,l),
(1039,652,l),
(1056,896,l),
(392,896,l),
(496,786,l),
(537,1370,l),
(418,1266,l),
(1182,1266,l),
(1199,1510,l),
(257,1510,l),
(151,0,l)
);
}
);
width = 1300;
},
{
anchors = (
{
name = bottom;
pos = (784,0);
},
{
name = ogonek;
pos = (1319,0);
},
{
name = top;
pos = (860,1510);
},
{
name = topleft;
pos = (83,1510);
}
);
layerId = m003;
shapes = (
{
closed = 1;
nodes = (
(1319,0,l),
(1331,168,l),
(329,168,l),
(381,96,l),
(428,766,l),
(365,690,l),
(1212,690,l),
(1224,858,l),
(377,858,l),
(429,782,l),
(473,1414,l),
(411,1342,l),
(1397,1342,l),
(1409,1510,l),
(289,1510,l),
(183,0,l)
);
}
);
width = 1472;
},
{
anchors = (
{
name = bottom;
pos = (757,0);
},
{
name = ogonek;
pos = (1293,0);
},
{
name = top;
pos = (841,1510);
},
{
name = topleft;
pos = (257,1510);
}
);
layerId = m004;
shapes = (
{
closed = 1;
nodes = (
(1293,0,l),
(1310,244,l),
(352,244,l),
(450,140,l),
(493,762,l),
(381,652,l),
(1204,652,l),
(1221,896,l),
(398,896,l),
(495,786,l),
(536,1370,l),
(424,1266,l),
(1376,1266,l),
(1393,1510,l),
(257,1510,l),
(151,0,l)
);
}
);
width = 1494;
}
);
metricLeft = H;
unicode = 69;
userData = {
KernOnName = E;
};
},
{
color = 4;
glyphname = Eacute;
kernLeft = KO_H;
kernRight = KO_E;
lastChange = "2022-03-23 22:41:43 +0000";
layers = (
{
anchors = (
{
name = bottom;
pos = (615,0);
},
{
name = ogonek;
pos = (1119,0);
},
{
name = top;
pos = (880,1836);
},
{
name = topleft;
pos = (131,1510);
}
);
layerId = "FC837317-1536-49E4-8B36-958C77713550";
shapes = (
{
closed = 1;
nodes = (
(1119,0,l),
(1131,168,l),
(323,168,l),
(382,96,l),
(429,766,l),
(359,690,l),
(1047,690,l),
(1059,858,l),
(371,858,l),
(430,782,l),
(474,1414,l),
(405,1342,l),
(1203,1342,l),
(1215,1510,l),
(289,1510,l),
(183,0,l)
);
},
{
closed = 1;
nodes = (
(818,1612,l),
(1119,1844,l),
(882,1844,l),
(642,1612,l)
);
}
);
width = 1278;
},
{
anchors = (
{
name = bottom;
pos = (607,0);
},
{
name = ogonek;
pos = (1093,0);
},
{
name = top;
pos = (898,1898);
},
{
name = topleft;
pos = (257,1510);
}
);
layerId = m014;
shapes = (
{
closed = 1;
nodes = (
(1093,0,l),
(1110,244,l),
(346,244,l),
(451,140,l),
(494,762,l),
(375,652,l),
(1039,652,l),
(1056,896,l),
(392,896,l),
(496,786,l),
(537,1370,l),
(418,1266,l),
(1182,1266,l),
(1199,1510,l),
(257,1510,l),
(151,0,l)
);
},
{
closed = 1;
nodes = (
(821,1628,l),
(1182,1868,l),
(896,1868,l),
(608,1628,l)
);
}
);
width = 1300;
},
{
anchors = (
{
name = bottom;
pos = (784,0);
},
{
name = ogonek;
pos = (1319,0);
},
{
name = top;
pos = (1082,1844);
},
{
name = topleft;
pos = (83,1510);
}
);
layerId = m003;
shapes = (
{
closed = 1;
nodes = (
(1319,0,l),
(1331,168,l),
(329,168,l),
(381,96,l),
(428,766,l),
(365,690,l),
(1212,690,l),
(1224,858,l),
(377,858,l),
(429,782,l),
(473,1414,l),
(411,1342,l),
(1397,1342,l),
(1409,1510,l),
(289,1510,l),
(183,0,l)
);
},
{
closed = 1;
nodes = (
(970,1616,l),
(1405,1848,l),
(1098,1848,l),
(742,1616,l)
);
}
);
width = 1472;
},
{
anchors = (
{
name = bottom;
pos = (757,0);
},
{
name = ogonek;
pos = (1293,0);
},
{
name = top;
pos = (1080,1868);
},
{
name = topleft;
pos = (257,1510);
}
);
layerId = m004;
shapes = (
{
closed = 1;
nodes = (
(1293,0,l),
(1310,244,l),
(352,244,l),
(450,140,l),
(493,762,l),
(381,652,l),
(1204,652,l),
(1221,896,l),
(398,896,l),
(495,786,l),
(536,1370,l),
(424,1266,l),
(1376,1266,l),
(1393,1510,l),
(257,1510,l),
(151,0,l)
);
},
{
closed = 1;
nodes = (
(983,1628,l),
(1389,1868,l),
(1000,1868,l),
(703,1628,l)
);
}
);
width = 1494;
}
);
unicode = 201;
},
{
color = 4;
glyphname = Ecaron;
kernLeft = KO_H;
kernRight = KO_E;
lastChange = "2022-03-23 22:41:43 +0000";
layers = (
{
anchors = (
{
name = bottom;
pos = (615,0);
},
{
name = ogonek;
pos = (1119,0);
},
{
name = top;
pos = (770,1867);
},
{
name = topleft;
pos = (131,1510);
}
);
layerId = "FC837317-1536-49E4-8B36-958C77713550";
shapes = (
{
closed = 1;
nodes = (
(1119,0,l),
(1131,168,l),
(323,168,l),
(382,96,l),
(429,766,l),
(359,690,l),
(1047,690,l),
(1059,858,l),
(371,858,l),
(430,782,l),
(474,1414,l),
(405,1342,l),
(1203,1342,l),
(1215,1510,l),
(289,1510,l),
(183,0,l)
);
},
{
closed = 1;
nodes = (
(727,1657,l),
(784,1657,l),
(626,1867,l),
(423,1867,l),
(646,1602,l),
(855,1602,l),
(1116,1867,l),
(913,1867,l)
);
}
);
width = 1278;
},
{
anchors = (
{
name = bottom;
pos = (607,0);
},
{
name = ogonek;
pos = (1093,0);
},
{
name = top;
pos = (757,1864);
},
{
name = topleft;
pos = (257,1510);
}
);
layerId = m014;
shapes = (
{
closed = 1;
nodes = (
(1093,0,l),
(1110,244,l),
(346,244,l),
(451,140,l),
(494,762,l),
(375,652,l),
(1039,652,l),
(1056,896,l),
(392,896,l),
(496,786,l),
(537,1370,l),
(418,1266,l),
(1182,1266,l),
(1199,1510,l),
(257,1510,l),
(151,0,l)
);
},
{
closed = 1;
nodes = (
(737,1734,l),
(760,1734,l),
(625,1864,l),
(337,1864,l),
(614,1627,l),
(867,1627,l),
(1176,1864,l),
(888,1864,l)
);
}
);
width = 1300;
},
{
anchors = (
{
name = bottom;
pos = (784,0);
},
{
name = ogonek;
pos = (1319,0);
},
{
name = top;
pos = (885,1869);
},
{
name = topleft;
pos = (83,1510);
}
);
layerId = m003;
shapes = (
{
closed = 1;
nodes = (
(1319,0,l),
(1331,168,l),
(329,168,l),
(381,96,l),
(428,766,l),
(365,690,l),
(1212,690,l),
(1224,858,l),
(377,858,l),
(429,782,l),
(473,1414,l),
(411,1342,l),
(1397,1342,l),
(1409,1510,l),
(289,1510,l),
(183,0,l)
);
},
{
closed = 1;
nodes = (
(836,1671,l),
(908,1671,l),
(704,1881,l),
(446,1881,l),
(734,1616,l),
(999,1616,l),
(1325,1881,l),
(1067,1881,l)
);
}
);
width = 1472;
},
{
anchors = (
{
name = bottom;
pos = (757,0);
},
{
name = ogonek;
pos = (1293,0);
},
{
name = top;
pos = (865,1864);
},
{
name = topleft;
pos = (257,1510);
}
);
layerId = m004;
shapes = (
{
closed = 1;
nodes = (
(1293,0,l),
(1310,244,l),
(352,244,l),
(450,140,l),
(493,762,l),
(381,652,l),
(1204,652,l),
(1221,896,l),
(398,896,l),
(495,786,l),
(536,1370,l),
(424,1266,l),
(1376,1266,l),
(1393,1510,l),
(257,1510,l),
(151,0,l)
);
},
{
closed = 1;
nodes = (
(843,1734,l),
(870,1734,l),
(710,1864,l),
(373,1864,l),
(700,1627,l),
(997,1627,l),
(1356,1864,l),
(1019,1864,l)
);
}
);
width = 1494;
}
);
unicode = 282;
},
{
color = 4;
glyphname = Ecircumflex;
kernLeft = KO_H;
kernRight = KO_E;
lastChange = "2022-03-23 22:41:43 +0000";
layers = (
{
anchors = (
{
name = bottom;
pos = (615,0);
},
{
name = ogonek;
pos = (1119,0);
},
{
name = top;
pos = (770,1867);
},
{
name = topleft;
pos = (131,1510);
}
);
layerId = "FC837317-1536-49E4-8B36-958C77713550";
shapes = (
{
closed = 1;
nodes = (
(1119,0,l),
(1131,168,l),
(323,168,l),
(382,96,l),
(429,766,l),
(359,690,l),
(1047,690,l),
(1059,858,l),
(371,858,l),
(430,782,l),
(474,1414,l),
(405,1342,l),
(1203,1342,l),
(1215,1510,l),
(289,1510,l),
(183,0,l)
);
},
{
closed = 1;
nodes = (
(1098,1610,l),
(874,1875,l),
(665,1875,l),
(405,1610,l),
(608,1610,l),
(795,1820,l),
(738,1820,l),
(895,1610,l)
);
}
);
width = 1278;
},
{
anchors = (
{
name = bottom;
pos = (607,0);
},
{
name = ogonek;
pos = (1093,0);
},
{
name = top;
pos = (763,1942);
},
{
name = topleft;
pos = (257,1510);
}
);
layerId = m014;
shapes = (
{
closed = 1;
nodes = (
(1093,0,l),
(1110,244,l),
(346,244,l),
(451,140,l),
(494,762,l),
(375,652,l),
(1039,652,l),
(1056,896,l),
(392,896,l),
(496,786,l),
(537,1370,l),
(418,1266,l),
(1182,1266,l),
(1199,1510,l),
(257,1510,l),
(151,0,l)
);
},
{
closed = 1;
nodes = (
(1160,1631,l),
(884,1868,l),
(631,1868,l),
(321,1631,l),
(609,1631,l),
(762,1761,l),
(739,1761,l),
(872,1631,l)
);
}
);
width = 1300;
},
{
anchors = (
{
name = bottom;
pos = (784,0);
},
{
name = ogonek;
pos = (1319,0);
},
{
name = top;
pos = (886,1881);
},
{
name = topleft;
pos = (83,1510);
}
);
layerId = m003;
shapes = (
{
closed = 1;
nodes = (
(1319,0,l),
(1331,168,l),
(329,168,l),
(381,96,l),
(428,766,l),
(365,690,l),
(1212,690,l),
(1224,858,l),
(377,858,l),
(429,782,l),
(473,1414,l),
(411,1342,l),
(1397,1342,l),
(1409,1510,l),
(289,1510,l),
(183,0,l)
);
},
{
closed = 1;
nodes = (
(1306,1616,l),
(1018,1881,l),
(753,1881,l),
(427,1616,l),
(685,1616,l),
(919,1826,l),
(847,1826,l),
(1048,1616,l)
);
}
);
width = 1472;
},
{
anchors = (
{
name = bottom;
pos = (757,0);
},
{
name = ogonek;
pos = (1293,0);
},
{
name = top;
pos = (871,1942);
},
{
name = topleft;
pos = (257,1510);
}
);
layerId = m004;
shapes = (
{
closed = 1;
nodes = (
(1293,0,l),
(1310,244,l),
(352,244,l),
(450,140,l),
(493,762,l),
(381,652,l),
(1204,652,l),
(1221,896,l),
(398,896,l),
(495,786,l),
(536,1370,l),
(424,1266,l),
(1376,1266,l),
(1393,1510,l),
(257,1510,l),
(151,0,l)
);
},
{
closed = 1;
nodes = (
(1340,1631,l),
(1014,1868,l),
(717,1868,l),
(357,1631,l),
(694,1631,l),
(872,1761,l),
(845,1761,l),
(1003,1631,l)
);
}
);
width = 1494;
}
);
unicode = 202;
},
{
color = 4;
glyphname = Edieresis;
kernLeft = KO_H;
kernRight = KO_E;
lastChange = "2022-03-23 22:41:43 +0000";
layers = (
{
anchors = (
{
name = bottom;
pos = (615,0);
},
{
name = ogonek;
pos = (1119,0);
},
{
name = top;
pos = (772,1903);
},
{
name = topleft;
pos = (131,1510);
}
);
layerId = "FC837317-1536-49E4-8B36-958C77713550";
shapes = (
{
closed = 1;
nodes = (
(1119,0,l),
(1131,168,l),
(323,168,l),
(382,96,l),
(429,766,l),
(359,690,l),
(1047,690,l),
(1059,858,l),
(371,858,l),
(430,782,l),
(474,1414,l),
(405,1342,l),
(1203,1342,l),
(1215,1510,l),
(289,1510,l),
(183,0,l)
);
},
{
closed = 1;
nodes = (
(639,1625,o),
(696,1672,o),
(696,1741,cs),
(696,1802,o),
(652,1846,o),
(587,1846,cs),
(516,1846,o),
(462,1793,o),
(462,1726,cs),
(462,1667,o),
(506,1625,o),
(572,1625,cs)
);
},
{
closed = 1;
nodes = (
(1005,1625,o),
(1059,1675,o),
(1059,1743,cs),
(1059,1801,o),
(1015,1846,o),
(949,1846,cs),
(879,1846,o),
(824,1793,o),
(824,1724,cs),
(824,1667,o),
(869,1625,o),
(934,1625,cs)
);
}
);
width = 1278;
},
{
anchors = (
{
name = bottom;
pos = (607,0);
},
{
name = ogonek;
pos = (1093,0);
},
{
name = top;
pos = (760,1903);
},
{
name = topleft;
pos = (257,1510);
}
);
layerId = m014;
shapes = (
{
closed = 1;
nodes = (
(1093,0,l),
(1110,244,l),
(346,244,l),
(451,140,l),
(494,762,l),
(375,652,l),
(1039,652,l),
(1056,896,l),
(392,896,l),
(496,786,l),
(537,1370,l),
(418,1266,l),
(1182,1266,l),
(1199,1510,l),
(257,1510,l),
(151,0,l)
);
},
{
closed = 1;
nodes = (
(633,1621,o),
(703,1677,o),
(703,1761,cs),
(703,1835,o),
(648,1888,o),
(570,1888,cs),
(485,1888,o),
(418,1825,o),
(418,1743,cs),
(418,1672,o),
(472,1621,o),
(551,1621,cs)
);
},
{
closed = 1;
nodes = (
(1016,1621,o),
(1081,1681,o),
(1081,1763,cs),
(1081,1834,o),
(1028,1888,o),
(948,1888,cs),
(863,1888,o),
(796,1824,o),
(796,1741,cs),
(796,1672,o),
(851,1621,o),
(929,1621,cs)
);
}
);
width = 1300;
},
{
anchors = (
{
name = bottom;
pos = (784,0);
},
{
name = ogonek;
pos = (1319,0);
},
{
name = top;
pos = (883,1846);
},
{
name = topleft;
pos = (83,1510);
}
);
layerId = m003;
shapes = (
{
closed = 1;
nodes = (
(1319,0,l),
(1331,168,l),
(329,168,l),
(381,96,l),
(428,766,l),
(365,690,l),
(1212,690,l),
(1224,858,l),
(377,858,l),
(429,782,l),
(473,1414,l),
(411,1342,l),
(1397,1342,l),
(1409,1510,l),
(289,1510,l),
(183,0,l)
);
},
{
closed = 1;
nodes = (
(726,1657,o),
(784,1704,o),
(784,1773,cs),
(784,1834,o),
(739,1878,o),
(674,1878,cs),
(604,1878,o),
(549,1826,o),
(549,1758,cs),
(549,1699,o),
(593,1657,o),
(659,1657,cs)
);
},
{
closed = 1;
nodes = (
(1152,1657,o),
(1206,1707,o),
(1206,1775,cs),
(1206,1833,o),
(1162,1878,o),
(1096,1878,cs),
(1026,1878,o),
(971,1825,o),
(971,1756,cs),
(971,1699,o),
(1016,1657,o),
(1081,1657,cs)
);
}
);
width = 1472;
},
{
anchors = (
{
name = bottom;
pos = (757,0);
},
{
name = ogonek;
pos = (1293,0);
},
{
name = top;
pos = (868,1903);
},
{
name = topleft;
pos = (257,1510);
}
);
layerId = m004;
shapes = (
{
closed = 1;
nodes = (
(1293,0,l),
(1310,244,l),
(352,244,l),
(450,140,l),
(493,762,l),
(381,652,l),
(1204,652,l),
(1221,896,l),
(398,896,l),
(495,786,l),
(536,1370,l),
(424,1266,l),
(1376,1266,l),
(1393,1510,l),
(257,1510,l),
(151,0,l)
);
},
{
closed = 1;
nodes = (
(711,1621,o),
(781,1677,o),
(781,1761,cs),
(781,1835,o),
(726,1888,o),
(648,1888,cs),
(563,1888,o),
(496,1825,o),
(496,1743,cs),
(496,1672,o),
(550,1621,o),
(629,1621,cs)
);
},
{
closed = 1;
nodes = (
(1154,1621,o),
(1219,1681,o),
(1219,1763,cs),
(1219,1834,o),
(1166,1888,o),
(1086,1888,cs),
(1001,1888,o),
(934,1824,o),
(934,1741,cs),
(934,1672,o),
(989,1621,o),
(1067,1621,cs)
);
}
);
width = 1494;
}
);
unicode = 203;
},
{
color = 4;
glyphname = Edotaccent;
kernLeft = KO_H;
kernRight = KO_E;
lastChange = "2022-03-23 22:41:43 +0000";
layers = (
{
anchors = (
{
name = bottom;
pos = (615,0);
},
{
name = ogonek;
pos = (1119,0);
},
{
name = top;
pos = (775,1939);
},
{
name = topleft;
pos = (131,1510);
}
);
layerId = "FC837317-1536-49E4-8B36-958C77713550";
shapes = (
{
closed = 1;
nodes = (
(1119,0,l),
(1131,168,l),
(323,168,l),
(382,96,l),
(429,766,l),
(359,690,l),
(1047,690,l),
(1059,858,l),
(371,858,l),
(430,782,l),
(474,1414,l),
(405,1342,l),
(1203,1342,l),
(1215,1510,l),
(289,1510,l),
(183,0,l)
);
},
{
closed = 1;
nodes = (
(829,1618,o),
(884,1670,o),
(884,1741,cs),
(884,1803,o),
(839,1849,o),
(769,1849,cs),
(695,1849,o),
(638,1795,o),
(638,1723,cs),
(638,1661,o),
(686,1618,o),
(754,1618,cs)
);
}
);
width = 1278;
},
{
anchors = (
{
name = bottom;
pos = (607,0);
},
{
name = ogonek;
pos = (1093,0);
},
{
name = top;
pos = (763,1939);
},
{
name = topleft;
pos = (257,1510);
}
);
layerId = m014;
shapes = (
{
closed = 1;
nodes = (
(1093,0,l),
(1110,244,l),
(346,244,l),
(451,140,l),
(494,762,l),
(375,652,l),
(1039,652,l),
(1056,896,l),
(392,896,l),
(496,786,l),
(537,1370,l),
(418,1266,l),
(1182,1266,l),
(1199,1510,l),
(257,1510,l),
(151,0,l)
);
},
{
closed = 1;
nodes = (
(833,1605,o),
(899,1668,o),
(899,1754,cs),
(899,1829,o),
(844,1884,o),
(760,1884,cs),
(669,1884,o),
(601,1818,o),
(601,1732,cs),
(601,1657,o),
(659,1605,o),
(741,1605,cs)
);
}
);
width = 1300;
},
{
anchors = (
{
name = bottom;
pos = (784,0);
},
{
name = ogonek;
pos = (1319,0);
},
{
name = top;
pos = (890,1939);
},
{
name = topleft;
pos = (83,1510);
}
);
layerId = m003;
shapes = (
{
closed = 1;
nodes = (
(1319,0,l),
(1331,168,l),
(329,168,l),
(381,96,l),
(428,766,l),
(365,690,l),
(1212,690,l),
(1224,858,l),
(377,858,l),
(429,782,l),
(473,1414,l),
(411,1342,l),
(1397,1342,l),
(1409,1510,l),
(289,1510,l),
(183,0,l)
);
},
{
closed = 1;
nodes = (
(947,1657,o),
(1002,1709,o),
(1002,1780,cs),
(1002,1842,o),
(957,1888,o),
(887,1888,cs),
(812,1888,o),
(756,1833,o),
(756,1762,cs),
(756,1700,o),
(803,1657,o),
(872,1657,cs)
);
}
);
width = 1472;
},
{
anchors = (
{
name = bottom;
pos = (757,0);
},
{
name = ogonek;
pos = (1293,0);
},
{
name = top;
pos = (871,1939);
},
{
name = topleft;
pos = (257,1510);
}
);
layerId = m004;
shapes = (
{
closed = 1;
nodes = (
(1293,0,l),
(1310,244,l),
(352,244,l),
(450,140,l),
(493,762,l),
(381,652,l),
(1204,652,l),
(1221,896,l),
(398,896,l),
(495,786,l),
(536,1370,l),
(424,1266,l),
(1376,1266,l),
(1393,1510,l),
(257,1510,l),
(151,0,l)
);
},
{
closed = 1;
nodes = (
(941,1605,o),
(1007,1668,o),
(1007,1754,cs),
(1007,1829,o),
(952,1884,o),
(868,1884,cs),
(777,1884,o),
(709,1818,o),
(709,1732,cs),
(709,1657,o),
(767,1605,o),
(849,1605,cs)
);
}
);
width = 1494;
}
);
unicode = 278;
},
{
color = 4;
glyphname = Egrave;
kernLeft = KO_H;
kernRight = KO_E;
lastChange = "2022-03-23 22:41:43 +0000";
layers = (
{
anchors = (
{
name = bottom;
pos = (615,0);
},
{
name = ogonek;
pos = (1119,0);
},
{
name = top;
pos = (703,1836);
},
{
name = topleft;
pos = (131,1510);
}
);
layerId = "FC837317-1536-49E4-8B36-958C77713550";
shapes = (
{
closed = 1;
nodes = (
(1119,0,l),
(1131,168,l),
(323,168,l),
(382,96,l),
(429,766,l),
(359,690,l),
(1047,690,l),
(1059,858,l),
(371,858,l),
(430,782,l),
(474,1414,l),
(405,1342,l),
(1203,1342,l),
(1215,1510,l),
(289,1510,l),
(183,0,l)
);
},
{
closed = 1;
nodes = (
(710,1844,l),
(473,1844,l),
(742,1612,l),
(918,1612,l)
);
}
);
width = 1278;
},
{
anchors = (
{
name = bottom;
pos = (607,0);
},
{
name = ogonek;
pos = (1093,0);
},
{
name = top;
pos = (682,1904);
},
{
name = topleft;
pos = (257,1510);
}
);
layerId = m014;
shapes = (
{
closed = 1;
nodes = (
(1093,0,l),
(1110,244,l),
(346,244,l),
(451,140,l),
(494,762,l),
(375,652,l),
(1039,652,l),
(1056,896,l),
(392,896,l),
(496,786,l),
(537,1370,l),
(418,1266,l),
(1182,1266,l),
(1199,1510,l),
(257,1510,l),
(151,0,l)
);
},
{
closed = 1;
nodes = (
(687,1868,l),
(401,1868,l),
(728,1628,l),
(941,1628,l)
);
}
);
width = 1300;
},
{
anchors = (
{
name = bottom;
pos = (784,0);
},
{
name = ogonek;
pos = (1319,0);
},
{
name = top;
pos = (883,1848);
},
{
name = topleft;
pos = (83,1510);
}
);
layerId = m003;
shapes = (
{
closed = 1;
nodes = (
(1319,0,l),
(1331,168,l),
(329,168,l),
(381,96,l),
(428,766,l),
(365,690,l),
(1212,690,l),
(1224,858,l),
(377,858,l),
(429,782,l),
(473,1414,l),
(411,1342,l),
(1397,1342,l),
(1409,1510,l),
(289,1510,l),
(183,0,l)
);
},
{
closed = 1;
nodes = (
(866,1848,l),
(559,1848,l),
(962,1616,l),
(1190,1616,l)
);
}
);
width = 1472;
},
{
anchors = (
{
name = bottom;
pos = (757,0);
},
{
name = ogonek;
pos = (1293,0);
},
{
name = top;
pos = (866,1868);
},
{
name = topleft;
pos = (257,1510);
}
);
layerId = m004;
shapes = (
{
closed = 1;
nodes = (
(1293,0,l),
(1310,244,l),
(352,244,l),
(450,140,l),
(493,762,l),
(381,652,l),
(1204,652,l),
(1221,896,l),
(398,896,l),
(495,786,l),
(536,1370,l),
(424,1266,l),
(1376,1266,l),
(1393,1510,l),
(257,1510,l),
(151,0,l)
);
},
{
closed = 1;
nodes = (
(854,1868,l),
(465,1868,l),
(837,1628,l),
(1117,1628,l)
);
}
);
width = 1494;
}
);
unicode = 200;
},
{
color = 4;
glyphname = Emacron;
kernLeft = KO_H;
kernRight = KO_E;
lastChange = "2022-03-23 22:41:43 +0000";
layers = (
{
anchors = (
{
name = bottom;
pos = (615,0);
},
{
name = ogonek;
pos = (1119,0);
},
{
name = top;
pos = (763,1778);
},
{
name = topleft;
pos = (131,1510);
}
);
layerId = "FC837317-1536-49E4-8B36-958C77713550";
shapes = (
{
closed = 1;
nodes = (
(1119,0,l),
(1131,168,l),
(323,168,l),
(382,96,l),
(429,766,l),
(359,690,l),
(1047,690,l),
(1059,858,l),
(371,858,l),
(430,782,l),
(474,1414,l),
(405,1342,l),
(1203,1342,l),
(1215,1510,l),
(289,1510,l),
(183,0,l)
);
},
{
closed = 1;
nodes = (
(1075,1641,l),
(1084,1778,l),
(442,1778,l),
(433,1641,l)
);
}
);
width = 1278;
},
{
anchors = (
{
name = bottom;
pos = (607,0);
},
{
name = ogonek;
pos = (1093,0);
},
{
name = top;
pos = (755,1834);
},
{
name = topleft;
pos = (257,1510);
}
);
layerId = m014;
shapes = (
{
closed = 1;
nodes = (
(1093,0,l),
(1110,244,l),
(346,244,l),
(451,140,l),
(494,762,l),
(375,652,l),
(1039,652,l),
(1056,896,l),
(392,896,l),
(496,786,l),
(537,1370,l),
(418,1266,l),
(1182,1266,l),
(1199,1510,l),
(257,1510,l),
(151,0,l)
);
},
{
closed = 1;
nodes = (
(1132,1669,l),
(1143,1834,l),
(367,1834,l),
(356,1669,l)
);
}
);
width = 1300;
},
{
anchors = (
{
name = bottom;
pos = (784,0);
},
{
name = ogonek;
pos = (1319,0);
},
{
name = top;
pos = (878,1778);
},
{
name = topleft;
pos = (83,1510);
}
);
layerId = m003;
shapes = (
{
closed = 1;
nodes = (
(1319,0,l),
(1331,168,l),
(329,168,l),
(381,96,l),
(428,766,l),
(365,690,l),
(1212,690,l),
(1224,858,l),
(377,858,l),
(429,782,l),
(473,1414,l),
(411,1342,l),
(1397,1342,l),
(1409,1510,l),
(289,1510,l),
(183,0,l)
);
},
{
closed = 1;
nodes = (
(1253,1641,l),
(1262,1778,l),
(494,1778,l),
(485,1641,l)
);
}
);
width = 1472;
},
{
anchors = (
{
name = bottom;
pos = (757,0);
},
{
name = ogonek;
pos = (1293,0);
},
{
name = top;
pos = (863,1834);
},
{
name = topleft;
pos = (257,1510);
}
);
layerId = m004;
shapes = (
{
closed = 1;
nodes = (
(1293,0,l),
(1310,244,l),
(352,244,l),
(450,140,l),
(493,762,l),
(381,652,l),
(1204,652,l),
(1221,896,l),
(398,896,l),
(495,786,l),
(536,1370,l),
(424,1266,l),
(1376,1266,l),
(1393,1510,l),
(257,1510,l),
(151,0,l)
);
},
{
closed = 1;
nodes = (
(1289,1669,l),
(1300,1834,l),
(426,1834,l),
(415,1669,l)
);
}
);
width = 1494;
}
);
unicode = 274;
},
{
color = 4;
glyphname = Eogonek;
kernLeft = KO_H;
kernRight = KO_E;
lastChange = "2022-03-23 22:41:43 +0000";
layers = (
{
anchors = (
{
name = bottom;
pos = (615,0);
},
{
name = ogonek;
pos = (1119,0);
},
{
name = top;
pos = (745,1510);
},
{
name = topleft;
pos = (131,1510);
}
);
layerId = "FC837317-1536-49E4-8B36-958C77713550";
shapes = (
{
closed = 1;
nodes = (
(1119,0,l),
(1131,168,l),
(323,168,l),
(382,96,l),
(429,766,l),
(359,690,l),
(1047,690,l),
(1059,858,l),
(371,858,l),
(430,782,l),
(474,1414,l),
(405,1342,l),
(1203,1342,l),
(1215,1510,l),
(289,1510,l),
(183,0,l)
);
},
{
closed = 1;
nodes = (
(991,-400,o),
(1038,-387,o),
(1080,-361,c),
(1089,-235,l),
(1056,-255,o),
(1013,-270,o),
(975,-270,cs),
(925,-270,o),
(887,-244,o),
(887,-196,cs),
(887,-122,o),
(971,-50,o),
(1119,0,c),
(940,0,l),
(796,-32,o),
(720,-133,o),
(720,-231,cs),
(720,-332,o),
(807,-400,o),
(935,-400,cs)
);
}
);
width = 1278;
},
{
anchors = (
{
name = bottom;
pos = (607,0);
},
{
name = ogonek;
pos = (1093,0);
},
{
name = top;
pos = (733,1510);
},
{
name = topleft;
pos = (257,1510);
}
);
layerId = m014;
shapes = (
{
closed = 1;
nodes = (
(1093,0,l),
(1110,244,l),
(346,244,l),
(451,140,l),
(494,762,l),
(375,652,l),
(1039,652,l),
(1056,896,l),
(392,896,l),
(496,786,l),
(537,1370,l),
(418,1266,l),
(1182,1266,l),
(1199,1510,l),
(257,1510,l),
(151,0,l)
);
},
{
closed = 1;
nodes = (
(939,-484,o),
(995,-468,o),
(1045,-437,c),
(1056,-284,l),
(1017,-309,o),
(966,-327,o),
(919,-327,cs),
(859,-327,o),
(812,-296,o),
(812,-237,cs),
(812,-147,o),
(915,-60,o),
(1093,0,c),
(877,0,l),
(702,-39,o),
(611,-162,o),
(611,-279,cs),
(611,-401,o),
(715,-484,o),
(870,-484,cs)
);
}
);
width = 1300;
},
{
anchors = (
{
name = bottom;
pos = (784,0);
},
{
name = ogonek;
pos = (1319,0);
},
{
name = top;
pos = (860,1510);
},
{
name = topleft;
pos = (83,1510);
}
);
layerId = m003;
shapes = (
{
closed = 1;
nodes = (
(1319,0,l),
(1331,168,l),
(329,168,l),
(381,96,l),
(428,766,l),
(365,690,l),
(1212,690,l),
(1224,858,l),
(377,858,l),
(429,782,l),
(473,1414,l),
(411,1342,l),
(1397,1342,l),
(1409,1510,l),
(289,1510,l),
(183,0,l)
);
},
{
closed = 1;
nodes = (
(1165,-400,o),
(1224,-387,o),
(1277,-361,c),
(1286,-235,l),
(1244,-255,o),
(1190,-270,o),
(1142,-270,cs),
(1079,-270,o),
(1029,-244,o),
(1029,-194,cs),
(1029,-120,o),
(1134,-50,o),
(1319,0,c),
(1135,0,l),
(917,-32,o),
(818,-132,o),
(818,-231,cs),
(818,-330,o),
(929,-400,o),
(1094,-400,cs)
);
}
);
width = 1472;
},
{
anchors = (
{
name = bottom;
pos = (757,0);
},
{
name = ogonek;
pos = (1293,0);
},
{
name = top;
pos = (841,1510);
},
{
name = topleft;
pos = (257,1510);
}
);
layerId = m004;
shapes = (
{
closed = 1;
nodes = (
(1293,0,l),
(1310,244,l),
(352,244,l),
(450,140,l),
(493,762,l),
(381,652,l),
(1204,652,l),
(1221,896,l),
(398,896,l),
(495,786,l),
(536,1370,l),
(424,1266,l),
(1376,1266,l),
(1393,1510,l),
(257,1510,l),
(151,0,l)
);
},
{
closed = 1;
nodes = (
(1120,-484,o),
(1186,-468,o),
(1243,-437,c),
(1254,-284,l),
(1209,-309,o),
(1151,-327,o),
(1097,-327,cs),
(1027,-327,o),
(973,-295,o),
(973,-236,cs),
(973,-147,o),
(1090,-60,o),
(1293,0,c),
(1045,0,l),
(845,-39,o),
(743,-161,o),
(743,-278,cs),
(743,-400,o),
(863,-484,o),
(1042,-484,cs)
);
}
);
width = 1494;
}
);
unicode = 280;
},
{
color = 4;
glyphname = Etilde;
kernLeft = KO_H;
kernRight = KO_E;
lastChange = "2022-03-23 22:41:43 +0000";
layers = (
{
anchors = (
{
name = bottom;
pos = (615,0);
},
{
name = ogonek;
pos = (1119,0);
},
{
name = top;
pos = (769,1852);
},
{
name = topleft;
pos = (131,1510);
}
);
layerId = "FC837317-1536-49E4-8B36-958C77713550";
shapes = (
{
closed = 1;
nodes = (
(1119,0,l),
(1131,168,l),
(323,168,l),
(382,96,l),
(429,766,l),
(359,690,l),
(1047,690,l),
(1059,858,l),
(371,858,l),
(430,782,l),
(474,1414,l),
(405,1342,l),
(1203,1342,l),
(1215,1510,l),
(289,1510,l),
(183,0,l)
);
},
{
closed = 1;
nodes = (
(608,1611,l),
(603,1630,o),
(601,1649,o),
(601,1667,cs),
(601,1716,o),
(614,1728,o),
(635,1728,cs),
(704,1728,o),
(803,1594,o),
(905,1594,cs),
(981,1594,o),
(1057,1669,o),
(1065,1793,cs),
(1065,1793,o),
(1067,1816,o),
(1068,1842,c),
(920,1842,l),
(920,1840,o),
(920,1837,o),
(920,1835,cs),
(920,1726,o),
(906,1725,o),
(888,1725,cs),
(819,1725,o),
(763,1859,o),
(631,1859,cs),
(532,1859,o),
(455,1785,o),
(455,1652,cs),
(455,1639,o),
(455,1626,o),
(456,1611,c)
);
}
);
width = 1278;
},
{
anchors = (
{
name = bottom;
pos = (607,0);
},
{
name = ogonek;
pos = (1093,0);
},
{
name = top;
pos = (761,1923);
},
{
name = topleft;
pos = (257,1510);
}
);
layerId = m014;
shapes = (
{
closed = 1;
nodes = (
(1093,0,l),
(1110,244,l),
(346,244,l),
(451,140,l),
(494,762,l),
(375,652,l),
(1039,652,l),
(1056,896,l),
(392,896,l),
(496,786,l),
(537,1370,l),
(418,1266,l),
(1182,1266,l),
(1199,1510,l),
(257,1510,l),
(151,0,l)
);
},
{
closed = 1;
nodes = (
(594,1587,l),
(588,1602,o),
(584,1622,o),
(584,1640,cs),
(584,1670,o),
(598,1684,o),
(627,1684,cs),
(710,1684,o),
(805,1567,o),
(911,1567,cs),
(1001,1567,o),
(1097,1655,o),
(1107,1799,cs),
(1107,1799,o),
(1109,1826,o),
(1110,1856,c),
(911,1856,l),
(911,1843,o),
(911,1830,o),
(911,1819,cs),
(911,1773,o),
(902,1759,o),
(871,1759,cs),
(790,1759,o),
(737,1876,o),
(603,1876,cs),
(487,1876,o),
(388,1790,o),
(388,1634,cs),
(388,1620,o),
(389,1602,o),
(390,1587,c)
);
}
);
width = 1300;
},
{
anchors = (
{
name = bottom;
pos = (784,0);
},
{
name = ogonek;
pos = (1319,0);
},
{
name = top;
pos = (884,1852);
},
{
name = topleft;
pos = (83,1510);
}
);
layerId = m003;
shapes = (
{
closed = 1;
nodes = (
(1319,0,l),
(1331,168,l),
(329,168,l),
(381,96,l),
(428,766,l),
(365,690,l),
(1212,690,l),
(1224,858,l),
(377,858,l),
(429,782,l),
(473,1414,l),
(411,1342,l),
(1397,1342,l),
(1409,1510,l),
(289,1510,l),
(183,0,l)
);
},
{
closed = 1;
nodes = (
(698,1611,l),
(693,1627,o),
(689,1648,o),
(689,1670,cs),
(689,1713,o),
(705,1728,o),
(748,1728,cs),
(824,1728,o),
(935,1594,o),
(1047,1594,cs),
(1136,1594,o),
(1224,1669,o),
(1232,1793,cs),
(1232,1793,o),
(1234,1816,o),
(1234,1842,c),
(1061,1842,l),
(1061,1833,o),
(1061,1825,o),
(1061,1816,cs),
(1061,1738,o),
(1053,1725,o),
(1005,1725,cs),
(929,1725,o),
(867,1859,o),
(723,1859,cs),
(609,1859,o),
(518,1786,o),
(518,1661,cs),
(518,1644,o),
(519,1627,o),
(520,1611,c)
);
}
);
width = 1472;
},
{
anchors = (
{
name = bottom;
pos = (757,0);
},
{
name = ogonek;
pos = (1293,0);
},
{
name = top;
pos = (869,1923);
},
{
name = topleft;
pos = (257,1510);
}
);
layerId = m004;
shapes = (
{
closed = 1;
nodes = (
(1293,0,l),
(1310,244,l),
(352,244,l),
(450,140,l),
(493,762,l),
(381,652,l),
(1204,652,l),
(1221,896,l),
(398,896,l),
(495,786,l),
(536,1370,l),
(424,1266,l),
(1376,1266,l),
(1393,1510,l),
(257,1510,l),
(151,0,l)
);
},
{
closed = 1;
nodes = (
(684,1587,l),
(676,1604,o),
(672,1627,o),
(672,1641,cs),
(672,1676,o),
(695,1684,o),
(720,1684,cs),
(814,1684,o),
(922,1567,o),
(1040,1567,cs),
(1142,1567,o),
(1250,1655,o),
(1260,1799,cs),
(1260,1799,o),
(1262,1826,o),
(1263,1856,c),
(1038,1856,l),
(1039,1841,o),
(1039,1826,o),
(1039,1814,cs),
(1039,1773,o),
(1028,1759,o),
(995,1759,cs),
(903,1759,o),
(842,1876,o),
(691,1876,cs),
(562,1876,o),
(452,1790,o),
(452,1643,cs),
(452,1626,o),
(453,1607,o),
(454,1587,c)
);
}
);
width = 1494;
}
);
unicode = 7868;
},
{
color = 8;
glyphname = Schwa;
kernRight = KO_O;
lastChange = "2022-03-23 22:41:48 +0000";
layers = (
{
layerId = "FC837317-1536-49E4-8B36-958C77713550";
shapes = (
{
closed = 1;
nodes = (
(998,-30,o),
(1249,309,o),
(1249,876,cs),
(1249,1319,o),
(1042,1527,o),
(683,1527,cs),
(444,1527,o),
(285,1435,o),
(185,1288,c),
(312,1164,l),
(376,1259,o),
(484,1356,o),
(679,1356,cs),
(932,1356,o),
(1045,1194,o),
(1045,874,cs),
(1045,412,o),
(891,144,o),
(625,144,cs),
(417,144,o),
(268,297,o),
(321,663,c),
(1131,660,l),
(1143,826,l),
(137,826,l),
(17,76,o),
(341,-30,o),
(580,-30,cs)
);
}
);
width = 1360;
},
{
layerId = m014;
shapes = (
{
closed = 1;
nodes = (
(1095,-30,o),
(1391,326,o),
(1391,850,cs),
(1391,1280,o),
(1150,1528,o),
(754,1528,cs),
(461,1528,o),
(247,1393,o),
(169,1175,c),
(409,1057,l),
(463,1189,o),
(580,1276,o),
(741,1276,cs),
(963,1276,o),
(1095,1113,o),
(1095,819,cs),
(1095,455,o),
(939,226,o),
(691,226,cs),
(427,226,o),
(368,478,o),
(401,606,c),
(1100,604,l),
(1117,841,l),
(157,841,l),
(-1,253,o),
(267,-30,o),
(661,-30,cs)
);
}
);
width = 1502;
},
{
layerId = m003;
shapes = (
{
closed = 1;
nodes = (
(1147,-30,o),
(1429,300,o),
(1429,863,cs),
(1429,1315,o),
(1189,1527,o),
(768,1527,cs),
(490,1527,o),
(303,1435,o),
(186,1288,c),
(313,1164,l),
(392,1259,o),
(526,1356,o),
(767,1356,cs),
(1085,1356,o),
(1225,1188,o),
(1225,856,cs),
(1225,399,o),
(1042,144,o),
(713,144,cs),
(453,144,o),
(262,297,o),
(322,663,c),
(1312,660,l),
(1324,826,l),
(138,826,l),
(6,76,o),
(389,-30,o),
(666,-30,cs)
);
}
);
width = 1540;
},
{
layerId = m004;
shapes = (
{
closed = 1;
nodes = (
(1243,-30,o),
(1574,319,o),
(1574,841,cs),
(1574,1276,o),
(1299,1528,o),
(843,1528,cs),
(509,1528,o),
(261,1393,o),
(173,1175,c),
(413,1057,l),
(480,1189,o),
(628,1276,o),
(830,1276,cs),
(1112,1276,o),
(1278,1108,o),
(1278,806,cs),
(1278,446,o),
(1089,226,o),
(780,226,cs),
(446,226,o),
(365,478,o),
(405,606,c),
(1284,604,l),
(1301,841,l),
(161,841,l),
(-16,253,o),
(298,-30,o),
(749,-30,cs)
);
}
);
width = 1685;
}
);
metricLeft = O;
metricRight = O;
unicode = 399;
},
{
color = 5;
glyphname = F;
kernLeft = KO_H;
kernRight = KO_F;
lastChange = "2022-03-23 22:41:43 +0000";
layers = (
{
anchors = (
{
name = bottom;
pos = (570,0);
},
{
name = top;
pos = (676,1510);
}
);
layerId = "FC837317-1536-49E4-8B36-958C77713550";
shapes = (
{
closed = 1;
nodes = (
(375,0,l),
(426,728,l),
(345,653,l),
(1043,653,l),
(1055,827,l),
(357,827,l),
(428,752,l),
(474,1414,l),
(392,1337,l),
(1180,1337,l),
(1193,1510,l),
(289,1510,l),
(183,0,l)
);
}
);
width = 1246;
},
{
anchors = (
{
name = bottom;
pos = (592,0);
},
{
name = top;
pos = (698,1510);
}
);
layerId = m014;
shapes = (
{
closed = 1;
nodes = (
(439,0,l),
(488,704,l),
(367,598,l),
(1023,598,l),
(1040,842,l),
(384,842,l),
(490,736,l),
(535,1372,l),
(414,1266,l),
(1210,1266,l),
(1227,1510,l),
(257,1510,l),
(151,0,l)
);
}
);
width = 1290;
},
{
anchors = (
{
name = bottom;
pos = (642,0);
},
{
name = top;
pos = (748,1510);
}
);
layerId = m003;
shapes = (
{
closed = 1;
nodes = (
(375,0,l),
(426,728,l),
(345,653,l),
(1246,653,l),
(1258,827,l),
(357,827,l),
(428,752,l),
(474,1414,l),
(392,1337,l),
(1380,1337,l),
(1393,1510,l),
(289,1510,l),
(183,0,l)
);
}
);
width = 1446;
},
{
anchors = (
{
name = bottom;
pos = (664,0);
},
{
name = top;
pos = (770,1510);
}
);
layerId = m004;
shapes = (
{
closed = 1;
nodes = (
(439,0,l),
(488,704,l),
(367,598,l),
(1226,598,l),
(1243,842,l),
(384,842,l),
(490,736,l),
(535,1372,l),
(414,1266,l),
(1410,1266,l),
(1427,1510,l),
(257,1510,l),
(151,0,l)
);
}
);
width = 1490;
}
);
metricLeft = "=H";
unicode = 70;
userData = {
KernOnName = F;
};
},
{
color = 5;
glyphname = G;
kernLeft = KO_G;
kernRight = KO_G;
lastChange = "2022-03-23 22:41:48 +0000";
layers = (
{
anchors = (
{
name = bottom;
pos = (697,0);
},
{
name = top;
pos = (803,1510);
}
);
background = {
shapes = (
{
angle = 180;
pos = (1553,1162);
ref = n;
}
);
};
layerId = "FC837317-1536-49E4-8B36-958C77713550";
shapes = (
{
closed = 1;
nodes = (
(940,-30,o),
(1098,92,o),
(1158,233,c),
(1163,233,l),
(1158,152,o),
(1155,88,o),
(1159,-4,c),
(1293,-4,l),
(1351,826,l),
(725,826,l),
(713,660,l),
(1206,663,l),
(1153,709,l),
(1127,343,l),
(1141,398,l),
(1083,270,o),
(960,144,o),
(725,144,cs),
(446,144,o),
(314,323,o),
(314,655,cs),
(314,1112,o),
(486,1356,o),
(810,1356,cs),
(1159,1356,o),
(1230,1171,o),
(1268,1064,c),
(1163,1112,l),
(1402,1318,l),
(1380,1266,l),
(1297,1426,o),
(1133,1527,o),
(867,1527,cs),
(377,1527,o),
(111,1222,o),
(111,662,cs),
(111,229,o),
(317,-30,o),
(692,-30,cs)
);
}
);
width = 1479;
},
{
anchors = (
{
name = bottom;
pos = (683,0);
},
{
name = top;
pos = (891,1510);
}
);
background = {
shapes = (
{
angle = 180;
pos = (1647,1106);
ref = n;
}
);
};
layerId = m014;
shapes = (
{
closed = 1;
nodes = (
(964,-30,o),
(1093,71,o),
(1156,204,c),
(1161,204,l),
(1161,107,o),
(1164,75,o),
(1176,-10,c),
(1356,-10,l),
(1415,841,l),
(795,841,l),
(779,604,l),
(1189,606,l),
(1162,653,l),
(1139,321,l),
(1156,354,l),
(1105,284,o),
(976,226,o),
(784,226,cs),
(537,226,o),
(404,388,o),
(404,673,cs),
(404,1041,o),
(579,1276,o),
(854,1276,cs),
(1059,1276,o),
(1180,1171,o),
(1202,1015,c),
(1149,1036,l),
(1481,1190,l),
(1459,1117,l),
(1435,1369,o),
(1218,1528,o),
(892,1528,cs),
(411,1528,o),
(111,1202,o),
(111,681,cs),
(111,255,o),
(345,-30,o),
(706,-30,cs)
);
}
);
width = 1561;
},
{
anchors = (
{
name = bottom;
pos = (880,20);
},
{
name = top;
pos = (905,1510);
}
);
background = {
shapes = (
{
closed = 1;
nodes = (
(948,-30,o),
(1198,14,o),
(1328,66,c),
(1328,826,l),
(722,826,l),
(722,654,l),
(1139,664,l),
(1146,197,l),
(1034,167,o),
(919,144,o),
(809,144,cs),
(476,144,o),
(340,355,o),
(340,749,cs),
(340,1166,o),
(492,1356,o),
(825,1356,cs),
(933,1356,o),
(1072,1336,o),
(1260,1302,c),
(1260,1480,l),
(1118,1512,o),
(986,1527,o),
(867,1527,cs),
(372,1527,o),
(136,1282,o),
(136,765,cs),
(136,269,o),
(354,-30,o),
(783,-30,cs)
);
},
{
closed = 1;
nodes = (
(948,-30,o),
(1198,14,o),
(1328,66,c),
(1328,826,l),
(722,826,l),
(722,654,l),
(1139,664,l),
(1146,197,l),
(1034,167,o),
(919,144,o),
(809,144,cs),
(476,144,o),
(340,355,o),
(340,749,cs),
(340,1166,o),
(492,1356,o),
(825,1356,cs),
(933,1356,o),
(1072,1336,o),
(1260,1302,c),
(1260,1480,l),
(1118,1512,o),
(986,1527,o),
(867,1527,cs),
(372,1527,o),
(136,1282,o),
(136,765,cs),
(136,269,o),
(354,-30,o),
(783,-30,cs)
);
}
);
};
layerId = m003;
shapes = (
{
closed = 1;
nodes = (
(1044,-30,o),
(1272,84,o),
(1337,236,c),
(1340,236,l),
(1342,151,o),
(1346,75,o),
(1353,-9,c),
(1492,-9,l),
(1551,826,l),
(809,826,l),
(797,660,l),
(1396,662,l),
(1337,709,l),
(1311,343,l),
(1325,398,l),
(1260,274,o),
(1065,144,o),
(830,144,cs),
(473,144,o),
(319,334,o),
(319,669,cs),
(319,1122,o),
(518,1356,o),
(902,1356,cs),
(1248,1356,o),
(1401,1202,o),
(1484,1027,c),
(1357,1111,l),
(1591,1319,l),
(1576,1266,l),
(1456,1407,o),
(1286,1527,o),
(946,1527,cs),
(408,1527,o),
(111,1223,o),
(111,670,cs),
(111,233,o),
(348,-30,o),
(802,-30,cs)
);
}
);
width = 1667;
},
{
anchors = (
{
name = bottom;
pos = (839,0);
},
{
name = top;
pos = (1014,1510);
}
);
background = {
shapes = (
{
closed = 1;
nodes = (
(1038,-30,o),
(1293,14,o),
(1432,66,c),
(1388,306,l),
(1223,262,o),
(1044,220,o),
(890,220,cs),
(576,220,o),
(450,404,o),
(450,748,cs),
(450,1110,o),
(594,1276,o),
(913,1276,cs),
(1026,1276,o),
(1170,1256,o),
(1364,1222,c),
(1364,1480,l),
(1182,1520,o),
(1024,1528,o),
(932,1528,cs),
(418,1528,o),
(156,1269,o),
(156,762,cs),
(156,272,o),
(396,-30,o),
(855,-30,cs)
);
},
{
closed = 1;
nodes = (
(1432,66,l),
(1432,866,l),
(1142,866,l),
(1166,66,l)
);
},
{
closed = 1;
nodes = (
(1274,634,l),
(1274,866,l),
(812,866,l),
(812,622,l)
);
},
{
closed = 1;
nodes = (
(1009,-30,o),
(1259,74,o),
(1353,292,c),
(1142,442,l),
(1142,426,o),
(1034,227,o),
(834,227,cs),
(592,227,o),
(456,413,o),
(456,746,cs),
(456,1127,o),
(618,1273,o),
(832,1273,cs),
(1069,1273,o),
(1101,1060,o),
(1101,1047,c),
(1353,1143,l),
(1291,1419,o),
(1114,1531,o),
(849,1531,cs),
(421,1531,o),
(156,1248,o),
(156,750,cs),
(156,239,o),
(434,-30,o),
(814,-30,cs)
);
}
);
};
layerId = m004;
shapes = (
{
closed = 1;
nodes = (
(1043,-30,o),
(1295,49,o),
(1347,226,c),
(1353,226,l),
(1355,130,o),
(1357,104,o),
(1372,-10,c),
(1563,-10,l),
(1622,841,l),
(882,841,l),
(866,604,l),
(1387,607,l),
(1352,653,l),
(1332,371,l),
(1351,424,l),
(1280,304,o),
(1097,226,o),
(887,226,cs),
(576,226,o),
(409,388,o),
(409,687,cs),
(409,1060,o),
(613,1276,o),
(964,1276,cs),
(1240,1276,o),
(1424,1145,o),
(1406,866,c),
(1223,986,l),
(1715,1347,l),
(1646,1118,l),
(1578,1385,o),
(1358,1528,o),
(1015,1528,cs),
(457,1528,o),
(111,1206,o),
(111,684,cs),
(111,251,o),
(383,-30,o),
(812,-30,cs)
);
}
);
width = 1733;
}
);
metricLeft = "=O";
metricRight = O;
unicode = 71;
userData = {
KernOnName = G;
};
},
{
color = 4;
glyphname = Gbreve;
kernLeft = KO_G;
kernRight = KO_G;
lastChange = "2022-03-23 22:41:43 +0000";
layers = (
{
anchors = (
{
name = bottom;
pos = (697,0);
},
{
name = top;
pos = (826,1840);
}
);
layerId = "FC837317-1536-49E4-8B36-958C77713550";
shapes = (
{
closed = 1;
nodes = (
(940,-30,o),
(1098,92,o),
(1158,233,c),
(1163,233,l),
(1158,152,o),
(1155,88,o),
(1159,-4,c),
(1293,-4,l),
(1351,826,l),
(725,826,l),
(713,660,l),
(1206,663,l),
(1153,709,l),
(1127,343,l),
(1141,398,l),
(1083,270,o),
(960,144,o),
(725,144,cs),
(446,144,o),
(314,323,o),
(314,655,cs),
(314,1112,o),
(486,1356,o),
(810,1356,cs),
(1159,1356,o),
(1230,1171,o),
(1268,1064,c),
(1163,1112,l),
(1402,1318,l),
(1380,1266,l),
(1297,1426,o),
(1133,1527,o),
(867,1527,cs),
(377,1527,o),
(111,1222,o),
(111,662,cs),
(111,229,o),
(317,-30,o),
(692,-30,cs)
);
},
{
closed = 1;
nodes = (
(992,1593,o),
(1116,1702,o),
(1097,1856,c),
(943,1856,l),
(959,1770,o),
(911,1724,o),
(818,1724,cs),
(724,1724,o),
(683,1770,o),
(711,1856,c),
(557,1856,l),
(516,1702,o),
(625,1593,o),
(809,1593,cs)
);
}
);
width = 1496;
},
{
anchors = (
{
name = bottom;
pos = (683,0);
},
{
name = top;
pos = (919,1909);
}
);
layerId = m014;
shapes = (
{
closed = 1;
nodes = (
(964,-30,o),
(1093,71,o),
(1156,204,c),
(1161,204,l),
(1161,107,o),
(1164,75,o),
(1176,-10,c),
(1356,-10,l),
(1415,841,l),
(795,841,l),
(779,604,l),
(1189,606,l),
(1162,653,l),
(1139,321,l),
(1156,354,l),
(1105,284,o),
(976,226,o),
(784,226,cs),
(537,226,o),
(404,388,o),
(404,673,cs),
(404,1041,o),
(579,1276,o),
(854,1276,cs),
(1059,1276,o),
(1180,1171,o),
(1202,1015,c),
(1149,1036,l),
(1481,1190,l),
(1459,1117,l),
(1435,1369,o),
(1218,1528,o),
(892,1528,cs),
(411,1528,o),
(111,1202,o),
(111,681,cs),
(111,255,o),
(345,-30,o),
(706,-30,cs)
);
},
{
closed = 1;
nodes = (
(1086,1600,o),
(1226,1711,o),
(1203,1869,c),
(1016,1869,l),
(1034,1794,o),
(986,1753,o),
(908,1753,cs),
(830,1753,o),
(788,1794,o),
(816,1869,c),
(629,1869,l),
(584,1711,o),
(709,1600,o),
(897,1600,cs)
);
}
);
width = 1562;
},
{
anchors = (
{
name = bottom;
pos = (880,20);
},
{
name = top;
pos = (928,1840);
}
);
layerId = m003;
shapes = (
{
closed = 1;
nodes = (
(1044,-30,o),
(1272,84,o),
(1337,236,c),
(1340,236,l),
(1342,151,o),
(1346,75,o),
(1353,-9,c),
(1492,-9,l),
(1551,826,l),
(809,826,l),
(797,660,l),
(1396,662,l),
(1337,709,l),
(1311,343,l),
(1325,398,l),
(1260,274,o),
(1065,144,o),
(830,144,cs),
(473,144,o),
(319,334,o),
(319,669,cs),
(319,1122,o),
(518,1356,o),
(902,1356,cs),
(1248,1356,o),
(1401,1202,o),
(1484,1027,c),
(1357,1111,l),
(1591,1319,l),
(1576,1266,l),
(1456,1407,o),
(1286,1527,o),
(946,1527,cs),
(408,1527,o),
(111,1223,o),
(111,670,cs),
(111,233,o),
(348,-30,o),
(802,-30,cs)
);
},
{
closed = 1;
nodes = (
(1139,1593,o),
(1291,1702,o),
(1265,1856,c),
(1073,1856,l),
(1094,1762,o),
(1036,1712,o),
(919,1712,cs),
(803,1712,o),
(750,1762,o),
(785,1856,c),
(593,1856,l),
(545,1702,o),
(682,1593,o),
(910,1593,cs)
);
}
);
width = 1696;
},
{
anchors = (
{
name = bottom;
pos = (839,0);
},
{
name = top;
pos = (1042,1909);
}
);
layerId = m004;
shapes = (
{
closed = 1;
nodes = (
(1043,-30,o),
(1295,49,o),
(1347,226,c),
(1353,226,l),
(1355,130,o),
(1357,104,o),
(1372,-10,c),
(1563,-10,l),
(1622,841,l),
(882,841,l),
(866,604,l),
(1387,607,l),
(1352,653,l),
(1332,371,l),
(1351,424,l),
(1280,304,o),
(1097,226,o),
(887,226,cs),
(576,226,o),
(409,388,o),
(409,687,cs),
(409,1060,o),
(613,1276,o),
(964,1276,cs),
(1240,1276,o),
(1424,1145,o),
(1406,866,c),
(1223,986,l),
(1715,1347,l),
(1646,1118,l),
(1578,1385,o),
(1358,1528,o),
(1015,1528,cs),
(457,1528,o),
(111,1206,o),
(111,684,cs),
(111,251,o),
(383,-30,o),
(812,-30,cs)
);
},
{
closed = 1;
nodes = (
(1241,1600,o),
(1404,1711,o),
(1375,1869,c),
(1156,1869,l),
(1178,1794,o),
(1122,1753,o),
(1031,1753,cs),
(940,1753,o),
(890,1794,o),
(922,1869,c),
(703,1869,l),
(652,1711,o),
(800,1600,o),
(1020,1600,cs)
);
}
);
width = 1769;
}
);
unicode = 286;
},
{
color = 4;
glyphname = Gcommaaccent;
kernLeft = KO_G;
kernRight = KO_G;
lastChange = "2022-03-23 22:41:43 +0000";
layers = (
{
anchors = (
{
name = bottom;
pos = (664,-481);
},
{
name = top;
pos = (803,1510);
}
);
layerId = "FC837317-1536-49E4-8B36-958C77713550";
shapes = (
{
closed = 1;
nodes = (
(940,-30,o),
(1098,92,o),
(1158,233,c),
(1163,233,l),
(1158,152,o),
(1155,88,o),
(1159,-4,c),
(1293,-4,l),
(1351,826,l),
(725,826,l),
(713,660,l),
(1206,663,l),
(1153,709,l),
(1127,343,l),
(1141,398,l),
(1083,270,o),
(960,144,o),
(725,144,cs),
(446,144,o),
(314,323,o),
(314,655,cs),
(314,1112,o),
(486,1356,o),
(810,1356,cs),
(1159,1356,o),
(1230,1171,o),
(1268,1064,c),
(1163,1112,l),
(1402,1318,l),
(1380,1266,l),
(1297,1426,o),
(1133,1527,o),
(867,1527,cs),
(377,1527,o),
(111,1222,o),
(111,662,cs),
(111,229,o),
(317,-30,o),
(692,-30,cs)
);
},
{
closed = 1;
nodes = (
(668,-421,l),
(853,-95,l),
(658,-95,l),
(506,-421,l)
);
}
);
width = 1496;
},
{
anchors = (
{
name = bottom;
pos = (650,-481);
},
{
name = top;
pos = (891,1510);
}
);
layerId = m014;
shapes = (
{
closed = 1;
nodes = (
(964,-30,o),
(1093,71,o),
(1156,204,c),
(1161,204,l),
(1161,107,o),
(1164,75,o),
(1176,-10,c),
(1356,-10,l),
(1415,841,l),
(795,841,l),
(779,604,l),
(1189,606,l),
(1162,653,l),
(1139,321,l),
(1156,354,l),
(1105,284,o),
(976,226,o),
(784,226,cs),
(537,226,o),
(404,388,o),
(404,673,cs),
(404,1041,o),
(579,1276,o),
(854,1276,cs),
(1059,1276,o),
(1180,1171,o),
(1202,1015,c),
(1149,1036,l),
(1481,1190,l),
(1459,1117,l),
(1435,1369,o),
(1218,1528,o),
(892,1528,cs),
(411,1528,o),
(111,1202,o),
(111,681,cs),
(111,255,o),
(345,-30,o),
(706,-30,cs)
);
},
{
closed = 1;
nodes = (
(659,-492,l),
(874,-84,l),
(638,-84,l),
(463,-492,l)
);
}
);
width = 1562;
},
{
anchors = (
{
name = bottom;
pos = (720,-461);
},
{
name = top;
pos = (905,1510);
}
);
layerId = m003;
shapes = (
{
closed = 1;
nodes = (
(1044,-30,o),
(1272,84,o),
(1337,236,c),
(1340,236,l),
(1342,151,o),
(1346,75,o),
(1353,-9,c),
(1492,-9,l),
(1551,826,l),
(809,826,l),
(797,660,l),
(1396,662,l),
(1337,709,l),
(1311,343,l),
(1325,398,l),
(1260,274,o),
(1065,144,o),
(830,144,cs),
(473,144,o),
(319,334,o),
(319,669,cs),
(319,1122,o),
(518,1356,o),
(902,1356,cs),
(1248,1356,o),
(1401,1202,o),
(1484,1027,c),
(1357,1111,l),
(1591,1319,l),
(1576,1266,l),
(1456,1407,o),
(1286,1527,o),
(946,1527,cs),
(408,1527,o),
(111,1223,o),
(111,670,cs),
(111,233,o),
(348,-30,o),
(802,-30,cs)
);
},
{
closed = 1;
nodes = (
(724,-401,l),
(1011,-75,l),
(796,-75,l),
(562,-401,l)
);
}
);
width = 1696;
},
{
anchors = (
{
name = bottom;
pos = (805,-481);
},
{
name = top;
pos = (1014,1510);
}
);
layerId = m004;
shapes = (
{
closed = 1;
nodes = (
(1043,-30,o),
(1295,49,o),
(1347,226,c),
(1353,226,l),
(1355,130,o),
(1357,104,o),
(1372,-10,c),
(1563,-10,l),
(1622,841,l),
(882,841,l),
(866,604,l),
(1387,607,l),
(1352,653,l),
(1332,371,l),
(1351,424,l),
(1280,304,o),
(1097,226,o),
(887,226,cs),
(576,226,o),
(409,388,o),
(409,687,cs),
(409,1060,o),
(613,1276,o),
(964,1276,cs),
(1240,1276,o),
(1424,1145,o),
(1406,866,c),
(1223,986,l),
(1715,1347,l),
(1646,1118,l),
(1578,1385,o),
(1358,1528,o),
(1015,1528,cs),
(457,1528,o),
(111,1206,o),
(111,684,cs),
(111,251,o),
(383,-30,o),
(812,-30,cs)
);
},
{
closed = 1;
nodes = (
(814,-492,l),
(1045,-84,l),
(789,-84,l),
(602,-492,l)
);
}
);
width = 1769;
}
);
unicode = 290;
},
{
color = 4;
glyphname = Gdotaccent;
kernLeft = KO_G;
kernRight = KO_G;
lastChange = "2022-03-23 22:41:43 +0000";
layers = (
{
anchors = (
{
name = bottom;
pos = (697,0);
},
{
name = top;
pos = (833,1939);
}
);
layerId = "FC837317-1536-49E4-8B36-958C77713550";
shapes = (
{
closed = 1;
nodes = (
(940,-30,o),
(1098,92,o),
(1158,233,c),
(1163,233,l),
(1158,152,o),
(1155,88,o),
(1159,-4,c),
(1293,-4,l),
(1351,826,l),
(725,826,l),
(713,660,l),
(1206,663,l),
(1153,709,l),
(1127,343,l),
(1141,398,l),
(1083,270,o),
(960,144,o),
(725,144,cs),
(446,144,o),
(314,323,o),
(314,655,cs),
(314,1112,o),
(486,1356,o),
(810,1356,cs),
(1159,1356,o),
(1230,1171,o),
(1268,1064,c),
(1163,1112,l),
(1402,1318,l),
(1380,1266,l),
(1297,1426,o),
(1133,1527,o),
(867,1527,cs),
(377,1527,o),
(111,1222,o),
(111,662,cs),
(111,229,o),
(317,-30,o),
(692,-30,cs)
);
},
{
closed = 1;
nodes = (
(887,1618,o),
(943,1670,o),
(943,1741,cs),
(943,1803,o),
(897,1849,o),
(827,1849,cs),
(753,1849,o),
(696,1794,o),
(696,1723,cs),
(696,1661,o),
(744,1618,o),
(812,1618,cs)
);
}
);
width = 1496;
},
{
anchors = (
{
name = bottom;
pos = (683,0);
},
{
name = top;
pos = (921,1939);
}
);
layerId = m014;
shapes = (
{
closed = 1;
nodes = (
(964,-30,o),
(1093,71,o),
(1156,204,c),
(1161,204,l),
(1161,107,o),
(1164,75,o),
(1176,-10,c),
(1356,-10,l),
(1415,841,l),
(795,841,l),
(779,604,l),
(1189,606,l),
(1162,653,l),
(1139,321,l),
(1156,354,l),
(1105,284,o),
(976,226,o),
(784,226,cs),
(537,226,o),
(404,388,o),
(404,673,cs),
(404,1041,o),
(579,1276,o),
(854,1276,cs),
(1059,1276,o),
(1180,1171,o),
(1202,1015,c),
(1149,1036,l),
(1481,1190,l),
(1459,1117,l),
(1435,1369,o),
(1218,1528,o),
(892,1528,cs),
(411,1528,o),
(111,1202,o),
(111,681,cs),
(111,255,o),
(345,-30,o),
(706,-30,cs)
);
},
{
closed = 1;
nodes = (
(992,1605,o),
(1058,1668,o),
(1058,1754,cs),
(1058,1829,o),
(1002,1884,o),
(918,1884,cs),
(828,1884,o),
(759,1818,o),
(759,1732,cs),
(759,1657,o),
(817,1605,o),
(900,1605,cs)
);
}
);
width = 1562;
},
{
anchors = (
{
name = bottom;
pos = (880,20);
},
{
name = top;
pos = (935,1939);
}
);
layerId = m003;
shapes = (
{
closed = 1;
nodes = (
(1044,-30,o),
(1272,84,o),
(1337,236,c),
(1340,236,l),
(1342,151,o),
(1346,75,o),
(1353,-9,c),
(1492,-9,l),
(1551,826,l),
(809,826,l),
(797,660,l),
(1396,662,l),
(1337,709,l),
(1311,343,l),
(1325,398,l),
(1260,274,o),
(1065,144,o),
(830,144,cs),
(473,144,o),
(319,334,o),
(319,669,cs),
(319,1122,o),
(518,1356,o),
(902,1356,cs),
(1248,1356,o),
(1401,1202,o),
(1484,1027,c),
(1357,1111,l),
(1591,1319,l),
(1576,1266,l),
(1456,1407,o),
(1286,1527,o),
(946,1527,cs),
(408,1527,o),
(111,1223,o),
(111,670,cs),
(111,233,o),
(348,-30,o),
(802,-30,cs)
);
},
{
closed = 1;
nodes = (
(992,1657,o),
(1047,1709,o),
(1047,1780,cs),
(1047,1842,o),
(1002,1888,o),
(932,1888,cs),
(858,1888,o),
(801,1834,o),
(801,1762,cs),
(801,1700,o),
(848,1657,o),
(917,1657,cs)
);
}
);
width = 1696;
},
{
anchors = (
{
name = bottom;
pos = (839,0);
},
{
name = top;
pos = (1044,1939);
}
);
layerId = m004;
shapes = (
{
closed = 1;
nodes = (
(1043,-30,o),
(1295,49,o),
(1347,226,c),
(1353,226,l),
(1355,130,o),
(1357,104,o),
(1372,-10,c),
(1563,-10,l),
(1622,841,l),
(882,841,l),
(866,604,l),
(1387,607,l),
(1352,653,l),
(1332,371,l),
(1351,424,l),
(1280,304,o),
(1097,226,o),
(887,226,cs),
(576,226,o),
(409,388,o),
(409,687,cs),
(409,1060,o),
(613,1276,o),
(964,1276,cs),
(1240,1276,o),
(1424,1145,o),
(1406,866,c),
(1223,986,l),
(1715,1347,l),
(1646,1118,l),
(1578,1385,o),
(1358,1528,o),
(1015,1528,cs),
(457,1528,o),
(111,1206,o),
(111,684,cs),
(111,251,o),
(383,-30,o),
(812,-30,cs)
);
},
{
closed = 1;
nodes = (
(1115,1605,o),
(1181,1668,o),
(1181,1754,cs),
(1181,1829,o),
(1125,1884,o),
(1041,1884,cs),
(951,1884,o),
(882,1818,o),
(882,1732,cs),
(882,1657,o),
(940,1605,o),
(1023,1605,cs)
);
}
);
width = 1769;
}
);
unicode = 288;
},
{
color = 5;
glyphname = H;
kernLeft = KO_H;
kernRight = KO_H;
lastChange = "2022-03-23 22:41:43 +0000";
layers = (
{
anchors = (
{
name = bar;
pos = (839,1146);
},
{
name = bottom;
pos = (759,0);
},
{
name = center;
pos = (812,755);
},
{
name = top;
pos = (865,1510);
},
{
name = topleft;
pos = (289,1510);
}
);
layerId = "FC837317-1536-49E4-8B36-958C77713550";
shapes = (
{
closed = 1;
nodes = (
(1335,0,l),
(1441,1510,l),
(1249,1510,l),
(1203,860,l),
(435,860,l),
(481,1510,l),
(289,1510,l),
(183,0,l),
(375,0,l),
(423,692,l),
(1191,692,l),
(1143,0,l)
);
}
);
width = 1624;
},
{
anchors = (
{
name = bar;
pos = (836,1197);
},
{
name = bottom;
pos = (752,0);
},
{
name = center;
pos = (805,755);
},
{
name = top;
pos = (858,1510);
},
{
name = topleft;
pos = (131,1510);
}
);
layerId = m014;
shapes = (
{
closed = 1;
nodes = (
(1353,0,l),
(1459,1510,l),
(1169,1510,l),
(1126,908,l),
(504,908,l),
(547,1510,l),
(257,1510,l),
(151,0,l),
(441,0,l),
(487,664,l),
(1109,664,l),
(1063,0,l)
);
}
);
width = 1610;
},
{
anchors = (
{
name = bar;
pos = (939,1146);
},
{
name = bottom;
pos = (859,0);
},
{
name = center;
pos = (927,973);
},
{
name = top;
pos = (965,1510);
},
{
name = topleft;
pos = (89,1510);
}
);
layerId = m003;
shapes = (
{
closed = 1;
nodes = (
(1535,0,l),
(1641,1510,l),
(1450,1510,l),
(1404,860,l),
(434,860,l),
(480,1510,l),
(289,1510,l),
(183,0,l),
(374,0,l),
(422,692,l),
(1392,692,l),
(1344,0,l)
);
}
);
width = 1824;
},
{
anchors = (
{
name = bar;
pos = (936,1207);
},
{
name = bottom;
pos = (852,0);
},
{
name = center;
pos = (905,755);
},
{
name = top;
pos = (958,1510);
},
{
name = topleft;
pos = (89,1510);
}
);
layerId = m004;
shapes = (
{
closed = 1;
nodes = (
(1553,0,l),
(1659,1510,l),
(1370,1510,l),
(1327,908,l),
(503,908,l),
(546,1510,l),
(257,1510,l),
(151,0,l),
(440,0,l),
(486,664,l),
(1310,664,l),
(1264,0,l)
);
}
);
width = 1810;
}
);
unicode = 72;
userData = {
KernOnName = H;
};
},
{
color = 4;
glyphname = Hbar;
kernRight = KO_Hbar;
lastChange = "2022-03-23 22:41:43 +0000";
layers = (
{
anchors = (
{
name = bar;
pos = (894,1146);
},
{
name = bottom;
pos = (814,0);
},
{
name = center;
pos = (866,755);
},
{
name = top;
pos = (919,1510);
},
{
name = topleft;
pos = (343,1510);
}
);
layerId = "FC837317-1536-49E4-8B36-958C77713550";
shapes = (
{
closed = 1;
nodes = (
(1390,0,l),
(1495,1510,l),
(1303,1510,l),
(1258,860,l),
(490,860,l),
(535,1510,l),
(343,1510,l),
(238,0,l),
(430,0,l),
(478,692,l),
(1246,692,l),
(1198,0,l)
);
},
{
closed = 1;
nodes = (
(1593,1063,l),
(1605,1229,l),
(195,1229,l),
(183,1063,l)
);
}
);
width = 1788;
},
{
anchors = (
{
name = bar;
pos = (896,1197);
},
{
name = bottom;
pos = (813,0);
},
{
name = center;
pos = (865,755);
},
{
name = top;
pos = (918,1510);
},
{
name = topleft;
pos = (191,1510);
}
);
layerId = m014;
shapes = (
{
closed = 1;
nodes = (
(1414,0,l),
(1519,1510,l),
(1229,1510,l),
(1187,908,l),
(565,908,l),
(607,1510,l),
(317,1510,l),
(212,0,l),
(502,0,l),
(548,664,l),
(1170,664,l),
(1124,0,l)
);
},
{
closed = 1;
nodes = (
(1627,1092,l),
(1642,1302,l),
(166,1302,l),
(151,1092,l)
);
}
);
width = 1793;
},
{
anchors = (
{
name = bar;
pos = (983,1146);
},
{
name = bottom;
pos = (903,0);
},
{
name = center;
pos = (971,973);
},
{
name = top;
pos = (1008,1510);
},
{
name = topleft;
pos = (132,1510);
}
);
layerId = m003;
shapes = (
{
closed = 1;
nodes = (
(1579,0,l),
(1684,1510,l),
(1493,1510,l),
(1448,860,l),
(478,860,l),
(523,1510,l),
(332,1510,l),
(227,0,l),
(418,0,l),
(466,692,l),
(1436,692,l),
(1388,0,l)
);
},
{
closed = 1;
nodes = (
(1771,1063,l),
(1783,1229,l),
(195,1229,l),
(183,1063,l)
);
}
);
width = 1966;
},
{
anchors = (
{
name = bar;
pos = (986,1207);
},
{
name = bottom;
pos = (902,0);
},
{
name = center;
pos = (955,755);
},
{
name = top;
pos = (1008,1510);
},
{
name = topleft;
pos = (139,1510);
}
);
layerId = m004;
shapes = (
{
closed = 1;
nodes = (
(1603,0,l),
(1709,1510,l),
(1420,1510,l),
(1377,908,l),
(553,908,l),
(596,1510,l),
(307,1510,l),
(201,0,l),
(490,0,l),
(536,664,l),
(1360,664,l),
(1314,0,l)
);
},
{
closed = 1;
nodes = (
(1807,1102,l),
(1822,1312,l),
(166,1312,l),
(151,1102,l)
);
}
);
width = 1973;
}
);
metricLeft = H;
metricRight = H;
unicode = 294;
},
{
color = 5;
glyphname = I;
kernLeft = KO_I;
kernRight = KO_I;
lastChange = "2022-03-23 22:41:43 +0000";
layers = (
{
anchors = (
{
name = bottom;
pos = (495,0);
},
{
name = ogonek;
pos = (579,0);
},
{
name = top;
pos = (601,1510);
},
{
name = topleft;
pos = (199,1510);
}
);
layerId = "FC837317-1536-49E4-8B36-958C77713550";
shapes = (
{
closed = 1;
nodes = (
(879,0,l),
(891,164,l),
(602,164,l),
(685,1346,l),
(972,1346,l),
(983,1510,l),
(219,1510,l),
(206,1346,l),
(493,1346,l),
(410,164,l),
(121,164,l),
(111,0,l)
);
}
);
width = 1094;
},
{
anchors = (
{
name = bottom;
pos = (593,0);
},
{
name = ogonek;
pos = (738,0);
},
{
name = top;
pos = (699,1510);
},
{
name = topleft;
pos = (129,1510);
}
);
layerId = m014;
shapes = (
{
closed = 1;
nodes = (
(1074,0,l),
(1092,242,l),
(755,242,l),
(827,1268,l),
(1162,1268,l),
(1178,1510,l),
(219,1510,l),
(201,1268,l),
(535,1268,l),
(463,242,l),
(127,242,l),
(111,0,l)
);
}
);
width = 1289;
},
{
anchors = (
{
name = bottom;
pos = (686,0);
},
{
name = ogonek;
pos = (829,0);
},
{
name = top;
pos = (792,1510);
},
{
name = topleft;
pos = (512,1510);
}
);
layerId = m004;
shapes = (
{
closed = 1;
nodes = (
(1265,0,l),
(1283,244,l),
(846,244,l),
(918,1266,l),
(1353,1266,l),
(1369,1510,l),
(219,1510,l),
(201,1266,l),
(626,1266,l),
(554,244,l),
(127,244,l),
(111,0,l)
);
}
);
width = 1480;
},
{
anchors = (
{
name = bottom;
pos = (595,0);
},
{
name = ogonek;
pos = (736,0);
},
{
name = top;
pos = (722,1510);
},
{
name = topleft;
pos = (442,1510);
}
);
layerId = m003;
shapes = (
{
closed = 1;
nodes = (
(1079,0,l),
(1092,168,l),
(703,168,l),
(785,1342,l),
(1172,1342,l),
(1183,1510,l),
(219,1510,l),
(206,1342,l),
(593,1342,l),
(511,168,l),
(122,168,l),
(111,0,l)
);
}
);
width = 1294;
}
);
metricLeft = O;
metricRight = O;
unicode = 73;
userData = {
KernOnName = I;
};
},
{
color = 5;
glyphname = IJ;
kernRight = KO_J;
lastChange = "2022-03-23 22:41:43 +0000";
layers = (
{
anchors = (
{
name = bottom;
pos = (1001,0);
},
{
name = top;
pos = (1399,1510);
}
);
layerId = "FC837317-1536-49E4-8B36-958C77713550";
shapes = (
{
closed = 1;
nodes = (
(919,400,l),
(931,564,l),
(622,564,l),
(677,1346,l),
(984,1346,l),
(995,1510,l),
(191,1510,l),
(178,1346,l),
(485,1346,l),
(430,564,l),
(121,564,l),
(111,400,l)
);
},
{
closed = 1;
nodes = (
(1230,-34,o),
(1359,162,o),
(1379,446,cs),
(1454,1510,l),
(1262,1510,l),
(1190,481,ls),
(1172,226,o),
(1100,136,o),
(925,136,cs),
(760,136,o),
(584,216,o),
(580,226,c),
(566,34,l),
(656,-5,o),
(793,-34,o),
(915,-34,cs)
);
}
);
width = 1723;
},
{
anchors = (
{
name = bottom;
pos = (1188,0);
},
{
name = top;
pos = (1554,1510);
}
);
layerId = m014;
shapes = (
{
closed = 1;
nodes = (
(1074,450,l),
(1092,692,l),
(755,692,l),
(795,1268,l),
(1130,1268,l),
(1146,1510,l),
(187,1510,l),
(169,1268,l),
(503,1268,l),
(463,692,l),
(127,692,l),
(111,450,l)
);
},
{
closed = 1;
nodes = (
(1338,-19,o),
(1567,103,o),
(1592,466,cs),
(1665,1510,l),
(1375,1510,l),
(1304,492,ls),
(1294,345,o),
(1264,243,o),
(1073,243,cs),
(954,243,o),
(759,282,o),
(741,300,c),
(721,28,l),
(837,-7,o),
(949,-19,o),
(1041,-19,cs)
);
}
);
width = 1872;
},
{
anchors = (
{
name = bottom;
pos = (1299,0);
},
{
name = top;
pos = (1826,1510);
}
);
layerId = m003;
shapes = (
{
closed = 1;
nodes = (
(1219,400,l),
(1232,568,l),
(773,568,l),
(827,1342,l),
(1284,1342,l),
(1295,1510,l),
(191,1510,l),
(178,1342,l),
(635,1342,l),
(581,568,l),
(122,568,l),
(111,400,l)
);
},
{
closed = 1;
nodes = (
(1803,-35,o),
(1824,256,o),
(1837,446,cs),
(1912,1510,l),
(1721,1510,l),
(1649,481,ls),
(1631,218,o),
(1521,136,o),
(1290,136,cs),
(1056,136,o),
(837,219,o),
(838,226,c),
(824,34,l),
(928,-1,o),
(1123,-35,o),
(1297,-35,cs)
);
}
);
width = 2181;
},
{
anchors = (
{
name = bottom;
pos = (1604,0);
},
{
name = top;
pos = (2033,1510);
}
);
layerId = m004;
shapes = (
{
closed = 1;
nodes = (
(1345,450,l),
(1363,694,l),
(886,694,l),
(926,1266,l),
(1401,1266,l),
(1417,1510,l),
(187,1510,l),
(169,1266,l),
(634,1266,l),
(594,694,l),
(127,694,l),
(111,450,l)
);
},
{
closed = 1;
nodes = (
(1914,-21,o),
(2072,121,o),
(2096,466,cs),
(2169,1510,l),
(1880,1510,l),
(1809,492,ls),
(1797,314,o),
(1719,243,o),
(1482,243,cs),
(1295,243,o),
(1053,286,o),
(1045,300,c),
(1025,28,l),
(1145,-1,o),
(1338,-21,o),
(1494,-21,cs)
);
}
);
width = 2376;
}
);
metricLeft = I;
metricRight = J;
unicode = 306;
},
{
color = 4;
glyphname = Iacute;
kernLeft = KO_I;
kernRight = KO_I;
lastChange = "2022-03-23 22:41:43 +0000";
layers = (
{
anchors = (
{
name = bottom;
pos = (495,0);
},
{
name = ogonek;
pos = (579,0);
},
{
name = top;
pos = (736,1836);
},
{
name = topleft;
pos = (199,1510);
}
);
layerId = "FC837317-1536-49E4-8B36-958C77713550";
shapes = (
{
closed = 1;
nodes = (
(879,0,l),
(891,164,l),
(602,164,l),
(685,1346,l),
(972,1346,l),
(983,1510,l),
(219,1510,l),
(206,1346,l),
(493,1346,l),
(410,164,l),
(121,164,l),
(111,0,l)
);
},
{
closed = 1;
nodes = (
(674,1612,l),
(975,1844,l),
(738,1844,l),
(498,1612,l)
);
}
);
width = 1094;
},
{
anchors = (
{
name = bottom;
pos = (593,0);
},
{
name = ogonek;
pos = (738,0);
},
{
name = top;
pos = (864,1898);
},
{
name = topleft;
pos = (129,1510);
}
);
layerId = m014;
shapes = (
{
closed = 1;
nodes = (
(1074,0,l),
(1092,242,l),
(755,242,l),
(827,1268,l),
(1162,1268,l),
(1178,1510,l),
(219,1510,l),
(201,1268,l),
(535,1268,l),
(463,242,l),
(127,242,l),
(111,0,l)
);
},
{
closed = 1;
nodes = (
(787,1628,l),
(1148,1868,l),
(862,1868,l),
(574,1628,l)
);
}
);
width = 1289;
},
{
anchors = (
{
name = bottom;
pos = (595,0);
},
{
name = ogonek;
pos = (736,0);
},
{
name = top;
pos = (944,1844);
},
{
name = topleft;
pos = (442,1510);
}
);
layerId = m003;
shapes = (
{
closed = 1;
nodes = (
(1079,0,l),
(1092,168,l),
(703,168,l),
(785,1342,l),
(1172,1342,l),
(1183,1510,l),
(219,1510,l),
(206,1342,l),
(593,1342,l),
(511,168,l),
(122,168,l),
(111,0,l)
);
},
{
closed = 1;
nodes = (
(832,1616,l),
(1267,1848,l),
(960,1848,l),
(604,1616,l)
);
}
);
width = 1320;
},
{
anchors = (
{
name = bottom;
pos = (686,0);
},
{
name = ogonek;
pos = (829,0);
},
{
name = top;
pos = (1031,1868);
},
{
name = topleft;
pos = (512,1510);
}
);
layerId = m004;
shapes = (
{
closed = 1;
nodes = (
(1265,0,l),
(1283,244,l),
(846,244,l),
(918,1266,l),
(1353,1266,l),
(1369,1510,l),
(219,1510,l),
(201,1266,l),
(626,1266,l),
(554,244,l),
(127,244,l),
(111,0,l)
);
},
{
closed = 1;
nodes = (
(934,1628,l),
(1340,1868,l),
(951,1868,l),
(654,1628,l)
);
}
);
width = 1480;
}
);
unicode = 205;
},
{
color = 4;
glyphname = Icircumflex;
kernLeft = KO_I;
kernRight = KO_I;
lastChange = "2022-03-23 22:41:43 +0000";
layers = (
{
anchors = (
{
name = bottom;
pos = (495,0);
},
{
name = ogonek;
pos = (579,0);
},
{
name = top;
pos = (626,1867);
},
{
name = topleft;
pos = (199,1510);
}
);
layerId = "FC837317-1536-49E4-8B36-958C77713550";
shapes = (
{
closed = 1;
nodes = (
(879,0,l),
(891,164,l),
(602,164,l),
(685,1346,l),
(972,1346,l),
(983,1510,l),
(219,1510,l),
(206,1346,l),
(493,1346,l),
(410,164,l),
(121,164,l),
(111,0,l)
);
},
{
closed = 1;
nodes = (
(954,1610,l),
(730,1875,l),
(521,1875,l),
(261,1610,l),
(464,1610,l),
(651,1820,l),
(594,1820,l),
(751,1610,l)
);
}
);
width = 1094;
},
{
anchors = (
{
name = bottom;
pos = (593,0);
},
{
name = ogonek;
pos = (738,0);
},
{
name = top;
pos = (729,1942);
},
{
name = topleft;
pos = (129,1510);
}
);
layerId = m014;
shapes = (
{
closed = 1;
nodes = (
(1074,0,l),
(1092,242,l),
(755,242,l),
(827,1268,l),
(1162,1268,l),
(1178,1510,l),
(219,1510,l),
(201,1268,l),
(535,1268,l),
(463,242,l),
(127,242,l),
(111,0,l)
);
},
{
closed = 1;
nodes = (
(1126,1631,l),
(850,1868,l),
(597,1868,l),
(287,1631,l),
(575,1631,l),
(728,1761,l),
(705,1761,l),
(838,1631,l)
);
}
);
width = 1289;
},
{
anchors = (
{
name = bottom;
pos = (595,0);
},
{
name = ogonek;
pos = (736,0);
},
{
name = top;
pos = (748,1881);
},
{
name = topleft;
pos = (442,1510);
}
);
layerId = m003;
shapes = (
{
closed = 1;
nodes = (
(1079,0,l),
(1092,168,l),
(703,168,l),
(785,1342,l),
(1172,1342,l),
(1183,1510,l),
(219,1510,l),
(206,1342,l),
(593,1342,l),
(511,168,l),
(122,168,l),
(111,0,l)
);
},
{
closed = 1;
nodes = (
(1168,1616,l),
(880,1881,l),
(615,1881,l),
(289,1616,l),
(547,1616,l),
(781,1826,l),
(709,1826,l),
(910,1616,l)
);
}
);
width = 1294;
},
{
anchors = (
{
name = bottom;
pos = (686,0);
},
{
name = ogonek;
pos = (829,0);
},
{
name = top;
pos = (822,1942);
},
{
name = topleft;
pos = (512,1510);
}
);
layerId = m004;
shapes = (
{
closed = 1;
nodes = (
(1265,0,l),
(1283,244,l),
(846,244,l),
(918,1266,l),
(1353,1266,l),
(1369,1510,l),
(219,1510,l),
(201,1266,l),
(626,1266,l),
(554,244,l),
(127,244,l),
(111,0,l)
);
},
{
closed = 1;
nodes = (
(1291,1631,l),
(965,1868,l),
(668,1868,l),
(308,1631,l),
(645,1631,l),
(823,1761,l),
(796,1761,l),
(954,1631,l)
);
}
);
width = 1480;
}
);
unicode = 206;
},
{
color = 4;
glyphname = Idieresis;
kernLeft = KO_I;
kernRight = KO_I;
lastChange = "2022-03-23 22:41:43 +0000";
layers = (
{
anchors = (
{
name = bottom;
pos = (495,0);
},
{
name = ogonek;
pos = (579,0);
},
{
name = top;
pos = (628,1903);
},
{
name = topleft;
pos = (199,1510);
}
);
layerId = "FC837317-1536-49E4-8B36-958C77713550";
shapes = (
{
closed = 1;
nodes = (
(879,0,l),
(891,164,l),
(602,164,l),
(685,1346,l),
(972,1346,l),
(983,1510,l),
(219,1510,l),
(206,1346,l),
(493,1346,l),
(410,164,l),
(121,164,l),
(111,0,l)
);
},
{
closed = 1;
nodes = (
(495,1625,o),
(552,1672,o),
(552,1741,cs),
(552,1802,o),
(508,1846,o),
(443,1846,cs),
(372,1846,o),
(318,1793,o),
(318,1726,cs),
(318,1667,o),
(362,1625,o),
(428,1625,cs)
);
},
{
closed = 1;
nodes = (
(861,1625,o),
(915,1675,o),
(915,1743,cs),
(915,1801,o),
(871,1846,o),
(805,1846,cs),
(735,1846,o),
(680,1793,o),
(680,1724,cs),
(680,1667,o),
(725,1625,o),
(790,1625,cs)
);
}
);
width = 1094;
},
{
anchors = (
{
name = bottom;
pos = (593,0);
},
{
name = ogonek;
pos = (738,0);
},
{
name = top;
pos = (726,1903);
},
{
name = topleft;
pos = (129,1510);
}
);
layerId = m014;
shapes = (
{
closed = 1;
nodes = (
(1074,0,l),
(1092,242,l),
(755,242,l),
(827,1268,l),
(1162,1268,l),
(1178,1510,l),
(219,1510,l),
(201,1268,l),
(535,1268,l),
(463,242,l),
(127,242,l),
(111,0,l)
);
},
{
closed = 1;
nodes = (
(599,1621,o),
(669,1677,o),
(669,1761,cs),
(669,1835,o),
(614,1888,o),
(536,1888,cs),
(451,1888,o),
(384,1825,o),
(384,1743,cs),
(384,1672,o),
(438,1621,o),
(517,1621,cs)
);
},
{
closed = 1;
nodes = (
(982,1621,o),
(1047,1681,o),
(1047,1763,cs),
(1047,1834,o),
(994,1888,o),
(914,1888,cs),
(829,1888,o),
(762,1824,o),
(762,1741,cs),
(762,1672,o),
(817,1621,o),
(895,1621,cs)
);
}
);
width = 1289;
},
{
anchors = (
{
name = bottom;
pos = (595,0);
},
{
name = ogonek;
pos = (736,0);
},
{
name = top;
pos = (745,1846);
},
{
name = topleft;
pos = (442,1510);
}
);
layerId = m003;
shapes = (
{
closed = 1;
nodes = (
(1079,0,l),
(1092,168,l),
(703,168,l),
(785,1342,l),
(1172,1342,l),
(1183,1510,l),
(219,1510,l),
(206,1342,l),
(593,1342,l),
(511,168,l),
(122,168,l),
(111,0,l)
);
},
{
closed = 1;
nodes = (
(588,1657,o),
(646,1704,o),
(646,1773,cs),
(646,1834,o),
(601,1878,o),
(536,1878,cs),
(466,1878,o),
(411,1826,o),
(411,1758,cs),
(411,1699,o),
(455,1657,o),
(521,1657,cs)
);
},
{
closed = 1;
nodes = (
(1014,1657,o),
(1068,1707,o),
(1068,1775,cs),
(1068,1833,o),
(1024,1878,o),
(958,1878,cs),
(888,1878,o),
(833,1825,o),
(833,1756,cs),
(833,1699,o),
(878,1657,o),
(943,1657,cs)
);
}
);
width = 1294;
},
{
anchors = (
{
name = bottom;
pos = (686,0);
},
{
name = ogonek;
pos = (829,0);
},
{
name = top;
pos = (819,1903);
},
{
name = topleft;
pos = (512,1510);
}
);
layerId = m004;
shapes = (
{
closed = 1;
nodes = (
(1265,0,l),
(1283,244,l),
(846,244,l),
(918,1266,l),
(1353,1266,l),
(1369,1510,l),
(219,1510,l),
(201,1266,l),
(626,1266,l),
(554,244,l),
(127,244,l),
(111,0,l)
);
},
{
closed = 1;
nodes = (
(662,1621,o),
(732,1677,o),
(732,1761,cs),
(732,1835,o),
(677,1888,o),
(599,1888,cs),
(514,1888,o),
(447,1825,o),
(447,1743,cs),
(447,1672,o),
(501,1621,o),
(580,1621,cs)
);
},
{
closed = 1;
nodes = (
(1105,1621,o),
(1170,1681,o),
(1170,1763,cs),
(1170,1834,o),
(1117,1888,o),
(1037,1888,cs),
(952,1888,o),
(885,1824,o),
(885,1741,cs),
(885,1672,o),
(940,1621,o),
(1018,1621,cs)
);
}
);
width = 1480;
}
);
unicode = 207;
},
{
color = 4;
glyphname = Idotaccent;
kernLeft = KO_I;
kernRight = KO_I;
lastChange = "2022-03-23 22:41:43 +0000";
layers = (
{
anchors = (
{
name = bottom;
pos = (495,0);
},
{
name = ogonek;
pos = (579,0);
},
{
name = top;
pos = (631,1939);
},
{
name = topleft;
pos = (199,1510);
}
);
layerId = "FC837317-1536-49E4-8B36-958C77713550";
shapes = (
{
closed = 1;
nodes = (
(879,0,l),
(891,164,l),
(602,164,l),
(685,1346,l),
(972,1346,l),
(983,1510,l),
(219,1510,l),
(206,1346,l),
(493,1346,l),
(410,164,l),
(121,164,l),
(111,0,l)
);
},
{
closed = 1;
nodes = (
(685,1618,o),
(740,1670,o),
(740,1741,cs),
(740,1803,o),
(695,1849,o),
(625,1849,cs),
(551,1849,o),
(494,1795,o),
(494,1723,cs),
(494,1661,o),
(542,1618,o),
(610,1618,cs)
);
}
);
width = 1094;
},
{
anchors = (
{
name = bottom;
pos = (593,0);
},
{
name = ogonek;
pos = (738,0);
},
{
name = top;
pos = (729,1939);
},
{
name = topleft;
pos = (129,1510);
}
);
layerId = m014;
shapes = (
{
closed = 1;
nodes = (
(1074,0,l),
(1092,242,l),
(755,242,l),
(827,1268,l),
(1162,1268,l),
(1178,1510,l),
(219,1510,l),
(201,1268,l),
(535,1268,l),
(463,242,l),
(127,242,l),
(111,0,l)
);
},
{
closed = 1;
nodes = (
(799,1605,o),
(865,1668,o),
(865,1754,cs),
(865,1829,o),
(810,1884,o),
(726,1884,cs),
(635,1884,o),
(567,1818,o),
(567,1732,cs),
(567,1657,o),
(625,1605,o),
(707,1605,cs)
);
}
);
width = 1289;
},
{
anchors = (
{
name = bottom;
pos = (595,0);
},
{
name = ogonek;
pos = (736,0);
},
{
name = top;
pos = (752,1939);
},
{
name = topleft;
pos = (442,1510);
}
);
layerId = m003;
shapes = (
{
closed = 1;
nodes = (
(1079,0,l),
(1092,168,l),
(703,168,l),
(785,1342,l),
(1172,1342,l),
(1183,1510,l),
(219,1510,l),
(206,1342,l),
(593,1342,l),
(511,168,l),
(122,168,l),
(111,0,l)
);
},
{
closed = 1;
nodes = (
(809,1657,o),
(864,1709,o),
(864,1780,cs),
(864,1842,o),
(819,1888,o),
(749,1888,cs),
(674,1888,o),
(618,1833,o),
(618,1762,cs),
(618,1700,o),
(665,1657,o),
(734,1657,cs)
);
}
);
width = 1294;
},
{
anchors = (
{
name = bottom;
pos = (686,0);
},
{
name = ogonek;
pos = (829,0);
},
{
name = top;
pos = (822,1939);
},
{
name = topleft;
pos = (512,1510);
}
);
layerId = m004;
shapes = (
{
closed = 1;
nodes = (
(1265,0,l),
(1283,244,l),
(846,244,l),
(918,1266,l),
(1353,1266,l),
(1369,1510,l),
(219,1510,l),
(201,1266,l),
(626,1266,l),
(554,244,l),
(127,244,l),
(111,0,l)
);
},
{
closed = 1;
nodes = (
(892,1605,o),
(958,1668,o),
(958,1754,cs),
(958,1829,o),
(903,1884,o),
(819,1884,cs),
(728,1884,o),
(660,1818,o),
(660,1732,cs),
(660,1657,o),
(718,1605,o),
(800,1605,cs)
);
}
);
width = 1480;
}
);
unicode = 304;
},
{
color = 4;
glyphname = Igrave;
kernLeft = KO_I;
kernRight = KO_I;
lastChange = "2022-03-23 22:41:43 +0000";
layers = (
{
anchors = (
{
name = bottom;
pos = (495,0);
},
{
name = ogonek;
pos = (579,0);
},
{
name = top;
pos = (559,1836);
},
{
name = topleft;
pos = (199,1510);
}
);
layerId = "FC837317-1536-49E4-8B36-958C77713550";
shapes = (
{
closed = 1;
nodes = (
(879,0,l),
(891,164,l),
(602,164,l),
(685,1346,l),
(972,1346,l),
(983,1510,l),
(219,1510,l),
(206,1346,l),
(493,1346,l),
(410,164,l),
(121,164,l),
(111,0,l)
);
},
{
closed = 1;
nodes = (
(566,1844,l),
(329,1844,l),
(598,1612,l),
(774,1612,l)
);
}
);
width = 1094;
},
{
anchors = (
{
name = bottom;
pos = (593,0);
},
{
name = ogonek;
pos = (738,0);
},
{
name = top;
pos = (648,1904);
},
{
name = topleft;
pos = (129,1510);
}
);
layerId = m014;
shapes = (
{
closed = 1;
nodes = (
(1074,0,l),
(1092,242,l),
(755,242,l),
(827,1268,l),
(1162,1268,l),
(1178,1510,l),
(219,1510,l),
(201,1268,l),
(535,1268,l),
(463,242,l),
(127,242,l),
(111,0,l)
);
},
{
closed = 1;
nodes = (
(653,1868,l),
(367,1868,l),
(694,1628,l),
(907,1628,l)
);
}
);
width = 1289;
},
{
anchors = (
{
name = bottom;
pos = (595,0);
},
{
name = ogonek;
pos = (736,0);
},
{
name = top;
pos = (745,1848);
},
{
name = topleft;
pos = (442,1510);
}
);
layerId = m003;
shapes = (
{
closed = 1;
nodes = (
(1079,0,l),
(1092,168,l),
(703,168,l),
(785,1342,l),
(1172,1342,l),
(1183,1510,l),
(219,1510,l),
(206,1342,l),
(593,1342,l),
(511,168,l),
(122,168,l),
(111,0,l)
);
},
{
closed = 1;
nodes = (
(728,1848,l),
(421,1848,l),
(824,1616,l),
(1052,1616,l)
);
}
);
width = 1294;
},
{
anchors = (
{
name = bottom;
pos = (686,0);
},
{
name = ogonek;
pos = (829,0);
},
{
name = top;
pos = (817,1868);
},
{
name = topleft;
pos = (512,1510);
}
);
layerId = m004;
shapes = (
{
closed = 1;
nodes = (
(1265,0,l),
(1283,244,l),
(846,244,l),
(918,1266,l),
(1353,1266,l),
(1369,1510,l),
(219,1510,l),
(201,1266,l),
(626,1266,l),
(554,244,l),
(127,244,l),
(111,0,l)
);
},
{
closed = 1;
nodes = (
(805,1868,l),
(416,1868,l),
(788,1628,l),
(1068,1628,l)
);
}
);
width = 1480;
}
);
unicode = 204;
},
{
color = 4;
glyphname = Imacron;
kernLeft = KO_I;
kernRight = KO_I;
lastChange = "2022-03-23 22:41:43 +0000";
layers = (
{
anchors = (
{
name = bottom;
pos = (495,0);
},
{
name = ogonek;
pos = (579,0);
},
{
name = top;
pos = (619,1778);
},
{
name = topleft;
pos = (199,1510);
}
);
layerId = "FC837317-1536-49E4-8B36-958C77713550";
shapes = (
{
closed = 1;
nodes = (
(879,0,l),
(891,164,l),
(602,164,l),
(685,1346,l),
(972,1346,l),
(983,1510,l),
(219,1510,l),
(206,1346,l),
(493,1346,l),
(410,164,l),
(121,164,l),
(111,0,l)
);
},
{
closed = 1;
nodes = (
(931,1641,l),
(940,1778,l),
(298,1778,l),
(289,1641,l)
);
}
);
width = 1094;
},
{
anchors = (
{
name = bottom;
pos = (593,0);
},
{
name = ogonek;
pos = (738,0);
},
{
name = top;
pos = (721,1834);
},
{
name = topleft;
pos = (129,1510);
}
);
layerId = m014;
shapes = (
{
closed = 1;
nodes = (
(1074,0,l),
(1092,242,l),
(755,242,l),
(827,1268,l),
(1162,1268,l),
(1178,1510,l),
(219,1510,l),
(201,1268,l),
(535,1268,l),
(463,242,l),
(127,242,l),
(111,0,l)
);
},
{
closed = 1;
nodes = (
(1098,1669,l),
(1109,1834,l),
(333,1834,l),
(322,1669,l)
);
}
);
width = 1289;
},
{
anchors = (
{
name = bottom;
pos = (595,0);
},
{
name = ogonek;
pos = (736,0);
},
{
name = top;
pos = (740,1778);
},
{
name = topleft;
pos = (442,1510);
}
);
layerId = m003;
shapes = (
{
closed = 1;
nodes = (
(1079,0,l),
(1092,168,l),
(703,168,l),
(785,1342,l),
(1172,1342,l),
(1183,1510,l),
(219,1510,l),
(206,1342,l),
(593,1342,l),
(511,168,l),
(122,168,l),
(111,0,l)
);
},
{
closed = 1;
nodes = (
(1115,1641,l),
(1124,1778,l),
(356,1778,l),
(347,1641,l)
);
}
);
width = 1294;
},
{
anchors = (
{
name = bottom;
pos = (686,0);
},
{
name = ogonek;
pos = (829,0);
},
{
name = top;
pos = (814,1834);
},
{
name = topleft;
pos = (512,1510);
}
);
layerId = m004;
shapes = (
{
closed = 1;
nodes = (
(1265,0,l),
(1283,244,l),
(846,244,l),
(918,1266,l),
(1353,1266,l),
(1369,1510,l),
(219,1510,l),
(201,1266,l),
(626,1266,l),
(554,244,l),
(127,244,l),
(111,0,l)
);
},
{
closed = 1;
nodes = (
(1240,1669,l),
(1251,1834,l),
(377,1834,l),
(366,1669,l)
);
}
);
width = 1480;
}
);
unicode = 298;
},
{
color = 4;
glyphname = Iogonek;
kernLeft = KO_I;
kernRight = KO_I;
lastChange = "2022-03-23 22:41:43 +0000";
layers = (
{
anchors = (
{
name = bottom;
pos = (495,0);
},
{
name = ogonek;
pos = (579,0);
},
{
name = top;
pos = (601,1510);
},
{
name = topleft;
pos = (199,1510);
}
);
layerId = "FC837317-1536-49E4-8B36-958C77713550";
shapes = (
{
closed = 1;
nodes = (
(879,0,l),
(891,164,l),
(602,164,l),
(685,1346,l),
(972,1346,l),
(983,1510,l),
(219,1510,l),
(206,1346,l),
(493,1346,l),
(410,164,l),
(121,164,l),
(111,0,l)
);
},
{
closed = 1;
nodes = (
(451,-400,o),
(498,-387,o),
(540,-361,c),
(549,-235,l),
(516,-255,o),
(473,-270,o),
(435,-270,cs),
(385,-270,o),
(347,-244,o),
(347,-196,cs),
(347,-122,o),
(431,-50,o),
(579,0,c),
(400,0,l),
(256,-32,o),
(180,-133,o),
(180,-231,cs),
(180,-332,o),
(267,-400,o),
(395,-400,cs)
);
}
);
width = 1094;
},
{
anchors = (
{
name = bottom;
pos = (593,0);
},
{
name = ogonek;
pos = (738,0);
},
{
name = top;
pos = (699,1510);
},
{
name = topleft;
pos = (129,1510);
}
);
layerId = m014;
shapes = (
{
closed = 1;
nodes = (
(1074,0,l),
(1092,242,l),
(755,242,l),
(827,1268,l),
(1162,1268,l),
(1178,1510,l),
(219,1510,l),
(201,1268,l),
(535,1268,l),
(463,242,l),
(127,242,l),
(111,0,l)
);
},
{
closed = 1;
nodes = (
(583,-484,o),
(640,-468,o),
(690,-437,c),
(701,-284,l),
(662,-309,o),
(610,-327,o),
(564,-327,cs),
(504,-327,o),
(457,-296,o),
(457,-237,cs),
(457,-147,o),
(560,-60,o),
(738,0,c),
(522,0,l),
(347,-39,o),
(256,-162,o),
(256,-279,cs),
(256,-401,o),
(360,-484,o),
(515,-484,cs)
);
}
);
width = 1289;
},
{
anchors = (
{
name = bottom;
pos = (595,0);
},
{
name = ogonek;
pos = (736,0);
},
{
name = top;
pos = (722,1510);
},
{
name = topleft;
pos = (442,1510);
}
);
layerId = m003;
shapes = (
{
closed = 1;
nodes = (
(1079,0,l),
(1092,168,l),
(703,168,l),
(785,1342,l),
(1172,1342,l),
(1183,1510,l),
(219,1510,l),
(206,1342,l),
(593,1342,l),
(511,168,l),
(122,168,l),
(111,0,l)
);
},
{
closed = 1;
nodes = (
(582,-400,o),
(641,-387,o),
(694,-361,c),
(703,-235,l),
(661,-255,o),
(608,-270,o),
(559,-270,cs),
(496,-270,o),
(446,-244,o),
(446,-194,cs),
(446,-121,o),
(551,-50,o),
(736,0,c),
(552,0,l),
(334,-32,o),
(235,-132,o),
(235,-231,cs),
(235,-330,o),
(346,-400,o),
(511,-400,cs)
);
}
);
width = 1294;
},
{
anchors = (
{
name = bottom;
pos = (686,0);
},
{
name = ogonek;
pos = (829,0);
},
{
name = top;
pos = (792,1510);
},
{
name = topleft;
pos = (512,1510);
}
);
layerId = m004;
shapes = (
{
closed = 1;
nodes = (
(1265,0,l),
(1283,244,l),
(846,244,l),
(918,1266,l),
(1353,1266,l),
(1369,1510,l),
(219,1510,l),
(201,1266,l),
(626,1266,l),
(554,244,l),
(127,244,l),
(111,0,l)
);
},
{
closed = 1;
nodes = (
(656,-484,o),
(722,-468,o),
(779,-437,c),
(790,-284,l),
(745,-309,o),
(686,-327,o),
(633,-327,cs),
(563,-327,o),
(509,-295,o),
(509,-236,cs),
(509,-147,o),
(626,-60,o),
(829,0,c),
(581,0,l),
(381,-39,o),
(279,-161,o),
(279,-278,cs),
(279,-400,o),
(399,-484,o),
(578,-484,cs)
);
}
);
width = 1480;
}
);
unicode = 302;
},
{
color = 4;
glyphname = Itilde;
kernLeft = KO_I;
kernRight = KO_I;
lastChange = "2022-03-23 22:41:43 +0000";
layers = (
{
anchors = (
{
name = bottom;
pos = (495,0);
},
{
name = ogonek;
pos = (579,0);
},
{
name = top;
pos = (625,1852);
},
{
name = topleft;
pos = (199,1510);
}
);
layerId = "FC837317-1536-49E4-8B36-958C77713550";
shapes = (
{
closed = 1;
nodes = (
(879,0,l),
(891,164,l),
(602,164,l),
(685,1346,l),
(972,1346,l),
(983,1510,l),
(219,1510,l),
(206,1346,l),
(493,1346,l),
(410,164,l),
(121,164,l),
(111,0,l)
);
},
{
closed = 1;
nodes = (
(464,1611,l),
(459,1630,o),
(457,1649,o),
(457,1667,cs),
(457,1716,o),
(470,1728,o),
(491,1728,cs),
(560,1728,o),
(659,1594,o),
(761,1594,cs),
(837,1594,o),
(913,1669,o),
(921,1793,cs),
(921,1793,o),
(923,1816,o),
(924,1842,c),
(776,1842,l),
(776,1840,o),
(776,1837,o),
(776,1835,cs),
(776,1726,o),
(762,1725,o),
(744,1725,cs),
(675,1725,o),
(619,1859,o),
(487,1859,cs),
(388,1859,o),
(311,1785,o),
(311,1652,cs),
(311,1641,o),
(311,1625,o),
(312,1611,c)
);
}
);
width = 1094;
},
{
anchors = (
{
name = bottom;
pos = (593,0);
},
{
name = ogonek;
pos = (738,0);
},
{
name = top;
pos = (727,1923);
},
{
name = topleft;
pos = (129,1510);
}
);
layerId = m014;
shapes = (
{
closed = 1;
nodes = (
(1074,0,l),
(1092,242,l),
(755,242,l),
(827,1268,l),
(1162,1268,l),
(1178,1510,l),
(219,1510,l),
(201,1268,l),
(535,1268,l),
(463,242,l),
(127,242,l),
(111,0,l)
);
},
{
closed = 1;
nodes = (
(560,1587,l),
(553,1604,o),
(550,1625,o),
(550,1640,cs),
(550,1670,o),
(564,1684,o),
(593,1684,cs),
(676,1684,o),
(771,1567,o),
(877,1567,cs),
(967,1567,o),
(1063,1655,o),
(1073,1799,cs),
(1073,1799,o),
(1075,1826,o),
(1076,1856,c),
(877,1856,l),
(877,1843,o),
(877,1830,o),
(877,1819,cs),
(877,1773,o),
(868,1759,o),
(837,1759,cs),
(756,1759,o),
(703,1876,o),
(569,1876,cs),
(453,1876,o),
(354,1790,o),
(354,1634,cs),
(354,1620,o),
(355,1602,o),
(356,1587,c)
);
}
);
width = 1289;
},
{
anchors = (
{
name = bottom;
pos = (595,0);
},
{
name = ogonek;
pos = (736,0);
},
{
name = top;
pos = (746,1852);
},
{
name = topleft;
pos = (442,1510);
}
);
layerId = m003;
shapes = (
{
closed = 1;
nodes = (
(1079,0,l),
(1092,168,l),
(703,168,l),
(785,1342,l),
(1172,1342,l),
(1183,1510,l),
(219,1510,l),
(206,1342,l),
(593,1342,l),
(511,168,l),
(122,168,l),
(111,0,l)
);
},
{
closed = 1;
nodes = (
(560,1611,l),
(555,1627,o),
(551,1648,o),
(551,1670,cs),
(551,1713,o),
(567,1728,o),
(610,1728,cs),
(686,1728,o),
(797,1594,o),
(909,1594,cs),
(998,1594,o),
(1086,1669,o),
(1094,1793,cs),
(1094,1793,o),
(1096,1816,o),
(1096,1842,c),
(923,1842,l),
(923,1833,o),
(923,1825,o),
(923,1816,cs),
(923,1738,o),
(915,1725,o),
(867,1725,cs),
(791,1725,o),
(729,1859,o),
(585,1859,cs),
(471,1859,o),
(380,1786,o),
(380,1661,cs),
(380,1644,o),
(381,1627,o),
(382,1611,c)
);
}
);
width = 1294;
},
{
anchors = (
{
name = bottom;
pos = (686,0);
},
{
name = ogonek;
pos = (829,0);
},
{
name = top;
pos = (820,1923);
},
{
name = topleft;
pos = (512,1510);
}
);
layerId = m004;
shapes = (
{
closed = 1;
nodes = (
(1265,0,l),
(1283,244,l),
(846,244,l),
(918,1266,l),
(1353,1266,l),
(1369,1510,l),
(219,1510,l),
(201,1266,l),
(626,1266,l),
(554,244,l),
(127,244,l),
(111,0,l)
);
},
{
closed = 1;
nodes = (
(635,1587,l),
(627,1604,o),
(623,1626,o),
(623,1641,cs),
(623,1676,o),
(646,1684,o),
(671,1684,cs),
(765,1684,o),
(873,1567,o),
(991,1567,cs),
(1093,1567,o),
(1201,1655,o),
(1211,1799,cs),
(1211,1799,o),
(1213,1826,o),
(1214,1856,c),
(989,1856,l),
(990,1841,o),
(990,1826,o),
(990,1814,cs),
(990,1773,o),
(979,1759,o),
(946,1759,cs),
(854,1759,o),
(793,1876,o),
(642,1876,cs),
(513,1876,o),
(403,1790,o),
(403,1643,cs),
(403,1626,o),
(404,1607,o),
(405,1587,c)
);
}
);
width = 1480;
}
);
unicode = 296;
},
{
color = 5;
glyphname = J;
kernLeft = KO_J;
kernRight = KO_J;
lastChange = "2022-03-23 22:41:43 +0000";
layers = (
{
anchors = (
{
name = bottom;
pos = (614,0);
},
{
name = top;
pos = (1011,1510);
}
);
layerId = "FC837317-1536-49E4-8B36-958C77713550";
shapes = (
{
closed = 1;
nodes = (
(870,-34,o),
(975,198,o),
(992,446,cs),
(1066,1510,l),
(874,1510,l),
(802,481,ls),
(784,226,o),
(713,136,o),
(537,136,cs),
(372,136,o),
(197,216,o),
(192,226,c),
(179,34,l),
(268,-5,o),
(406,-34,o),
(527,-34,cs)
);
}
);
width = 1335;
},
{
anchors = (
{
name = bottom;
pos = (577,0);
},
{
name = top;
pos = (944,1510);
}
);
layerId = m014;
shapes = (
{
closed = 1;
nodes = (
(728,-19,o),
(957,103,o),
(982,466,cs),
(1055,1510,l),
(765,1510,l),
(693,492,ls),
(683,345,o),
(654,243,o),
(462,243,cs),
(343,243,o),
(149,282,o),
(130,300,c),
(111,28,l),
(227,-7,o),
(337,-19,o),
(431,-19,cs)
);
}
);
width = 1262;
},
{
anchors = (
{
name = bottom;
pos = (654,0);
},
{
name = top;
pos = (1180,1510);
}
);
layerId = m003;
shapes = (
{
closed = 1;
nodes = (
(1158,-35,o),
(1179,256,o),
(1192,446,cs),
(1266,1510,l),
(1075,1510,l),
(1003,481,ls),
(985,217,o),
(874,136,o),
(644,136,cs),
(411,136,o),
(192,219,o),
(192,226,c),
(179,34,l),
(283,-1,o),
(478,-35,o),
(651,-35,cs)
);
}
);
width = 1535;
},
{
anchors = (
{
name = bottom;
pos = (689,0);
},
{
name = top;
pos = (1119,1510);
}
);
layerId = m004;
shapes = (
{
closed = 1;
nodes = (
(1000,-21,o),
(1158,121,o),
(1182,466,cs),
(1255,1510,l),
(966,1510,l),
(894,492,ls),
(882,314,o),
(804,243,o),
(567,243,cs),
(381,243,o),
(138,286,o),
(130,300,c),
(111,28,l),
(226,0,o),
(419,-21,o),
(580,-21,cs)
);
}
);
width = 1462;
}
);
unicode = 74;
userData = {
KernOnName = J;
};
},
{
color = 4;
glyphname = Jacute;
kernLeft = KO_J;
kernRight = KO_Jacute;
lastChange = "2022-03-23 22:41:43 +0000";
layers = (
{
anchors = (
{
name = bottom;
pos = (614,0);
},
{
name = top;
pos = (1147,1836);
}
);
layerId = "FC837317-1536-49E4-8B36-958C77713550";
shapes = (
{
closed = 1;
nodes = (
(870,-34,o),
(975,198,o),
(992,446,cs),
(1066,1510,l),
(874,1510,l),
(802,481,ls),
(784,226,o),
(713,136,o),
(537,136,cs),
(372,136,o),
(197,216,o),
(192,226,c),
(179,34,l),
(268,-5,o),
(406,-34,o),
(527,-34,cs)
);
},
{
closed = 1;
nodes = (
(1084,1612,l),
(1386,1844,l),
(1149,1844,l),
(908,1612,l)
);
}
);
width = 1359;
},
{
anchors = (
{
name = bottom;
pos = (577,0);
},
{
name = top;
pos = (1109,1898);
}
);
layerId = m014;
shapes = (
{
closed = 1;
nodes = (
(728,-19,o),
(957,103,o),
(982,466,cs),
(1055,1510,l),
(765,1510,l),
(693,492,ls),
(683,345,o),
(654,243,o),
(462,243,cs),
(343,243,o),
(149,282,o),
(130,300,c),
(111,28,l),
(227,-7,o),
(337,-19,o),
(431,-19,cs)
);
},
{
closed = 1;
nodes = (
(1032,1628,l),
(1393,1868,l),
(1107,1868,l),
(819,1628,l)
);
}
);
width = 1287;
},
{
anchors = (
{
name = bottom;
pos = (654,0);
},
{
name = top;
pos = (1403,1844);
}
);
layerId = m003;
shapes = (
{
closed = 1;
nodes = (
(1158,-35,o),
(1179,256,o),
(1192,446,cs),
(1266,1510,l),
(1075,1510,l),
(1003,481,ls),
(985,217,o),
(874,136,o),
(644,136,cs),
(411,136,o),
(192,219,o),
(192,226,c),
(179,34,l),
(283,-1,o),
(478,-35,o),
(651,-35,cs)
);
},
{
closed = 1;
nodes = (
(1291,1616,l),
(1726,1848,l),
(1419,1848,l),
(1063,1616,l)
);
}
);
width = 1559;
},
{
anchors = (
{
name = bottom;
pos = (689,0);
},
{
name = top;
pos = (1358,1868);
}
);
layerId = m004;
shapes = (
{
closed = 1;
nodes = (
(1000,-21,o),
(1158,121,o),
(1182,466,cs),
(1255,1510,l),
(966,1510,l),
(894,492,ls),
(882,314,o),
(804,243,o),
(567,243,cs),
(381,243,o),
(138,286,o),
(130,300,c),
(111,28,l),
(226,0,o),
(419,-21,o),
(580,-21,cs)
);
},
{
closed = 1;
nodes = (
(1261,1628,l),
(1667,1868,l),
(1278,1868,l),
(981,1628,l)
);
}
);
width = 1487;
}
);
},
{
color = 5;
glyphname = K;
kernLeft = KO_H;
kernRight = KO_K;
lastChange = "2022-03-23 22:41:43 +0000";
layers = (
{
anchors = (
{
name = bottom;
pos = (720,0);
},
{
name = top;
pos = (826,1510);
}
);
layerId = "FC837317-1536-49E4-8B36-958C77713550";
shapes = (
{
closed = 1;
nodes = (
(1421,1510,l),
(1189,1510,l),
(404,698,l),
(385,432,l)
);
},
{
closed = 1;
nodes = (
(375,0,l),
(481,1510,l),
(289,1510,l),
(183,0,l)
);
},
{
closed = 1;
nodes = (
(1425,0,l),
(805,916,l),
(653,794,l),
(1175,0,l)
);
}
);
width = 1440;
},
{
anchors = (
{
name = bottom;
pos = (676,0);
},
{
name = top;
pos = (824,1510);
}
);
layerId = m014;
shapes = (
{
closed = 1;
nodes = (
(1455,1510,l),
(1103,1510,l),
(458,810,l),
(433,462,l)
);
},
{
closed = 1;
nodes = (
(441,0,l),
(547,1510,l),
(257,1510,l),
(151,0,l)
);
},
{
closed = 1;
nodes = (
(1421,0,l),
(833,970,l),
(623,776,l),
(1081,0,l)
);
}
);
width = 1470;
},
{
anchors = (
{
name = bottom;
pos = (800,0);
},
{
name = top;
pos = (906,1510);
}
);
layerId = m003;
shapes = (
{
closed = 1;
nodes = (
(1590,1510,l),
(1349,1510,l),
(404,658,l),
(388,432,l)
);
},
{
closed = 1;
nodes = (
(374,0,l),
(480,1510,l),
(289,1510,l),
(183,0,l)
);
},
{
closed = 1;
nodes = (
(1625,0,l),
(880,916,l),
(721,794,l),
(1363,0,l)
);
}
);
width = 1640;
},
{
anchors = (
{
name = bottom;
pos = (798,0);
},
{
name = top;
pos = (904,1510);
}
);
layerId = m004;
shapes = (
{
closed = 1;
nodes = (
(1624,1510,l),
(1253,1510,l),
(459,780,l),
(436,462,l)
);
},
{
closed = 1;
nodes = (
(440,0,l),
(546,1510,l),
(257,1510,l),
(151,0,l)
);
},
{
closed = 1;
nodes = (
(1621,0,l),
(908,970,l),
(702,786,l),
(1259,0,l)
);
}
);
width = 1639;
}
);
metricLeft = "=H";
unicode = 75;
userData = {
KernOnName = K;
};
},
{
color = 4;
glyphname = Kcommaaccent;
kernLeft = KO_H;
kernRight = KO_K;
lastChange = "2022-03-23 22:41:43 +0000";
layers = (
{
anchors = (
{
name = bottom;
pos = (686,-481);
},
{
name = top;
pos = (826,1510);
}
);
layerId = "FC837317-1536-49E4-8B36-958C77713550";
shapes = (
{
closed = 1;
nodes = (
(1421,1510,l),
(1189,1510,l),
(404,698,l),
(385,432,l)
);
},
{
closed = 1;
nodes = (
(375,0,l),
(481,1510,l),
(289,1510,l),
(183,0,l)
);
},
{
closed = 1;
nodes = (
(1425,0,l),
(805,916,l),
(653,794,l),
(1175,0,l)
);
},
{
closed = 1;
nodes = (
(691,-421,l),
(875,-95,l),
(680,-95,l),
(529,-421,l)
);
}
);
width = 1440;
},
{
anchors = (
{
name = bottom;
pos = (642,-481);
},
{
name = top;
pos = (824,1510);
}
);
layerId = m014;
shapes = (
{
closed = 1;
nodes = (
(1455,1510,l),
(1103,1510,l),
(458,810,l),
(433,462,l)
);
},
{
closed = 1;
nodes = (
(441,0,l),
(547,1510,l),
(257,1510,l),
(151,0,l)
);
},
{
closed = 1;
nodes = (
(1421,0,l),
(833,970,l),
(623,776,l),
(1081,0,l)
);
},
{
closed = 1;
nodes = (
(652,-492,l),
(866,-84,l),
(630,-84,l),
(456,-492,l)
);
}
);
width = 1470;
},
{
anchors = (
{
name = bottom;
pos = (639,-481);
},
{
name = top;
pos = (906,1510);
}
);
layerId = m003;
shapes = (
{
closed = 1;
nodes = (
(1590,1510,l),
(1349,1510,l),
(404,658,l),
(388,432,l)
);
},
{
closed = 1;
nodes = (
(374,0,l),
(480,1510,l),
(289,1510,l),
(183,0,l)
);
},
{
closed = 1;
nodes = (
(1625,0,l),
(880,916,l),
(721,794,l),
(1363,0,l)
);
},
{
closed = 1;
nodes = (
(644,-421,l),
(930,-95,l),
(715,-95,l),
(482,-421,l)
);
}
);
width = 1640;
},
{
anchors = (
{
name = bottom;
pos = (764,-481);
},
{
name = top;
pos = (904,1510);
}
);
layerId = m004;
shapes = (
{
closed = 1;
nodes = (
(1624,1510,l),
(1253,1510,l),
(459,780,l),
(436,462,l)
);
},
{
closed = 1;
nodes = (
(440,0,l),
(546,1510,l),
(257,1510,l),
(151,0,l)
);
},
{
closed = 1;
nodes = (
(1621,0,l),
(908,970,l),
(702,786,l),
(1259,0,l)
);
},
{
closed = 1;
nodes = (
(774,-492,l),
(1004,-84,l),
(748,-84,l),
(562,-492,l)
);
}
);
width = 1639;
}
);
unicode = 310;
},
{
color = 5;
glyphname = L;
kernLeft = KO_H;
kernRight = KO_L;
lastChange = "2022-03-23 22:41:43 +0000";
layers = (
{
anchors = (
{
name = bottom;
pos = (555,0);
},
{
name = center;
pos = (432,810);
},
{
name = top;
pos = (693,1510);
},
{
name = topright;
pos = (830,1510);
}
);
layerId = "FC837317-1536-49E4-8B36-958C77713550";
shapes = (
{
closed = 1;
nodes = (
(1027,0,l),
(1040,188,l),
(312,188,l),
(382,96,l),
(481,1510,l),
(289,1510,l),
(183,0,l)
);
}
);
width = 1123;
},
{
anchors = (
{
name = bottom;
pos = (568,0);
},
{
name = center;
pos = (387,804);
},
{
name = top;
pos = (674,1510);
},
{
name = topright;
pos = (927,1510);
}
);
layerId = m014;
shapes = (
{
closed = 1;
nodes = (
(1025,0,l),
(1043,260,l),
(371,260,l),
(453,150,l),
(549,1510,l),
(257,1510,l),
(151,0,l)
);
}
);
width = 1154;
},
{
anchors = (
{
name = bottom;
pos = (699,0);
},
{
name = center;
pos = (391,815);
},
{
name = top;
pos = (832,1504);
},
{
name = topright;
pos = (934,1510);
}
);
layerId = m003;
shapes = (
{
closed = 1;
nodes = (
(1227,0,l),
(1240,188,l),
(298,188,l),
(380,96,l),
(479,1510,l),
(289,1510,l),
(183,0,l)
);
}
);
width = 1323;
},
{
anchors = (
{
name = bottom;
pos = (640,0);
},
{
name = center;
pos = (479,833);
},
{
name = top;
pos = (820,1510);
},
{
name = topright;
pos = (1031,1510);
}
);
layerId = m004;
shapes = (
{
closed = 1;
nodes = (
(1225,0,l),
(1243,260,l),
(357,260,l),
(451,150,l),
(547,1510,l),
(257,1510,l),
(151,0,l)
);
}
);
width = 1354;
}
);
metricLeft = H;
unicode = 76;
userData = {
KernOnName = L;
};
},
{
color = 4;
glyphname = Lacute;
kernLeft = KO_H;
kernRight = KO_Lslash;
lastChange = "2022-03-23 22:41:43 +0000";
layers = (
{
anchors = (
{
name = bottom;
pos = (555,0);
},
{
name = center;
pos = (432,810);
},
{
name = top;
pos = (828,1836);
},
{
name = topright;
pos = (830,1510);
}
);
layerId = "FC837317-1536-49E4-8B36-958C77713550";
shapes = (
{
closed = 1;
nodes = (
(1027,0,l),
(1040,188,l),
(312,188,l),
(382,96,l),
(481,1510,l),
(289,1510,l),
(183,0,l)
);
},
{
closed = 1;
nodes = (
(766,1612,l),
(1067,1844,l),
(830,1844,l),
(590,1612,l)
);
}
);
width = 1150;
},
{
anchors = (
{
name = bottom;
pos = (568,0);
},
{
name = center;
pos = (387,804);
},
{
name = top;
pos = (839,1898);
},
{
name = topright;
pos = (927,1510);
}
);
layerId = m014;
shapes = (
{
closed = 1;
nodes = (
(1025,0,l),
(1043,260,l),
(371,260,l),
(453,150,l),
(549,1510,l),
(257,1510,l),
(151,0,l)
);
},
{
closed = 1;
nodes = (
(762,1628,l),
(1123,1868,l),
(837,1868,l),
(549,1628,l)
);
}
);
width = 1234;
},
{
anchors = (
{
name = bottom;
pos = (699,0);
},
{
name = center;
pos = (391,815);
},
{
name = top;
pos = (1055,1838);
},
{
name = topright;
pos = (934,1510);
}
);
layerId = m003;
shapes = (
{
closed = 1;
nodes = (
(1227,0,l),
(1240,188,l),
(298,188,l),
(380,96,l),
(479,1510,l),
(289,1510,l),
(183,0,l)
);
},
{
closed = 1;
nodes = (
(943,1610,l),
(1378,1842,l),
(1071,1842,l),
(715,1610,l)
);
}
);
width = 1439;
},
{
anchors = (
{
name = bottom;
pos = (640,0);
},
{
name = center;
pos = (479,833);
},
{
name = top;
pos = (1059,1868);
},
{
name = topright;
pos = (1031,1510);
}
);
layerId = m004;
shapes = (
{
closed = 1;
nodes = (
(1225,0,l),
(1243,260,l),
(357,260,l),
(451,150,l),
(547,1510,l),
(257,1510,l),
(151,0,l)
);
},
{
closed = 1;
nodes = (
(962,1628,l),
(1368,1868,l),
(979,1868,l),
(682,1628,l)
);
}
);
width = 1467;
}
);
unicode = 313;
},
{
color = 4;
glyphname = Lcaron;
kernLeft = KO_H;
kernRight = KO_rcaron;
lastChange = "2022-03-23 22:41:43 +0000";
layers = (
{
anchors = (
{
name = bottom;
pos = (555,0);
},
{
name = center;
pos = (432,810);
},
{
name = top;
pos = (693,1510);
},
{
name = topright;
pos = (830,1510);
}
);
layerId = "FC837317-1536-49E4-8B36-958C77713550";
shapes = (
{
closed = 1;
nodes = (
(1027,0,l),
(1040,188,l),
(312,188,l),
(382,96,l),
(481,1510,l),
(289,1510,l),
(183,0,l)
);
},
{
closed = 1;
nodes = (
(1042,1184,l),
(1217,1504,l),
(1030,1504,l),
(896,1184,l)
);
}
);
width = 1215;
},
{
anchors = (
{
name = bottom;
pos = (568,0);
},
{
name = center;
pos = (387,804);
},
{
name = top;
pos = (674,1510);
},
{
name = topright;
pos = (927,1510);
}
);
layerId = m014;
shapes = (
{
closed = 1;
nodes = (
(1025,0,l),
(1043,260,l),
(371,260,l),
(453,150,l),
(549,1510,l),
(257,1510,l),
(151,0,l)
);
},
{
closed = 1;
nodes = (
(939,1106,l),
(1153,1510,l),
(927,1510,l),
(763,1106,l)
);
}
);
width = 1242;
},
{
anchors = (
{
name = bottom;
pos = (699,0);
},
{
name = center;
pos = (391,815);
},
{
name = top;
pos = (832,1504);
},
{
name = topright;
pos = (934,1510);
}
);
layerId = m003;
shapes = (
{
closed = 1;
nodes = (
(1227,0,l),
(1240,188,l),
(298,188,l),
(380,96,l),
(479,1510,l),
(289,1510,l),
(183,0,l)
);
},
{
closed = 1;
nodes = (
(1144,1164,l),
(1321,1504,l),
(1134,1504,l),
(998,1164,l)
);
}
);
width = 1404;
},
{
anchors = (
{
name = bottom;
pos = (640,0);
},
{
name = center;
pos = (479,833);
},
{
name = top;
pos = (820,1510);
},
{
name = topright;
pos = (1031,1510);
}
);
layerId = m004;
shapes = (
{
closed = 1;
nodes = (
(1225,0,l),
(1243,260,l),
(357,260,l),
(451,150,l),
(547,1510,l),
(257,1510,l),
(151,0,l)
);
},
{
closed = 1;
nodes = (
(1042,1106,l),
(1280,1510,l),
(1025,1510,l),
(844,1106,l)
);
}
);
width = 1391;
}
);
unicode = 317;
},
{
color = 4;
glyphname = Lcommaaccent;
kernLeft = KO_H;
kernRight = KO_A;
lastChange = "2022-03-23 22:41:43 +0000";
layers = (
{
anchors = (
{
name = bottom;
pos = (521,-481);
},
{
name = center;
pos = (432,810);
},
{
name = top;
pos = (693,1510);
},
{
name = topright;
pos = (830,1510);
}
);
layerId = "FC837317-1536-49E4-8B36-958C77713550";
shapes = (
{
closed = 1;
nodes = (
(1027,0,l),
(1040,188,l),
(312,188,l),
(382,96,l),
(481,1510,l),
(289,1510,l),
(183,0,l)
);
},
{
closed = 1;
nodes = (
(526,-421,l),
(710,-95,l),
(515,-95,l),
(364,-421,l)
);
}
);
width = 1123;
},
{
anchors = (
{
name = bottom;
pos = (534,-481);
},
{
name = center;
pos = (387,804);
},
{
name = top;
pos = (674,1510);
},
{
name = topright;
pos = (927,1510);
}
);
layerId = m014;
shapes = (
{
closed = 1;
nodes = (
(1025,0,l),
(1043,260,l),
(371,260,l),
(453,150,l),
(549,1510,l),
(257,1510,l),
(151,0,l)
);
},
{
closed = 1;
nodes = (
(544,-492,l),
(758,-84,l),
(522,-84,l),
(348,-492,l)
);
}
);
width = 1154;
},
{
anchors = (
{
name = bottom;
pos = (538,-481);
},
{
name = center;
pos = (391,815);
},
{
name = top;
pos = (832,1504);
},
{
name = topright;
pos = (934,1510);
}
);
layerId = m003;
shapes = (
{
closed = 1;
nodes = (
(1227,0,l),
(1240,188,l),
(298,188,l),
(380,96,l),
(479,1510,l),
(289,1510,l),
(183,0,l)
);
},
{
closed = 1;
nodes = (
(543,-421,l),
(829,-95,l),
(614,-95,l),
(381,-421,l)
);
}
);
width = 1323;
},
{
anchors = (
{
name = bottom;
pos = (606,-481);
},
{
name = center;
pos = (479,833);
},
{
name = top;
pos = (820,1510);
},
{
name = topright;
pos = (1031,1510);
}
);
layerId = m004;
shapes = (
{
closed = 1;
nodes = (
(1225,0,l),
(1243,260,l),
(357,260,l),
(451,150,l),
(547,1510,l),
(257,1510,l),
(151,0,l)
);
},
{
closed = 1;
nodes = (
(616,-492,l),
(846,-84,l),
(590,-84,l),
(404,-492,l)
);
}
);
width = 1354;
}
);
unicode = 315;
},
{
color = 5;
glyphname = Lslash;
kernLeft = KO_Lslash;
kernRight = KO_Lslash;
lastChange = "2022-03-23 22:41:43 +0000";
layers = (
{
anchors = (
{
name = bottom;
pos = (500,0);
},
{
name = center;
pos = (376,810);
},
{
name = top;
pos = (637,1510);
},
{
name = topright;
pos = (774,1510);
}
);
layerId = "FC837317-1536-49E4-8B36-958C77713550";
shapes = (
{
closed = 1;
nodes = (
(972,0,l),
(985,188,l),
(257,188,l),
(326,96,l),
(425,1510,l),
(233,1510,l),
(128,0,l)
);
},
{
closed = 1;
nodes = (
(710,828,l),
(699,996,l),
(42,792,l),
(52,624,l)
);
}
);
width = 1068;
},
{
anchors = (
{
name = bottom;
pos = (511,0);
},
{
name = center;
pos = (330,804);
},
{
name = top;
pos = (617,1510);
},
{
name = topright;
pos = (870,1510);
}
);
layerId = m014;
shapes = (
{
closed = 1;
nodes = (
(968,0,l),
(986,260,l),
(314,260,l),
(396,150,l),
(492,1510,l),
(200,1510,l),
(94,0,l)
);
},
{
closed = 1;
nodes = (
(699,794,l),
(685,996,l),
(-40,816,l),
(-25,613,l)
);
}
);
width = 1097;
},
{
anchors = (
{
name = bottom;
pos = (643,0);
},
{
name = center;
pos = (335,815);
},
{
name = top;
pos = (776,1504);
},
{
name = topright;
pos = (878,1510);
}
);
layerId = m003;
shapes = (
{
closed = 1;
nodes = (
(1171,0,l),
(1184,188,l),
(242,188,l),
(324,96,l),
(423,1510,l),
(233,1510,l),
(127,0,l)
);
},
{
closed = 1;
nodes = (
(677,833,l),
(663,1001,l),
(13,797,l),
(26,629,l)
);
}
);
width = 1267;
},
{
anchors = (
{
name = bottom;
pos = (581,0);
},
{
name = center;
pos = (420,833);
},
{
name = top;
pos = (761,1510);
},
{
name = topright;
pos = (972,1510);
}
);
layerId = m004;
shapes = (
{
closed = 1;
nodes = (
(1166,0,l),
(1184,260,l),
(298,260,l),
(392,150,l),
(488,1510,l),
(198,1510,l),
(92,0,l)
);
},
{
closed = 1;
nodes = (
(853,823,l),
(834,1025,l),
(-14,845,l),
(6,642,l)
);
}
);
width = 1295;
}
);
unicode = 321;
},
{
color = 5;
glyphname = M;
kernLeft = KO_H;
kernRight = KO_H;
lastChange = "2022-03-23 22:41:43 +0000";
layers = (
{
anchors = (
{
name = bottom;
pos = (928,0);
},
{
name = top;
pos = (1034,1510);
}
);
layerId = "FC837317-1536-49E4-8B36-958C77713550";
shapes = (
{
closed = 1;
nodes = (
(371,0,l),
(433,883,l),
(445,1151,l),
(455,1151,l),
(833,0,l),
(1023,0,l),
(1563,1151,l),
(1573,1151,l),
(1547,883,l),
(1485,0,l),
(1673,0,l),
(1779,1510,l),
(1541,1510,l),
(996,360,ls),
(952,267,o),
(948,260,o),
(945,222,c),
(941,222,l),
(939,263,o),
(938,270,o),
(910,354,cs),
(523,1510,l),
(289,1510,l),
(183,0,l)
);
}
);
width = 1962;
},
{
anchors = (
{
name = bottom;
pos = (953,0);
},
{
name = top;
pos = (1059,1510);
}
);
layerId = m014;
shapes = (
{
closed = 1;
nodes = (
(441,0,l),
(492,736,l),
(494,1190,l),
(500,1190,l),
(829,0,l),
(1077,0,l),
(1572,1194,l),
(1578,1194,l),
(1516,736,l),
(1465,0,l),
(1755,0,l),
(1861,1510,l),
(1443,1510,l),
(1036,508,ls),
(995,407,o),
(984,386,o),
(981,350,c),
(973,350,l),
(976,386,o),
(967,409,o),
(941,508,cs),
(675,1510,l),
(257,1510,l),
(151,0,l)
);
}
);
width = 2012;
},
{
anchors = (
{
name = bottom;
pos = (1028,0);
},
{
name = top;
pos = (1134,1510);
}
);
background = {
shapes = (
{
closed = 1;
nodes = (
(368,0,l),
(368,886,l),
(378,1116,l),
(382,1116,l),
(927,0,l),
(1132,0,l),
(1677,1172,l),
(1687,1172,l),
(1688,886,l),
(1688,0,l),
(1873,0,l),
(1873,1510,l),
(1672,1510,l),
(1097,390,l),
(1029,210,l),
(1024,210,l),
(959,390,l),
(384,1510,l),
(183,1510,l),
(183,0,l)
);
}
);
};
layerId = m003;
shapes = (
{
closed = 1;
nodes = (
(368,0,l),
(423,786,l),
(439,1184,l),
(449,1184,l),
(931,0,l),
(1125,0,l),
(1776,1184,l),
(1786,1184,l),
(1743,786,l),
(1688,0,l),
(1873,0,l),
(1979,1510,l),
(1758,1510,l),
(1102,321,ls),
(1063,250,o),
(1050,225,o),
(1045,188,c),
(1042,188,l),
(1039,223,o),
(1035,245,o),
(1006,315,cs),
(512,1510,l),
(289,1510,l),
(183,0,l)
);
}
);
width = 2162;
},
{
anchors = (
{
name = bottom;
pos = (1053,0);
},
{
name = top;
pos = (1159,1510);
}
);
background = {
shapes = (
{
closed = 1;
nodes = (
(438,0,l),
(438,536,l),
(418,1190,l),
(424,1190,l),
(923,0,l),
(1184,0,l),
(1683,1194,l),
(1691,1194,l),
(1668,536,l),
(1668,0,l),
(1955,0,l),
(1955,1510,l),
(1562,1510,l),
(1113,508,l),
(1055,338,l),
(1050,338,l),
(993,508,l),
(544,1510,l),
(151,1510,l),
(151,0,l)
);
},
{
closed = 1;
nodes = (
(438,0,l),
(438,536,l),
(418,1190,l),
(424,1190,l),
(923,0,l),
(1184,0,l),
(1683,1194,l),
(1691,1194,l),
(1668,536,l),
(1668,0,l),
(1955,0,l),
(1955,1510,l),
(1562,1510,l),
(1113,508,l),
(1055,338,l),
(1050,338,l),
(993,508,l),
(544,1510,l),
(151,1510,l),
(151,0,l)
);
}
);
};
layerId = m004;
shapes = (
{
closed = 1;
nodes = (
(438,0,l),
(492,776,l),
(494,1190,l),
(502,1190,l),
(924,0,l),
(1182,0,l),
(1771,1194,l),
(1779,1194,l),
(1722,776,l),
(1668,0,l),
(1955,0,l),
(2061,1510,l),
(1662,1510,l),
(1144,478,ls),
(1096,382,o),
(1086,355,o),
(1082,320,c),
(1075,320,l),
(1076,357,o),
(1074,378,o),
(1037,478,cs),
(660,1510,l),
(257,1510,l),
(151,0,l)
);
}
);
width = 2212;
}
);
metricLeft = "=H";
metricRight = "=H";
unicode = 77;
},
{
color = 5;
glyphname = N;
kernLeft = KO_H;
kernRight = KO_H;
lastChange = "2022-03-23 22:41:43 +0000";
layers = (
{
anchors = (
{
name = bottom;
pos = (764,0);
},
{
name = top;
pos = (870,1510);
}
);
layerId = "FC837317-1536-49E4-8B36-958C77713550";
shapes = (
{
closed = 1;
nodes = (
(375,0,l),
(441,947,ls),
(447,1035,o),
(448,1108,o),
(444,1225,c),
(449,1225,l),
(1137,0,l),
(1345,0,l),
(1451,1510,l),
(1259,1510,l),
(1193,573,ls),
(1186,478,o),
(1188,404,o),
(1191,289,c),
(1185,289,l),
(503,1510,l),
(289,1510,l),
(183,0,l)
);
}
);
width = 1634;
},
{
anchors = (
{
name = bottom;
pos = (756,0);
},
{
name = top;
pos = (892,1510);
}
);
layerId = m014;
shapes = (
{
closed = 1;
nodes = (
(441,0,l),
(496,780,ls),
(504,893,o),
(500,1014,o),
(492,1120,c),
(496,1120,l),
(1080,0,l),
(1421,0,l),
(1527,1510,l),
(1237,1510,l),
(1181,712,ls),
(1174,614,o),
(1176,533,o),
(1185,398,c),
(1181,398,l),
(596,1510,l),
(257,1510,l),
(151,0,l)
);
}
);
width = 1678;
},
{
anchors = (
{
name = bottom;
pos = (874,0);
},
{
name = top;
pos = (980,1510);
}
);
layerId = m003;
shapes = (
{
closed = 1;
nodes = (
(374,0,l),
(441,952,ls),
(447,1032,o),
(451,1108,o),
(443,1230,c),
(448,1230,l),
(1350,0,l),
(1545,0,l),
(1651,1510,l),
(1460,1510,l),
(1394,568,ls),
(1387,473,o),
(1383,405,o),
(1391,284,c),
(1386,284,l),
(494,1510,l),
(289,1510,l),
(183,0,l)
);
}
);
width = 1834;
},
{
anchors = (
{
name = bottom;
pos = (886,0);
},
{
name = top;
pos = (992,1510);
}
);
background = {
anchors = (
{
name = bottom;
pos = (886,0);
},
{
name = top;
pos = (886,1510);
}
);
shapes = (
{
closed = 1;
nodes = (
(440,0,l),
(440,720,l),
(411,1120,l),
(416,1120,l),
(1296,0,l),
(1621,0,l),
(1621,1510,l),
(1332,1510,l),
(1332,742,l),
(1361,398,l),
(1356,398,l),
(478,1510,l),
(151,1510,l),
(151,0,l)
);
}
);
};
layerId = m004;
shapes = (
{
closed = 1;
nodes = (
(440,0,l),
(498,834,ls),
(505,931,o),
(500,1035,o),
(495,1120,c),
(500,1120,l),
(1289,0,l),
(1621,0,l),
(1727,1510,l),
(1438,1510,l),
(1381,702,ls),
(1375,619,o),
(1374,536,o),
(1382,398,c),
(1377,398,l),
(592,1510,l),
(257,1510,l),
(151,0,l)
);
}
);
width = 1878;
}
);
metricLeft = "=H";
metricRight = "=H";
unicode = 78;
userData = {
KernOnName = N;
};
},
{
color = 4;
glyphname = Nacute;
kernLeft = KO_H;
kernRight = KO_H;
lastChange = "2022-03-23 22:41:43 +0000";
layers = (
{
anchors = (
{
name = bottom;
pos = (764,0);
},
{
name = top;
pos = (1005,1836);
}
);
layerId = "FC837317-1536-49E4-8B36-958C77713550";
shapes = (
{
closed = 1;
nodes = (
(375,0,l),
(441,947,ls),
(447,1035,o),
(448,1108,o),
(444,1225,c),
(449,1225,l),
(1137,0,l),
(1345,0,l),
(1451,1510,l),
(1259,1510,l),
(1193,573,ls),
(1186,478,o),
(1188,404,o),
(1191,289,c),
(1185,289,l),
(503,1510,l),
(289,1510,l),
(183,0,l)
);
},
{
closed = 1;
nodes = (
(943,1612,l),
(1244,1844,l),
(1007,1844,l),
(767,1612,l)
);
}
);
width = 1634;
},
{
anchors = (
{
name = bottom;
pos = (756,0);
},
{
name = top;
pos = (1057,1898);
}
);
layerId = m014;
shapes = (
{
closed = 1;
nodes = (
(441,0,l),
(496,780,ls),
(504,893,o),
(500,1014,o),
(492,1120,c),
(496,1120,l),
(1080,0,l),
(1421,0,l),
(1527,1510,l),
(1237,1510,l),
(1181,712,ls),
(1174,614,o),
(1176,533,o),
(1185,398,c),
(1181,398,l),
(596,1510,l),
(257,1510,l),
(151,0,l)
);
},
{
closed = 1;
nodes = (
(980,1628,l),
(1341,1868,l),
(1055,1868,l),
(767,1628,l)
);
}
);
width = 1678;
},
{
anchors = (
{
name = bottom;
pos = (874,0);
},
{
name = top;
pos = (1202,1844);
}
);
layerId = m003;
shapes = (
{
closed = 1;
nodes = (
(374,0,l),
(441,952,ls),
(447,1032,o),
(451,1108,o),
(443,1230,c),
(448,1230,l),
(1350,0,l),
(1545,0,l),
(1651,1510,l),
(1460,1510,l),
(1394,568,ls),
(1387,473,o),
(1383,405,o),
(1391,284,c),
(1386,284,l),
(494,1510,l),
(289,1510,l),
(183,0,l)
);
},
{
closed = 1;
nodes = (
(1090,1616,l),
(1525,1848,l),
(1218,1848,l),
(862,1616,l)
);
}
);
width = 1834;
},
{
anchors = (
{
name = bottom;
pos = (886,0);
},
{
name = top;
pos = (1231,1868);
}
);
layerId = m004;
shapes = (
{
closed = 1;
nodes = (
(440,0,l),
(498,834,ls),
(505,931,o),
(500,1035,o),
(495,1120,c),
(500,1120,l),
(1289,0,l),
(1621,0,l),
(1727,1510,l),
(1438,1510,l),
(1381,702,ls),
(1375,619,o),
(1374,536,o),
(1382,398,c),
(1377,398,l),
(592,1510,l),
(257,1510,l),
(151,0,l)
);
},
{
closed = 1;
nodes = (
(1134,1628,l),
(1540,1868,l),
(1151,1868,l),
(854,1628,l)
);
}
);
width = 1878;
}
);
unicode = 323;
},
{
color = 4;
glyphname = Ncaron;
kernLeft = KO_H;
kernRight = KO_H;
lastChange = "2022-03-23 22:41:43 +0000";
layers = (
{
anchors = (
{
name = bottom;
pos = (764,0);
},
{
name = top;
pos = (895,1867);
}
);
layerId = "FC837317-1536-49E4-8B36-958C77713550";
shapes = (
{
closed = 1;
nodes = (
(375,0,l),
(441,947,ls),
(447,1035,o),
(448,1108,o),
(444,1225,c),
(449,1225,l),
(1137,0,l),
(1345,0,l),
(1451,1510,l),
(1259,1510,l),
(1193,573,ls),
(1186,478,o),
(1188,404,o),
(1191,289,c),
(1185,289,l),
(503,1510,l),
(289,1510,l),
(183,0,l)
);
},
{
closed = 1;
nodes = (
(852,1657,l),
(909,1657,l),
(751,1867,l),
(548,1867,l),
(771,1602,l),
(980,1602,l),
(1241,1867,l),
(1038,1867,l)
);
}
);
width = 1634;
},
{
anchors = (
{
name = bottom;
pos = (756,0);
},
{
name = top;
pos = (916,1864);
}
);
layerId = m014;
shapes = (
{
closed = 1;
nodes = (
(441,0,l),
(496,780,ls),
(504,893,o),
(500,1014,o),
(492,1120,c),
(496,1120,l),
(1080,0,l),
(1421,0,l),
(1527,1510,l),
(1237,1510,l),
(1181,712,ls),
(1174,614,o),
(1176,533,o),
(1185,398,c),
(1181,398,l),
(596,1510,l),
(257,1510,l),
(151,0,l)
);
},
{
closed = 1;
nodes = (
(896,1734,l),
(919,1734,l),
(784,1864,l),
(496,1864,l),
(773,1627,l),
(1026,1627,l),
(1335,1864,l),
(1047,1864,l)
);
}
);
width = 1678;
},
{
anchors = (
{
name = bottom;
pos = (874,0);
},
{
name = top;
pos = (1005,1869);
}
);
layerId = m003;
shapes = (
{
closed = 1;
nodes = (
(374,0,l),
(441,952,ls),
(447,1032,o),
(451,1108,o),
(443,1230,c),
(448,1230,l),
(1350,0,l),
(1545,0,l),
(1651,1510,l),
(1460,1510,l),
(1394,568,ls),
(1387,473,o),
(1383,405,o),
(1391,284,c),
(1386,284,l),
(494,1510,l),
(289,1510,l),
(183,0,l)
);
},
{
closed = 1;
nodes = (
(956,1671,l),
(1028,1671,l),
(824,1881,l),
(566,1881,l),
(854,1616,l),
(1119,1616,l),
(1445,1881,l),
(1187,1881,l)
);
}
);
width = 1834;
},
{
anchors = (
{
name = bottom;
pos = (886,0);
},
{
name = top;
pos = (1016,1864);
}
);
layerId = m004;
shapes = (
{
closed = 1;
nodes = (
(440,0,l),
(498,834,ls),
(505,931,o),
(500,1035,o),
(495,1120,c),
(500,1120,l),
(1289,0,l),
(1621,0,l),
(1727,1510,l),
(1438,1510,l),
(1381,702,ls),
(1375,619,o),
(1374,536,o),
(1382,398,c),
(1377,398,l),
(592,1510,l),
(257,1510,l),
(151,0,l)
);
},
{
closed = 1;
nodes = (
(994,1734,l),
(1021,1734,l),
(861,1864,l),
(524,1864,l),
(851,1627,l),
(1148,1627,l),
(1507,1864,l),
(1170,1864,l)
);
}
);
width = 1878;
}
);
unicode = 327;
},
{
color = 4;
glyphname = Ncommaaccent;
kernLeft = KO_H;
kernRight = KO_H;
lastChange = "2022-03-23 22:41:43 +0000";
layers = (
{
anchors = (
{
name = bottom;
pos = (730,-481);
},
{
name = top;
pos = (870,1510);
}
);
layerId = "FC837317-1536-49E4-8B36-958C77713550";
shapes = (
{
closed = 1;
nodes = (
(375,0,l),
(441,947,ls),
(447,1035,o),
(448,1108,o),
(444,1225,c),
(449,1225,l),
(1137,0,l),
(1345,0,l),
(1451,1510,l),
(1259,1510,l),
(1193,573,ls),
(1186,478,o),
(1188,404,o),
(1191,289,c),
(1185,289,l),
(503,1510,l),
(289,1510,l),
(183,0,l)
);
},
{
closed = 1;
nodes = (
(735,-421,l),
(919,-95,l),
(724,-95,l),
(573,-421,l)
);
}
);
width = 1634;
},
{
anchors = (
{
name = bottom;
pos = (722,-481);
},
{
name = top;
pos = (892,1510);
}
);
layerId = m014;
shapes = (
{
closed = 1;
nodes = (
(441,0,l),
(496,780,ls),
(504,893,o),
(500,1014,o),
(492,1120,c),
(496,1120,l),
(1080,0,l),
(1421,0,l),
(1527,1510,l),
(1237,1510,l),
(1181,712,ls),
(1174,614,o),
(1176,533,o),
(1185,398,c),
(1181,398,l),
(596,1510,l),
(257,1510,l),
(151,0,l)
);
},
{
closed = 1;
nodes = (
(732,-492,l),
(946,-84,l),
(710,-84,l),
(536,-492,l)
);
}
);
width = 1678;
},
{
anchors = (
{
name = bottom;
pos = (713,-481);
},
{
name = top;
pos = (980,1510);
}
);
layerId = m003;
shapes = (
{
closed = 1;
nodes = (
(374,0,l),
(441,952,ls),
(447,1032,o),
(451,1108,o),
(443,1230,c),
(448,1230,l),
(1350,0,l),
(1545,0,l),
(1651,1510,l),
(1460,1510,l),
(1394,568,ls),
(1387,473,o),
(1383,405,o),
(1391,284,c),
(1386,284,l),
(494,1510,l),
(289,1510,l),
(183,0,l)
);
},
{
closed = 1;
nodes = (
(718,-421,l),
(1004,-95,l),
(789,-95,l),
(556,-421,l)
);
}
);
width = 1834;
},
{
anchors = (
{
name = bottom;
pos = (852,-481);
},
{
name = top;
pos = (992,1510);
}
);
layerId = m004;
shapes = (
{
closed = 1;
nodes = (
(440,0,l),
(498,834,ls),
(505,931,o),
(500,1035,o),
(495,1120,c),
(500,1120,l),
(1289,0,l),
(1621,0,l),
(1727,1510,l),
(1438,1510,l),
(1381,702,ls),
(1375,619,o),
(1374,536,o),
(1382,398,c),
(1377,398,l),
(592,1510,l),
(257,1510,l),
(151,0,l)
);
},
{
closed = 1;
nodes = (
(862,-492,l),
(1092,-84,l),
(836,-84,l),
(650,-492,l)
);
}
);
width = 1878;
}
);
unicode = 325;
},
{
color = 4;
glyphname = Ntilde;
kernLeft = KO_H;
kernRight = KO_H;
lastChange = "2022-03-23 22:41:43 +0000";
layers = (
{
anchors = (
{
name = bottom;
pos = (764,0);
},
{
name = top;
pos = (894,1852);
}
);
layerId = "FC837317-1536-49E4-8B36-958C77713550";
shapes = (
{
closed = 1;
nodes = (
(375,0,l),
(441,947,ls),
(447,1035,o),
(448,1108,o),
(444,1225,c),
(449,1225,l),
(1137,0,l),
(1345,0,l),
(1451,1510,l),
(1259,1510,l),
(1193,573,ls),
(1186,478,o),
(1188,404,o),
(1191,289,c),
(1185,289,l),
(503,1510,l),
(289,1510,l),
(183,0,l)
);
},
{
closed = 1;
nodes = (
(733,1611,l),
(728,1630,o),
(726,1649,o),
(726,1667,cs),
(726,1716,o),
(739,1728,o),
(760,1728,cs),
(829,1728,o),
(928,1594,o),
(1030,1594,cs),
(1106,1594,o),
(1182,1669,o),
(1190,1793,cs),
(1190,1793,o),
(1192,1816,o),
(1193,1842,c),
(1045,1842,l),
(1045,1840,o),
(1045,1837,o),
(1045,1835,cs),
(1045,1726,o),
(1031,1725,o),
(1013,1725,cs),
(944,1725,o),
(888,1859,o),
(756,1859,cs),
(657,1859,o),
(580,1785,o),
(580,1652,cs),
(580,1639,o),
(580,1626,o),
(581,1611,c)
);
}
);
width = 1634;
},
{
anchors = (
{
name = bottom;
pos = (756,0);
},
{
name = top;
pos = (920,1923);
}
);
layerId = m014;
shapes = (
{
closed = 1;
nodes = (
(441,0,l),
(496,780,ls),
(504,893,o),
(500,1014,o),
(492,1120,c),
(496,1120,l),
(1080,0,l),
(1421,0,l),
(1527,1510,l),
(1237,1510,l),
(1181,712,ls),
(1174,614,o),
(1176,533,o),
(1185,398,c),
(1181,398,l),
(596,1510,l),
(257,1510,l),
(151,0,l)
);
},
{
closed = 1;
nodes = (
(753,1587,l),
(747,1602,o),
(743,1622,o),
(743,1640,cs),
(743,1670,o),
(757,1684,o),
(786,1684,cs),
(869,1684,o),
(964,1567,o),
(1070,1567,cs),
(1160,1567,o),
(1256,1655,o),
(1266,1799,cs),
(1266,1799,o),
(1268,1826,o),
(1269,1856,c),
(1070,1856,l),
(1070,1843,o),
(1070,1830,o),
(1070,1819,cs),
(1070,1773,o),
(1061,1759,o),
(1030,1759,cs),
(949,1759,o),
(896,1876,o),
(762,1876,cs),
(646,1876,o),
(547,1790,o),
(547,1634,cs),
(547,1620,o),
(548,1602,o),
(549,1587,c)
);
}
);
width = 1678;
},
{
anchors = (
{
name = bottom;
pos = (874,0);
},
{
name = top;
pos = (1004,1852);
}
);
layerId = m003;
shapes = (
{
closed = 1;
nodes = (
(374,0,l),
(441,952,ls),
(447,1032,o),
(451,1108,o),
(443,1230,c),
(448,1230,l),
(1350,0,l),
(1545,0,l),
(1651,1510,l),
(1460,1510,l),
(1394,568,ls),
(1387,473,o),
(1383,405,o),
(1391,284,c),
(1386,284,l),
(494,1510,l),
(289,1510,l),
(183,0,l)
);
},
{
closed = 1;
nodes = (
(818,1611,l),
(813,1627,o),
(809,1648,o),
(809,1670,cs),
(809,1713,o),
(825,1728,o),
(868,1728,cs),
(944,1728,o),
(1055,1594,o),
(1167,1594,cs),
(1256,1594,o),
(1344,1669,o),
(1352,1793,cs),
(1352,1793,o),
(1354,1816,o),
(1354,1842,c),
(1181,1842,l),
(1181,1833,o),
(1181,1825,o),
(1181,1816,cs),
(1181,1738,o),
(1173,1725,o),
(1125,1725,cs),
(1049,1725,o),
(987,1859,o),
(843,1859,cs),
(729,1859,o),
(638,1786,o),
(638,1661,cs),
(638,1644,o),
(639,1627,o),
(640,1611,c)
);
}
);
width = 1834;
},
{
anchors = (
{
name = bottom;
pos = (886,0);
},
{
name = top;
pos = (1020,1923);
}
);
layerId = m004;
shapes = (
{
closed = 1;
nodes = (
(440,0,l),
(498,834,ls),
(505,931,o),
(500,1035,o),
(495,1120,c),
(500,1120,l),
(1289,0,l),
(1621,0,l),
(1727,1510,l),
(1438,1510,l),
(1381,702,ls),
(1375,619,o),
(1374,536,o),
(1382,398,c),
(1377,398,l),
(592,1510,l),
(257,1510,l),
(151,0,l)
);
},
{
closed = 1;
nodes = (
(835,1587,l),
(827,1604,o),
(823,1627,o),
(823,1641,cs),
(823,1676,o),
(846,1684,o),
(871,1684,cs),
(965,1684,o),
(1073,1567,o),
(1191,1567,cs),
(1293,1567,o),
(1401,1655,o),
(1411,1799,cs),
(1411,1799,o),
(1413,1826,o),
(1414,1856,c),
(1189,1856,l),
(1190,1841,o),
(1190,1826,o),
(1190,1814,cs),
(1190,1773,o),
(1179,1759,o),
(1146,1759,cs),
(1054,1759,o),
(993,1876,o),
(842,1876,cs),
(713,1876,o),
(603,1790,o),
(603,1643,cs),
(603,1626,o),
(604,1607,o),
(605,1587,c)
);
}
);
width = 1878;
}
);
unicode = 209;
},
{
color = 3;
glyphname = Eng;
lastChange = "2022-03-23 22:41:43 +0000";
layers = (
{
layerId = "FC837317-1536-49E4-8B36-958C77713550";
shapes = (
{
closed = 1;
nodes = (
(1227,-434,o),
(1329,-224,o),
(1345,0,cs),
(1451,1510,l),
(1259,1510,l),
(1193,573,ls),
(1186,478,o),
(1188,404,o),
(1191,289,c),
(1185,289,l),
(503,1510,l),
(289,1510,l),
(183,0,l),
(375,0,l),
(441,947,ls),
(447,1035,o),
(448,1108,o),
(444,1225,c),
(449,1225,l),
(1151,-26,l),
(1139,-202,o),
(1069,-264,o),
(894,-264,cs),
(729,-264,o),
(553,-184,o),
(549,-174,c),
(535,-366,l),
(625,-405,o),
(763,-434,o),
(884,-434,cs)
);
}
);
width = 1634;
},
{
layerId = m014;
shapes = (
{
closed = 1;
nodes = (
(1172,-419,o),
(1399,-313,o),
(1421,0,cs),
(1527,1510,l),
(1237,1510,l),
(1181,712,ls),
(1174,614,o),
(1176,533,o),
(1185,398,c),
(1181,398,l),
(596,1510,l),
(257,1510,l),
(151,0,l),
(441,0,l),
(496,780,ls),
(504,893,o),
(500,1014,o),
(492,1120,c),
(496,1120,l),
(1125,-86,l),
(1122,-128,o),
(1098,-157,o),
(906,-157,cs),
(786,-157,o),
(593,-118,o),
(574,-100,c),
(555,-372,l),
(664,-405,o),
(774,-419,o),
(875,-419,cs)
);
}
);
width = 1678;
},
{
layerId = m003;
shapes = (
{
closed = 1;
nodes = (
(1515,-435,o),
(1532,-180,o),
(1544,-14,cs),
(1651,1510,l),
(1460,1510,l),
(1394,568,ls),
(1387,473,o),
(1383,405,o),
(1391,284,c),
(1386,284,l),
(494,1510,l),
(289,1510,l),
(183,0,l),
(374,0,l),
(441,952,ls),
(447,1032,o),
(451,1108,o),
(443,1230,c),
(448,1230,l),
(1354,-5,l),
(1340,-203,o),
(1231,-264,o),
(1001,-264,cs),
(767,-264,o),
(548,-181,o),
(549,-174,cs),
(535,-366,l),
(639,-401,o),
(835,-435,o),
(1008,-435,cs)
);
}
);
width = 1834;
},
{
layerId = m004;
shapes = (
{
closed = 1;
nodes = (
(1444,-430,o),
(1601,-288,o),
(1621,-3,cs),
(1727,1510,l),
(1438,1510,l),
(1381,702,ls),
(1375,619,o),
(1374,536,o),
(1382,398,c),
(1377,398,l),
(592,1510,l),
(257,1510,l),
(151,0,l),
(440,0,l),
(498,834,ls),
(505,931,o),
(500,1035,o),
(495,1120,c),
(500,1120,l),
(1330,-48,l),
(1325,-109,o),
(1250,-166,o),
(1011,-166,cs),
(826,-166,o),
(582,-123,o),
(574,-109,c),
(555,-381,l),
(670,-409,o),
(864,-430,o),
(1024,-430,cs)
);
}
);
width = 1878;
}
);
metricLeft = N;
metricRight = N;
unicode = 330;
},
{
color = 5;
glyphname = O;
kernLeft = KO_O;
kernRight = KO_O;
lastChange = "2022-03-23 22:41:43 +0000";
layers = (
{
anchors = (
{
name = bottom;
pos = (702,0);
},
{
name = center;
pos = (754,755);
},
{
name = ogonek;
pos = (1299,10);
},
{
name = top;
pos = (807,1510);
},
{
name = topleft;
pos = (81,1510);
},
{
name = topright;
pos = (1533,1510);
}
);
layerId = "FC837317-1536-49E4-8B36-958C77713550";
shapes = (
{
closed = 1;
nodes = (
(1115,-32,o),
(1397,321,o),
(1397,843,cs),
(1397,1268,o),
(1175,1530,o),
(809,1530,cs),
(390,1530,o),
(111,1182,o),
(111,662,cs),
(111,236,o),
(335,-32,o),
(699,-32,cs)
);
},
{
closed = 1;
nodes = (
(464,142,o),
(315,342,o),
(315,669,cs),
(315,1082,o),
(507,1356,o),
(796,1356,cs),
(1046,1356,o),
(1193,1157,o),
(1193,832,cs),
(1193,419,o),
(1000,142,o),
(712,142,cs)
);
}
);
width = 1508;
},
{
anchors = (
{
name = bottom;
pos = (755,-32);
},
{
name = center;
pos = (810,755);
},
{
name = ogonek;
pos = (918,0);
},
{
name = top;
pos = (863,1510);
},
{
name = topleft;
pos = (81,1510);
},
{
name = topright;
pos = (1645,1510);
}
);
layerId = m014;
shapes = (
{
closed = 1;
nodes = (
(1214,-32,o),
(1509,310,o),
(1509,840,cs),
(1509,1273,o),
(1271,1530,o),
(865,1530,cs),
(404,1530,o),
(111,1194,o),
(111,664,cs),
(111,231,o),
(350,-32,o),
(755,-32,cs)
);
},
{
closed = 1;
nodes = (
(555,218,o),
(412,408,o),
(412,689,cs),
(412,1031,o),
(594,1278,o),
(847,1278,cs),
(1067,1278,o),
(1208,1093,o),
(1208,812,cs),
(1208,470,o),
(1023,218,o),
(773,218,cs)
);
}
);
width = 1620;
},
{
anchors = (
{
name = bottom;
pos = (801,0);
},
{
name = center;
pos = (854,755);
},
{
name = ogonek;
pos = (1495,10);
},
{
name = top;
pos = (907,1510);
},
{
name = topleft;
pos = (65,1510);
},
{
name = topright;
pos = (1749,1510);
}
);
layerId = m003;
shapes = (
{
closed = 1;
nodes = (
(1274,-32,o),
(1597,316,o),
(1597,830,cs),
(1597,1262,o),
(1333,1530,o),
(908,1530,cs),
(430,1530,o),
(111,1187,o),
(111,674,cs),
(111,241,o),
(376,-32,o),
(799,-32,cs)
);
},
{
closed = 1;
nodes = (
(501,142,o),
(317,348,o),
(317,682,cs),
(317,1092,o),
(544,1356,o),
(896,1356,cs),
(1209,1356,o),
(1390,1152,o),
(1390,819,cs),
(1390,409,o),
(1161,142,o),
(811,142,cs)
);
}
);
width = 1708;
},
{
anchors = (
{
name = bottom;
pos = (857,0);
},
{
name = center;
pos = (910,755);
},
{
name = ogonek;
pos = (1046,0);
},
{
name = top;
pos = (963,1510);
},
{
name = topleft;
pos = (65,1510);
},
{
name = topright;
pos = (1861,1510);
}
);
layerId = m004;
shapes = (
{
closed = 1;
nodes = (
(1374,-32,o),
(1708,306,o),
(1708,829,cs),
(1708,1269,o),
(1429,1530,o),
(964,1530,cs),
(443,1530,o),
(111,1198,o),
(111,675,cs),
(111,235,o),
(391,-32,o),
(855,-32,cs)
);
},
{
closed = 1;
nodes = (
(592,218,o),
(414,413,o),
(414,700,cs),
(414,1041,o),
(632,1278,o),
(947,1278,cs),
(1229,1278,o),
(1405,1089,o),
(1405,802,cs),
(1405,461,o),
(1184,218,o),
(872,218,cs)
);
}
);
width = 1819;
}
);
unicode = 79;
userData = {
KernOnName = O;
};
},
{
color = 4;
glyphname = Oacute;
kernLeft = KO_O;
kernRight = KO_O;
lastChange = "2022-03-23 22:41:43 +0000";
layers = (
{
anchors = (
{
name = bottom;
pos = (702,0);
},
{
name = center;
pos = (754,755);
},
{
name = ogonek;
pos = (1299,10);
},
{
name = top;
pos = (943,1836);
},
{
name = topleft;
pos = (81,1510);
},
{
name = topright;
pos = (1533,1510);
}
);
layerId = "FC837317-1536-49E4-8B36-958C77713550";
shapes = (
{
closed = 1;
nodes = (
(1115,-32,o),
(1397,321,o),
(1397,843,cs),
(1397,1268,o),
(1175,1530,o),
(809,1530,cs),
(390,1530,o),
(111,1182,o),
(111,662,cs),
(111,236,o),
(335,-32,o),
(699,-32,cs)
);
},
{
closed = 1;
nodes = (
(464,142,o),
(315,342,o),
(315,669,cs),
(315,1082,o),
(507,1356,o),
(796,1356,cs),
(1046,1356,o),
(1193,1157,o),
(1193,832,cs),
(1193,419,o),
(1000,142,o),
(712,142,cs)
);
},
{
closed = 1;
nodes = (
(880,1612,l),
(1182,1844,l),
(945,1844,l),
(704,1612,l)
);
}
);
width = 1508;
},
{
anchors = (
{
name = bottom;
pos = (755,-32);
},
{
name = center;
pos = (810,755);
},
{
name = ogonek;
pos = (918,0);
},
{
name = top;
pos = (1028,1898);
},
{
name = topleft;
pos = (81,1510);
},
{
name = topright;
pos = (1645,1510);
}
);
layerId = m014;
shapes = (
{
closed = 1;
nodes = (
(1214,-32,o),
(1509,310,o),
(1509,840,cs),
(1509,1273,o),
(1271,1530,o),
(865,1530,cs),
(404,1530,o),
(111,1194,o),
(111,664,cs),
(111,231,o),
(350,-32,o),
(755,-32,cs)
);
},
{
closed = 1;
nodes = (
(555,218,o),
(412,408,o),
(412,689,cs),
(412,1031,o),
(594,1278,o),
(847,1278,cs),
(1067,1278,o),
(1208,1093,o),
(1208,812,cs),
(1208,470,o),
(1023,218,o),
(773,218,cs)
);
},
{
closed = 1;
nodes = (
(951,1628,l),
(1312,1868,l),
(1026,1868,l),
(738,1628,l)
);
}
);
width = 1620;
},
{
anchors = (
{
name = bottom;
pos = (801,0);
},
{
name = center;
pos = (854,755);
},
{
name = ogonek;
pos = (1495,10);
},
{
name = top;
pos = (1129,1844);
},
{
name = topleft;
pos = (65,1510);
},
{
name = topright;
pos = (1749,1510);
}
);
layerId = m003;
shapes = (
{
closed = 1;
nodes = (
(1274,-32,o),
(1597,316,o),
(1597,830,cs),
(1597,1262,o),
(1333,1530,o),
(908,1530,cs),
(430,1530,o),
(111,1187,o),
(111,674,cs),
(111,241,o),
(376,-32,o),
(799,-32,cs)
);
},
{
closed = 1;
nodes = (
(501,142,o),
(317,348,o),
(317,682,cs),
(317,1092,o),
(544,1356,o),
(896,1356,cs),
(1209,1356,o),
(1390,1152,o),
(1390,819,cs),
(1390,409,o),
(1161,142,o),
(811,142,cs)
);
},
{
closed = 1;
nodes = (
(1017,1616,l),
(1452,1848,l),
(1145,1848,l),
(789,1616,l)
);
}
);
width = 1708;
},
{
anchors = (
{
name = bottom;
pos = (857,0);
},
{
name = center;
pos = (910,755);
},
{
name = ogonek;
pos = (1046,0);
},
{
name = top;
pos = (1202,1868);
},
{
name = topleft;
pos = (65,1510);
},
{
name = topright;
pos = (1861,1510);
}
);
layerId = m004;
shapes = (
{
closed = 1;
nodes = (
(1374,-32,o),
(1708,306,o),
(1708,829,cs),
(1708,1269,o),
(1429,1530,o),
(964,1530,cs),
(443,1530,o),
(111,1198,o),
(111,675,cs),
(111,235,o),
(391,-32,o),
(855,-32,cs)
);
},
{
closed = 1;
nodes = (
(592,218,o),
(414,413,o),
(414,700,cs),
(414,1041,o),
(632,1278,o),
(947,1278,cs),
(1229,1278,o),
(1405,1089,o),
(1405,802,cs),
(1405,461,o),
(1184,218,o),
(872,218,cs)
);
},
{
closed = 1;
nodes = (
(1105,1628,l),
(1511,1868,l),
(1122,1868,l),
(825,1628,l)
);
}
);
width = 1819;
}
);
unicode = 211;
},
{
color = 4;
glyphname = Ocircumflex;
kernLeft = KO_O;
kernRight = KO_O;
lastChange = "2022-03-23 22:41:43 +0000";
layers = (
{
anchors = (
{
name = bottom;
pos = (702,0);
},
{
name = center;
pos = (754,755);
},
{
name = ogonek;
pos = (1299,10);
},
{
name = top;
pos = (832,1867);
},
{
name = topleft;
pos = (81,1510);
},
{
name = topright;
pos = (1533,1510);
}
);
layerId = "FC837317-1536-49E4-8B36-958C77713550";
shapes = (
{
closed = 1;
nodes = (
(1115,-32,o),
(1397,321,o),
(1397,843,cs),
(1397,1268,o),
(1175,1530,o),
(809,1530,cs),
(390,1530,o),
(111,1182,o),
(111,662,cs),
(111,236,o),
(335,-32,o),
(699,-32,cs)
);
},
{
closed = 1;
nodes = (
(464,142,o),
(315,342,o),
(315,669,cs),
(315,1082,o),
(507,1356,o),
(796,1356,cs),
(1046,1356,o),
(1193,1157,o),
(1193,832,cs),
(1193,419,o),
(1000,142,o),
(712,142,cs)
);
},
{
closed = 1;
nodes = (
(1160,1610,l),
(937,1875,l),
(728,1875,l),
(467,1610,l),
(670,1610,l),
(858,1820,l),
(801,1820,l),
(957,1610,l)
);
}
);
width = 1508;
},
{
anchors = (
{
name = bottom;
pos = (755,-32);
},
{
name = center;
pos = (810,755);
},
{
name = ogonek;
pos = (918,0);
},
{
name = top;
pos = (893,1942);
},
{
name = topleft;
pos = (81,1510);
},
{
name = topright;
pos = (1645,1510);
}
);
layerId = m014;
shapes = (
{
closed = 1;
nodes = (
(1214,-32,o),
(1509,310,o),
(1509,840,cs),
(1509,1273,o),
(1271,1530,o),
(865,1530,cs),
(404,1530,o),
(111,1194,o),
(111,664,cs),
(111,231,o),
(350,-32,o),
(755,-32,cs)
);
},
{
closed = 1;
nodes = (
(555,218,o),
(412,408,o),
(412,689,cs),
(412,1031,o),
(594,1278,o),
(847,1278,cs),
(1067,1278,o),
(1208,1093,o),
(1208,812,cs),
(1208,470,o),
(1023,218,o),
(773,218,cs)
);
},
{
closed = 1;
nodes = (
(1291,1631,l),
(1014,1868,l),
(761,1868,l),
(452,1631,l),
(740,1631,l),
(893,1761,l),
(870,1761,l),
(1003,1631,l)
);
}
);
width = 1620;
},
{
anchors = (
{
name = bottom;
pos = (801,0);
},
{
name = center;
pos = (854,755);
},
{
name = ogonek;
pos = (1495,10);
},
{
name = top;
pos = (933,1881);
},
{
name = topleft;
pos = (65,1510);
},
{
name = topright;
pos = (1749,1510);
}
);
layerId = m003;
shapes = (
{
closed = 1;
nodes = (
(1274,-32,o),
(1597,316,o),
(1597,830,cs),
(1597,1262,o),
(1333,1530,o),
(908,1530,cs),
(430,1530,o),
(111,1187,o),
(111,674,cs),
(111,241,o),
(376,-32,o),
(799,-32,cs)
);
},
{
closed = 1;
nodes = (
(501,142,o),
(317,348,o),
(317,682,cs),
(317,1092,o),
(544,1356,o),
(896,1356,cs),
(1209,1356,o),
(1390,1152,o),
(1390,819,cs),
(1390,409,o),
(1161,142,o),
(811,142,cs)
);
},
{
closed = 1;
nodes = (
(1353,1616,l),
(1065,1881,l),
(800,1881,l),
(474,1616,l),
(732,1616,l),
(966,1826,l),
(894,1826,l),
(1095,1616,l)
);
}
);
width = 1708;
},
{
anchors = (
{
name = bottom;
pos = (857,0);
},
{
name = center;
pos = (910,755);
},
{
name = ogonek;
pos = (1046,0);
},
{
name = top;
pos = (993,1942);
},
{
name = topleft;
pos = (65,1510);
},
{
name = topright;
pos = (1861,1510);
}
);
layerId = m004;
shapes = (
{
closed = 1;
nodes = (
(1374,-32,o),
(1708,306,o),
(1708,829,cs),
(1708,1269,o),
(1429,1530,o),
(964,1530,cs),
(443,1530,o),
(111,1198,o),
(111,675,cs),
(111,235,o),
(391,-32,o),
(855,-32,cs)
);
},
{
closed = 1;
nodes = (
(592,218,o),
(414,413,o),
(414,700,cs),
(414,1041,o),
(632,1278,o),
(947,1278,cs),
(1229,1278,o),
(1405,1089,o),
(1405,802,cs),
(1405,461,o),
(1184,218,o),
(872,218,cs)
);
},
{
closed = 1;
nodes = (
(1462,1631,l),
(1136,1868,l),
(839,1868,l),
(479,1631,l),
(816,1631,l),
(994,1761,l),
(967,1761,l),
(1125,1631,l)
);
}
);
width = 1819;
}
);
unicode = 212;
},
{
color = 4;
glyphname = Odieresis;
kernLeft = KO_O;
kernRight = KO_w;
lastChange = "2022-03-23 22:41:43 +0000";
layers = (
{
anchors = (
{
name = bottom;
pos = (702,0);
},
{
name = center;
pos = (754,755);
},
{
name = ogonek;
pos = (1299,10);
},
{
name = top;
pos = (835,1903);
},
{
name = topleft;
pos = (81,1510);
},
{
name = topright;
pos = (1533,1510);
}
);
layerId = "FC837317-1536-49E4-8B36-958C77713550";
shapes = (
{
closed = 1;
nodes = (
(1115,-32,o),
(1397,321,o),
(1397,843,cs),
(1397,1268,o),
(1175,1530,o),
(809,1530,cs),
(390,1530,o),
(111,1182,o),
(111,662,cs),
(111,236,o),
(335,-32,o),
(699,-32,cs)
);
},
{
closed = 1;
nodes = (
(464,142,o),
(315,342,o),
(315,669,cs),
(315,1082,o),
(507,1356,o),
(796,1356,cs),
(1046,1356,o),
(1193,1157,o),
(1193,832,cs),
(1193,419,o),
(1000,142,o),
(712,142,cs)
);
},
{
closed = 1;
nodes = (
(702,1625,o),
(759,1672,o),
(759,1741,cs),
(759,1802,o),
(715,1846,o),
(650,1846,cs),
(579,1846,o),
(525,1793,o),
(525,1726,cs),
(525,1667,o),
(569,1625,o),
(634,1625,cs)
);
},
{
closed = 1;
nodes = (
(1068,1625,o),
(1121,1675,o),
(1121,1743,cs),
(1121,1801,o),
(1078,1846,o),
(1012,1846,cs),
(941,1846,o),
(886,1793,o),
(886,1724,cs),
(886,1667,o),
(932,1625,o),
(996,1625,cs)
);
}
);
width = 1508;
},
{
anchors = (
{
name = bottom;
pos = (755,-32);
},
{
name = center;
pos = (810,755);
},
{
name = ogonek;
pos = (918,0);
},
{
name = top;
pos = (891,1903);
},
{
name = topleft;
pos = (81,1510);
},
{
name = topright;
pos = (1645,1510);
}
);
layerId = m014;
shapes = (
{
closed = 1;
nodes = (
(1214,-32,o),
(1509,310,o),
(1509,840,cs),
(1509,1273,o),
(1271,1530,o),
(865,1530,cs),
(404,1530,o),
(111,1194,o),
(111,664,cs),
(111,231,o),
(350,-32,o),
(755,-32,cs)
);
},
{
closed = 1;
nodes = (
(555,218,o),
(412,408,o),
(412,689,cs),
(412,1031,o),
(594,1278,o),
(847,1278,cs),
(1067,1278,o),
(1208,1093,o),
(1208,812,cs),
(1208,470,o),
(1023,218,o),
(773,218,cs)
);
},
{
closed = 1;
nodes = (
(764,1621,o),
(833,1678,o),
(833,1761,cs),
(833,1835,o),
(779,1888,o),
(701,1888,cs),
(615,1888,o),
(549,1824,o),
(549,1743,cs),
(549,1671,o),
(603,1621,o),
(682,1621,cs)
);
},
{
closed = 1;
nodes = (
(1147,1621,o),
(1212,1681,o),
(1212,1763,cs),
(1212,1834,o),
(1159,1888,o),
(1079,1888,cs),
(993,1888,o),
(927,1823,o),
(927,1741,cs),
(927,1671,o),
(982,1621,o),
(1060,1621,cs)
);
}
);
width = 1620;
},
{
anchors = (
{
name = bottom;
pos = (801,0);
},
{
name = center;
pos = (854,755);
},
{
name = ogonek;
pos = (1495,10);
},
{
name = top;
pos = (930,1846);
},
{
name = topleft;
pos = (65,1510);
},
{
name = topright;
pos = (1749,1510);
}
);
layerId = m003;
shapes = (
{
closed = 1;
nodes = (
(1274,-32,o),
(1597,316,o),
(1597,830,cs),
(1597,1262,o),
(1333,1530,o),
(908,1530,cs),
(430,1530,o),
(111,1187,o),
(111,674,cs),
(111,241,o),
(376,-32,o),
(799,-32,cs)
);
},
{
closed = 1;
nodes = (
(501,142,o),
(317,348,o),
(317,682,cs),
(317,1092,o),
(544,1356,o),
(896,1356,cs),
(1209,1356,o),
(1390,1152,o),
(1390,819,cs),
(1390,409,o),
(1161,142,o),
(811,142,cs)
);
},
{
closed = 1;
nodes = (
(774,1657,o),
(831,1704,o),
(831,1773,cs),
(831,1834,o),
(786,1878,o),
(722,1878,cs),
(651,1878,o),
(596,1825,o),
(596,1758,cs),
(596,1699,o),
(640,1657,o),
(706,1657,cs)
);
},
{
closed = 1;
nodes = (
(1199,1657,o),
(1253,1707,o),
(1253,1775,cs),
(1253,1833,o),
(1209,1878,o),
(1144,1878,cs),
(1073,1878,o),
(1018,1825,o),
(1018,1756,cs),
(1018,1699,o),
(1063,1657,o),
(1128,1657,cs)
);
}
);
width = 1708;
},
{
anchors = (
{
name = bottom;
pos = (857,0);
},
{
name = center;
pos = (910,755);
},
{
name = ogonek;
pos = (1046,0);
},
{
name = top;
pos = (990,1903);
},
{
name = topleft;
pos = (65,1510);
},
{
name = topright;
pos = (1861,1510);
}
);
layerId = m004;
shapes = (
{
closed = 1;
nodes = (
(1374,-32,o),
(1708,306,o),
(1708,829,cs),
(1708,1269,o),
(1429,1530,o),
(964,1530,cs),
(443,1530,o),
(111,1198,o),
(111,675,cs),
(111,235,o),
(391,-32,o),
(855,-32,cs)
);
},
{
closed = 1;
nodes = (
(592,218,o),
(414,413,o),
(414,700,cs),
(414,1041,o),
(632,1278,o),
(947,1278,cs),
(1229,1278,o),
(1405,1089,o),
(1405,802,cs),
(1405,461,o),
(1184,218,o),
(872,218,cs)
);
},
{
closed = 1;
nodes = (
(833,1621,o),
(903,1677,o),
(903,1761,cs),
(903,1835,o),
(848,1888,o),
(770,1888,cs),
(685,1888,o),
(618,1825,o),
(618,1743,cs),
(618,1671,o),
(673,1621,o),
(751,1621,cs)
);
},
{
closed = 1;
nodes = (
(1277,1621,o),
(1341,1682,o),
(1341,1763,cs),
(1341,1834,o),
(1288,1888,o),
(1208,1888,cs),
(1123,1888,o),
(1056,1824,o),
(1056,1741,cs),
(1056,1672,o),
(1111,1621,o),
(1189,1621,cs)
);
}
);
width = 1819;
}
);
unicode = 214;
},
{
color = 4;
glyphname = Ograve;
kernLeft = KO_O;
kernRight = KO_O;
lastChange = "2022-03-23 22:41:43 +0000";
layers = (
{
anchors = (
{
name = bottom;
pos = (702,0);
},
{
name = center;
pos = (754,755);
},
{
name = ogonek;
pos = (1299,10);
},
{
name = top;
pos = (766,1836);
},
{
name = topleft;
pos = (81,1510);
},
{
name = topright;
pos = (1533,1510);
}
);
layerId = "FC837317-1536-49E4-8B36-958C77713550";
shapes = (
{
closed = 1;
nodes = (
(1115,-32,o),
(1397,321,o),
(1397,843,cs),
(1397,1268,o),
(1175,1530,o),
(809,1530,cs),
(390,1530,o),
(111,1182,o),
(111,662,cs),
(111,236,o),
(335,-32,o),
(699,-32,cs)
);
},
{
closed = 1;
nodes = (
(464,142,o),
(315,342,o),
(315,669,cs),
(315,1082,o),
(507,1356,o),
(796,1356,cs),
(1046,1356,o),
(1193,1157,o),
(1193,832,cs),
(1193,419,o),
(1000,142,o),
(712,142,cs)
);
},
{
closed = 1;
nodes = (
(773,1844,l),
(536,1844,l),
(804,1612,l),
(980,1612,l)
);
}
);
width = 1508;
},
{
anchors = (
{
name = bottom;
pos = (755,-32);
},
{
name = center;
pos = (810,755);
},
{
name = ogonek;
pos = (918,0);
},
{
name = top;
pos = (813,1904);
},
{
name = topleft;
pos = (81,1510);
},
{
name = topright;
pos = (1645,1510);
}
);
layerId = m014;
shapes = (
{
closed = 1;
nodes = (
(1214,-32,o),
(1509,310,o),
(1509,840,cs),
(1509,1273,o),
(1271,1530,o),
(865,1530,cs),
(404,1530,o),
(111,1194,o),
(111,664,cs),
(111,231,o),
(350,-32,o),
(755,-32,cs)
);
},
{
closed = 1;
nodes = (
(555,218,o),
(412,408,o),
(412,689,cs),
(412,1031,o),
(594,1278,o),
(847,1278,cs),
(1067,1278,o),
(1208,1093,o),
(1208,812,cs),
(1208,470,o),
(1023,218,o),
(773,218,cs)
);
},
{
closed = 1;
nodes = (
(817,1868,l),
(531,1868,l),
(858,1628,l),
(1071,1628,l)
);
}
);
width = 1620;
},
{
anchors = (
{
name = bottom;
pos = (801,0);
},
{
name = center;
pos = (854,755);
},
{
name = ogonek;
pos = (1495,10);
},
{
name = top;
pos = (930,1848);
},
{
name = topleft;
pos = (65,1510);
},
{
name = topright;
pos = (1749,1510);
}
);
layerId = m003;
shapes = (
{
closed = 1;
nodes = (
(1274,-32,o),
(1597,316,o),
(1597,830,cs),
(1597,1262,o),
(1333,1530,o),
(908,1530,cs),
(430,1530,o),
(111,1187,o),
(111,674,cs),
(111,241,o),
(376,-32,o),
(799,-32,cs)
);
},
{
closed = 1;
nodes = (
(501,142,o),
(317,348,o),
(317,682,cs),
(317,1092,o),
(544,1356,o),
(896,1356,cs),
(1209,1356,o),
(1390,1152,o),
(1390,819,cs),
(1390,409,o),
(1161,142,o),
(811,142,cs)
);
},
{
closed = 1;
nodes = (
(913,1848,l),
(606,1848,l),
(1009,1616,l),
(1237,1616,l)
);
}
);
width = 1708;
},
{
anchors = (
{
name = bottom;
pos = (857,0);
},
{
name = center;
pos = (910,755);
},
{
name = ogonek;
pos = (1046,0);
},
{
name = top;
pos = (988,1868);
},
{
name = topleft;
pos = (65,1510);
},
{
name = topright;
pos = (1861,1510);
}
);
layerId = m004;
shapes = (
{
closed = 1;
nodes = (
(1374,-32,o),
(1708,306,o),
(1708,829,cs),
(1708,1269,o),
(1429,1530,o),
(964,1530,cs),
(443,1530,o),
(111,1198,o),
(111,675,cs),
(111,235,o),
(391,-32,o),
(855,-32,cs)
);
},
{
closed = 1;
nodes = (
(592,218,o),
(414,413,o),
(414,700,cs),
(414,1041,o),
(632,1278,o),
(947,1278,cs),
(1229,1278,o),
(1405,1089,o),
(1405,802,cs),
(1405,461,o),
(1184,218,o),
(872,218,cs)
);
},
{
closed = 1;
nodes = (
(976,1868,l),
(587,1868,l),
(959,1628,l),
(1239,1628,l)
);
}
);
width = 1819;
}
);
unicode = 210;
},
{
color = 4;
glyphname = Ohungarumlaut;
kernLeft = KO_O;
kernRight = KO_O;
lastChange = "2022-03-23 22:41:43 +0000";
layers = (
{
anchors = (
{
name = bottom;
pos = (702,0);
},
{
name = center;
pos = (754,755);
},
{
name = ogonek;
pos = (1299,10);
},
{
name = top;
pos = (830,1836);
},
{
name = topleft;
pos = (81,1510);
},
{
name = topright;
pos = (1533,1510);
}
);
layerId = "FC837317-1536-49E4-8B36-958C77713550";
shapes = (
{
closed = 1;
nodes = (
(1115,-32,o),
(1397,321,o),
(1397,843,cs),
(1397,1268,o),
(1175,1530,o),
(809,1530,cs),
(390,1530,o),
(111,1182,o),
(111,662,cs),
(111,236,o),
(335,-32,o),
(699,-32,cs)
);
},
{
closed = 1;
nodes = (
(464,142,o),
(315,342,o),
(315,669,cs),
(315,1082,o),
(507,1356,o),
(796,1356,cs),
(1046,1356,o),
(1193,1157,o),
(1193,832,cs),
(1193,419,o),
(1000,142,o),
(712,142,cs)
);
},
{
closed = 1;
nodes = (
(697,1620,l),
(998,1852,l),
(761,1852,l),
(521,1620,l)
);
},
{
closed = 1;
nodes = (
(1057,1620,l),
(1358,1852,l),
(1121,1852,l),
(881,1620,l)
);
}
);
width = 1508;
},
{
anchors = (
{
name = bottom;
pos = (755,-32);
},
{
name = center;
pos = (810,755);
},
{
name = ogonek;
pos = (918,0);
},
{
name = top;
pos = (891,1906);
},
{
name = topleft;
pos = (81,1510);
},
{
name = topright;
pos = (1645,1510);
}
);
layerId = m014;
shapes = (
{
closed = 1;
nodes = (
(1214,-32,o),
(1509,310,o),
(1509,840,cs),
(1509,1273,o),
(1271,1530,o),
(865,1530,cs),
(404,1530,o),
(111,1194,o),
(111,664,cs),
(111,231,o),
(350,-32,o),
(755,-32,cs)
);
},
{
closed = 1;
nodes = (
(555,218,o),
(412,408,o),
(412,689,cs),
(412,1031,o),
(594,1278,o),
(847,1278,cs),
(1067,1278,o),
(1208,1093,o),
(1208,812,cs),
(1208,470,o),
(1023,218,o),
(773,218,cs)
);
},
{
closed = 1;
nodes = (
(797,1636,l),
(1158,1876,l),
(872,1876,l),
(584,1636,l)
);
},
{
closed = 1;
nodes = (
(1157,1636,l),
(1518,1876,l),
(1232,1876,l),
(944,1636,l)
);
}
);
width = 1629;
},
{
anchors = (
{
name = bottom;
pos = (801,0);
},
{
name = center;
pos = (854,755);
},
{
name = ogonek;
pos = (1495,10);
},
{
name = top;
pos = (1135,1848);
},
{
name = topleft;
pos = (65,1510);
},
{
name = topright;
pos = (1749,1510);
}
);
layerId = m003;
shapes = (
{
closed = 1;
nodes = (
(1274,-32,o),
(1597,316,o),
(1597,830,cs),
(1597,1262,o),
(1333,1530,o),
(908,1530,cs),
(430,1530,o),
(111,1187,o),
(111,674,cs),
(111,241,o),
(376,-32,o),
(799,-32,cs)
);
},
{
closed = 1;
nodes = (
(501,142,o),
(317,348,o),
(317,682,cs),
(317,1092,o),
(544,1356,o),
(896,1356,cs),
(1209,1356,o),
(1390,1152,o),
(1390,819,cs),
(1390,409,o),
(1161,142,o),
(811,142,cs)
);
},
{
closed = 1;
nodes = (
(813,1616,l),
(1248,1848,l),
(941,1848,l),
(585,1616,l)
);
},
{
closed = 1;
nodes = (
(1233,1616,l),
(1668,1848,l),
(1361,1848,l),
(1005,1616,l)
);
}
);
width = 1779;
},
{
anchors = (
{
name = bottom;
pos = (857,0);
},
{
name = center;
pos = (910,755);
},
{
name = ogonek;
pos = (1046,0);
},
{
name = top;
pos = (1158,1876);
},
{
name = topleft;
pos = (65,1510);
},
{
name = topright;
pos = (1861,1510);
}
);
layerId = m004;
shapes = (
{
closed = 1;
nodes = (
(1374,-32,o),
(1708,306,o),
(1708,829,cs),
(1708,1269,o),
(1429,1530,o),
(964,1530,cs),
(443,1530,o),
(111,1198,o),
(111,675,cs),
(111,235,o),
(391,-32,o),
(855,-32,cs)
);
},
{
closed = 1;
nodes = (
(592,218,o),
(414,413,o),
(414,700,cs),
(414,1041,o),
(632,1278,o),
(947,1278,cs),
(1229,1278,o),
(1405,1089,o),
(1405,802,cs),
(1405,461,o),
(1184,218,o),
(872,218,cs)
);
},
{
closed = 1;
nodes = (
(857,1636,l),
(1262,1876,l),
(873,1876,l),
(577,1636,l)
);
},
{
closed = 1;
nodes = (
(1317,1636,l),
(1722,1876,l),
(1333,1876,l),
(1037,1636,l)
);
}
);
width = 1833;
}
);
unicode = 336;
},
